# MagicaVoxel @ Ephtracy

# group
o Car

# material
mtllib car.mtl
usemtl palette

# normals
vn -1 0 0
vn 1 0 0
vn 0 0 1
vn 0 0 -1
vn 0 -1 0
vn 0 1 0

# texcoords
vt 0.0644531 0.5
vt 0.564453 0.5
vt 0.751953 0.5
vt 0.791016 0.5
vt 0.912109 0.5
vt 0.939453 0.5
vt 0.966797 0.5
vt 0.970703 0.5
vt 0.978516 0.5
vt 0.994141 0.5

# verts
v -0.4 2 -0.2
v -0.4 2 -0.3
v -0.4 2.2 -0.2
v -0.4 2.2 -0.3
v -0.3 1.6 0.4
v -0.3 1.6 0.1
v -0.3 1.6 -0.2
v -0.3 1.6 -0.5
v -0.3 1.7 0.5
v -0.3 1.7 0.4
v -0.3 1.7 0.3
v -0.3 1.7 0.2
v -0.3 1.7 0.1
v -0.3 1.7 -0.2
v -0.3 1.7 -0.3
v -0.3 1.7 -0.4
v -0.3 1.7 -0.5
v -0.3 1.7 -0.6
v -0.3 1.8 0.5
v -0.3 1.8 0.4
v -0.3 1.8 0.3
v -0.3 1.8 0.2
v -0.3 1.8 0.1
v -0.3 1.8 -0.2
v -0.3 1.8 -0.3
v -0.3 1.8 -0.4
v -0.3 1.8 -0.5
v -0.3 1.8 -0.6
v -0.3 1.9 0.5
v -0.3 1.9 0.4
v -0.3 1.9 0.1
v -0.3 1.9 -0.2
v -0.3 1.9 -0.5
v -0.3 1.9 -0.6
v -0.3 2 0.5
v -0.3 2 0.4
v -0.3 2 -0.2
v -0.3 2 -0.3
v -0.3 2 -0.5
v -0.3 2 -0.6
v -0.3 2.1 0.5
v -0.3 2.1 0.3
v -0.3 2.1 0.2
v -0.3 2.1 -0.2
v -0.3 2.1 -0.3
v -0.3 2.1 -0.6
v -0.3 2.2 -0.2
v -0.3 2.2 -0.3
v -0.3 2.3 0.2
v -0.3 2.3 -0.2
v -0.3 2.4 0.3
v -0.3 2.4 -0.3
v -0.2 2.1 0.5
v -0.2 2.1 0.4
v -0.2 2.2 0.5
v -0.2 2.2 0.4
v 0.1 1.7 0.5
v 0.1 1.7 0.4
v 0.1 1.7 -0.5
v 0.1 1.7 -0.6
v 0.1 1.8 0.5
v 0.1 1.8 0.4
v 0.1 1.8 -0.5
v 0.1 1.8 -0.6
v 0.2 1.6 0.4
v 0.2 1.6 0.1
v 0.2 1.6 -0.2
v 0.2 1.6 -0.5
v 0.2 1.7 0.4
v 0.2 1.7 0.3
v 0.2 1.7 0.2
v 0.2 1.7 0.1
v 0.2 1.7 -0.2
v 0.2 1.7 -0.3
v 0.2 1.7 -0.4
v 0.2 1.7 -0.5
v 0.2 1.8 0.4
v 0.2 1.8 0.3
v 0.2 1.8 0.2
v 0.2 1.8 0.1
v 0.2 1.8 -0.2
v 0.2 1.8 -0.3
v 0.2 1.8 -0.4
v 0.2 1.8 -0.5
v 0.2 1.9 0.4
v 0.2 1.9 0.1
v 0.2 1.9 -0.2
v 0.2 1.9 -0.5
v 0.2 2 0.4
v 0.2 2 0.3
v 0.2 2 -0.3
v 0.2 2 -0.5
v 0.2 2.1 0.3
v 0.2 2.1 0.2
v 0.2 2.1 -0.2
v 0.2 2.1 -0.3
v 0.2 2.3 0.2
v 0.2 2.3 -0.2
v -0.2 1.6 0.4
v -0.2 1.6 0.1
v -0.2 1.6 -0.2
v -0.2 1.6 -0.5
v -0.2 1.7 0.4
v -0.2 1.7 0.3
v -0.2 1.7 0.2
v -0.2 1.7 0.1
v -0.2 1.7 -0.2
v -0.2 1.7 -0.3
v -0.2 1.7 -0.4
v -0.2 1.7 -0.5
v -0.2 1.8 0.4
v -0.2 1.8 0.3
v -0.2 1.8 0.2
v -0.2 1.8 0.1
v -0.2 1.8 -0.2
v -0.2 1.8 -0.3
v -0.2 1.8 -0.4
v -0.2 1.8 -0.5
v -0.2 1.9 0.4
v -0.2 1.9 0.1
v -0.2 1.9 -0.2
v -0.2 1.9 -0.5
v -0.2 2 0.4
v -0.2 2 0.3
v -0.2 2 -0.3
v -0.2 2 -0.5
v -0.2 2.1 0.3
v -0.2 2.1 0.2
v -0.2 2.1 -0.2
v -0.2 2.1 -0.3
v -0.2 2.3 0.2
v -0.2 2.3 -0.2
v -0.1 1.7 0.5
v -0.1 1.7 0.4
v -0.1 1.7 -0.5
v -0.1 1.7 -0.6
v -0.1 1.8 0.5
v -0.1 1.8 0.4
v -0.1 1.8 -0.5
v -0.1 1.8 -0.6
v 0.2 2.1 0.5
v 0.2 2.1 0.4
v 0.2 2.2 0.5
v 0.2 2.2 0.4
v 0.3 1.6 0.4
v 0.3 1.6 0.1
v 0.3 1.6 -0.2
v 0.3 1.6 -0.5
v 0.3 1.7 0.5
v 0.3 1.7 0.4
v 0.3 1.7 0.3
v 0.3 1.7 0.2
v 0.3 1.7 0.1
v 0.3 1.7 -0.2
v 0.3 1.7 -0.3
v 0.3 1.7 -0.4
v 0.3 1.7 -0.5
v 0.3 1.7 -0.6
v 0.3 1.8 0.5
v 0.3 1.8 0.4
v 0.3 1.8 0.3
v 0.3 1.8 0.2
v 0.3 1.8 0.1
v 0.3 1.8 -0.2
v 0.3 1.8 -0.3
v 0.3 1.8 -0.4
v 0.3 1.8 -0.5
v 0.3 1.8 -0.6
v 0.3 1.9 0.5
v 0.3 1.9 0.4
v 0.3 1.9 0.1
v 0.3 1.9 -0.2
v 0.3 1.9 -0.5
v 0.3 1.9 -0.6
v 0.3 2 0.5
v 0.3 2 0.4
v 0.3 2 -0.2
v 0.3 2 -0.3
v 0.3 2 -0.5
v 0.3 2 -0.6
v 0.3 2.1 0.5
v 0.3 2.1 0.3
v 0.3 2.1 0.2
v 0.3 2.1 -0.2
v 0.3 2.1 -0.3
v 0.3 2.1 -0.6
v 0.3 2.2 -0.2
v 0.3 2.2 -0.3
v 0.3 2.3 0.2
v 0.3 2.3 -0.2
v 0.3 2.4 0.3
v 0.3 2.4 -0.3
v 0.4 2 -0.2
v 0.4 2 -0.3
v 0.4 2.2 -0.2
v 0.4 2.2 -0.3
v -0.3 1.7 0.5
v -0.3 1.8 0.5
v -0.3 1.9 0.5
v -0.3 2 0.5
v -0.3 2.1 0.5
v -0.2 1.9 0.5
v -0.2 2 0.5
v -0.2 2.1 0.5
v -0.2 2.2 0.5
v -0.1 1.7 0.5
v -0.1 1.8 0.5
v -0.1 1.9 0.5
v 0.1 1.7 0.5
v 0.1 1.8 0.5
v 0.1 1.9 0.5
v 0.2 1.9 0.5
v 0.2 2 0.5
v 0.2 2.1 0.5
v 0.2 2.2 0.5
v 0.3 1.7 0.5
v 0.3 1.8 0.5
v 0.3 1.9 0.5
v 0.3 2 0.5
v 0.3 2.1 0.5
v -0.3 1.6 0.4
v -0.3 1.7 0.4
v -0.2 1.6 0.4
v -0.2 1.7 0.4
v 0.2 1.6 0.4
v 0.2 1.7 0.4
v 0.3 1.6 0.4
v 0.3 1.7 0.4
v -0.3 2.1 0.3
v -0.3 2.4 0.3
v -0.2 2.1 0.3
v -0.2 2.3 0.3
v 0.2 2.1 0.3
v 0.2 2.3 0.3
v 0.3 2.1 0.3
v 0.3 2.4 0.3
v -0.4 2 -0.2
v -0.4 2.2 -0.2
v -0.3 1.6 -0.2
v -0.3 1.7 -0.2
v -0.3 2 -0.2
v -0.3 2.1 -0.2
v -0.3 2.2 -0.2
v -0.2 1.6 -0.2
v -0.2 1.7 -0.2
v -0.2 2.1 -0.2
v -0.2 2.3 -0.2
v 0.2 1.6 -0.2
v 0.2 1.7 -0.2
v 0.2 2.1 -0.2
v 0.2 2.3 -0.2
v 0.3 1.6 -0.2
v 0.3 1.7 -0.2
v 0.3 2 -0.2
v 0.3 2.1 -0.2
v 0.3 2.2 -0.2
v 0.4 2 -0.2
v 0.4 2.2 -0.2
v -0.2 2 -0.3
v -0.2 2.1 -0.3
v 0.2 2 -0.3
v 0.2 2.1 -0.3
v -0.2 1.7 -0.5
v -0.2 1.8 -0.5
v -0.2 1.9 -0.5
v -0.2 2 -0.5
v -0.1 1.7 -0.5
v -0.1 1.8 -0.5
v -0.1 1.9 -0.5
v 0.1 1.7 -0.5
v 0.1 1.8 -0.5
v 0.1 1.9 -0.5
v 0.2 1.7 -0.5
v 0.2 1.8 -0.5
v 0.2 1.9 -0.5
v 0.2 2 -0.5
v -0.2 1.7 0.4
v -0.2 1.8 0.4
v -0.2 1.9 0.4
v -0.2 2 0.4
v -0.2 2.1 0.4
v -0.2 2.2 0.4
v -0.1 1.7 0.4
v -0.1 1.8 0.4
v -0.1 1.9 0.4
v 0.1 1.7 0.4
v 0.1 1.8 0.4
v 0.1 1.9 0.4
v 0.2 1.7 0.4
v 0.2 1.8 0.4
v 0.2 1.9 0.4
v 0.2 2 0.4
v 0.2 2.1 0.4
v 0.2 2.2 0.4
v -0.2 2 0.3
v -0.2 2.1 0.3
v 0.2 2 0.3
v 0.2 2.1 0.3
v -0.2 2.1 0.2
v -0.2 2.3 0.2
v 0.2 2.1 0.2
v 0.2 2.3 0.2
v -0.3 1.6 0.1
v -0.3 1.7 0.1
v -0.2 1.6 0.1
v -0.2 1.7 0.1
v 0.2 1.6 0.1
v 0.2 1.7 0.1
v 0.3 1.6 0.1
v 0.3 1.7 0.1
v -0.4 2 -0.3
v -0.4 2.2 -0.3
v -0.3 2 -0.3
v -0.3 2.1 -0.3
v -0.3 2.2 -0.3
v -0.3 2.4 -0.3
v -0.2 2.1 -0.3
v -0.2 2.3 -0.3
v 0.2 2.1 -0.3
v 0.2 2.3 -0.3
v 0.3 2 -0.3
v 0.3 2.1 -0.3
v 0.3 2.2 -0.3
v 0.3 2.4 -0.3
v 0.4 2 -0.3
v 0.4 2.2 -0.3
v -0.3 1.6 -0.5
v -0.3 1.7 -0.5
v -0.2 1.6 -0.5
v -0.2 1.7 -0.5
v 0.2 1.6 -0.5
v 0.2 1.7 -0.5
v 0.3 1.6 -0.5
v 0.3 1.7 -0.5
v -0.3 1.7 -0.6
v -0.3 1.8 -0.6
v -0.3 1.9 -0.6
v -0.3 2 -0.6
v -0.3 2.1 -0.6
v -0.2 1.9 -0.6
v -0.2 2 -0.6
v -0.2 2.1 -0.6
v -0.1 1.7 -0.6
v -0.1 1.8 -0.6
v -0.1 1.9 -0.6
v 0.1 1.7 -0.6
v 0.1 1.8 -0.6
v 0.1 1.9 -0.6
v 0.2 1.9 -0.6
v 0.2 2 -0.6
v 0.2 2.1 -0.6
v 0.3 1.7 -0.6
v 0.3 1.8 -0.6
v 0.3 1.9 -0.6
v 0.3 2 -0.6
v 0.3 2.1 -0.6
v -0.3 1.6 0.4
v -0.2 1.6 0.4
v 0.2 1.6 0.4
v 0.3 1.6 0.4
v -0.3 1.6 0.1
v -0.2 1.6 0.1
v 0.2 1.6 0.1
v 0.3 1.6 0.1
v -0.3 1.6 -0.2
v -0.2 1.6 -0.2
v 0.2 1.6 -0.2
v 0.3 1.6 -0.2
v -0.3 1.6 -0.5
v -0.2 1.6 -0.5
v 0.2 1.6 -0.5
v 0.3 1.6 -0.5
v -0.3 1.7 0.5
v -0.1 1.7 0.5
v 0.1 1.7 0.5
v 0.3 1.7 0.5
v -0.3 1.7 0.4
v -0.2 1.7 0.4
v -0.1 1.7 0.4
v 0.1 1.7 0.4
v 0.2 1.7 0.4
v 0.3 1.7 0.4
v -0.3 1.7 0.1
v -0.2 1.7 0.1
v 0.2 1.7 0.1
v 0.3 1.7 0.1
v -0.3 1.7 -0.2
v -0.2 1.7 -0.2
v 0.2 1.7 -0.2
v 0.3 1.7 -0.2
v -0.3 1.7 -0.5
v -0.2 1.7 -0.5
v -0.1 1.7 -0.5
v 0.1 1.7 -0.5
v 0.2 1.7 -0.5
v 0.3 1.7 -0.5
v -0.3 1.7 -0.6
v -0.1 1.7 -0.6
v 0.1 1.7 -0.6
v 0.3 1.7 -0.6
v -0.1 1.8 0.5
v 0.1 1.8 0.5
v -0.1 1.8 0.4
v 0.1 1.8 0.4
v -0.1 1.8 -0.5
v 0.1 1.8 -0.5
v -0.1 1.8 -0.6
v 0.1 1.8 -0.6
v -0.2 2 0.4
v 0.2 2 0.4
v -0.2 2 0.3
v 0.2 2 0.3
v -0.4 2 -0.2
v -0.3 2 -0.2
v 0.3 2 -0.2
v 0.4 2 -0.2
v -0.4 2 -0.3
v -0.3 2 -0.3
v -0.2 2 -0.3
v 0.2 2 -0.3
v 0.3 2 -0.3
v 0.4 2 -0.3
v -0.2 2 -0.5
v 0.2 2 -0.5
v -0.2 2.1 0.3
v 0.2 2.1 0.3
v -0.2 2.1 0.2
v 0.2 2.1 0.2
v -0.2 2.1 -0.2
v 0.2 2.1 -0.2
v -0.2 2.1 -0.3
v 0.2 2.1 -0.3
v -0.2 2.3 0.2
v 0.2 2.3 0.2
v -0.2 2.3 -0.2
v 0.2 2.3 -0.2
v -0.3 2.1 0.5
v -0.2 2.1 0.5
v 0.2 2.1 0.5
v 0.3 2.1 0.5
v -0.2 2.1 0.4
v 0.2 2.1 0.4
v -0.3 2.1 0.3
v -0.2 2.1 0.3
v 0.2 2.1 0.3
v 0.3 2.1 0.3
v -0.3 2.1 -0.3
v -0.2 2.1 -0.3
v 0.2 2.1 -0.3
v 0.3 2.1 -0.3
v -0.3 2.1 -0.6
v -0.2 2.1 -0.6
v 0.2 2.1 -0.6
v 0.3 2.1 -0.6
v -0.2 2.2 0.5
v 0.2 2.2 0.5
v -0.2 2.2 0.4
v 0.2 2.2 0.4
v -0.4 2.2 -0.2
v -0.3 2.2 -0.2
v 0.3 2.2 -0.2
v 0.4 2.2 -0.2
v -0.4 2.2 -0.3
v -0.3 2.2 -0.3
v 0.3 2.2 -0.3
v 0.4 2.2 -0.3
v -0.3 2.4 0.3
v 0.3 2.4 0.3
v -0.3 2.4 -0.3
v 0.3 2.4 -0.3

# faces
f 3/9/1 2/9/1 1/9/1
f 4/9/1 2/9/1 3/9/1
f 10/10/1 6/10/1 5/10/1
f 11/10/1 6/10/1 10/10/1
f 12/10/1 6/10/1 11/10/1
f 13/10/1 6/10/1 12/10/1
f 14/10/1 8/10/1 7/10/1
f 15/10/1 8/10/1 14/10/1
f 16/10/1 8/10/1 15/10/1
f 17/10/1 8/10/1 16/10/1
f 19/6/1 10/6/1 9/6/1
f 20/10/1 11/10/1 10/10/1
f 20/6/1 10/6/1 19/6/1
f 21/2/1 12/2/1 11/2/1
f 21/10/1 11/10/1 20/10/1
f 22/10/1 13/10/1 12/10/1
f 22/2/1 12/2/1 21/2/1
f 23/9/1 14/9/1 13/9/1
f 23/10/1 13/10/1 22/10/1
f 24/10/1 15/10/1 14/10/1
f 24/9/1 14/9/1 23/9/1
f 25/2/1 16/2/1 15/2/1
f 25/10/1 15/10/1 24/10/1
f 26/10/1 17/10/1 16/10/1
f 26/2/1 16/2/1 25/2/1
f 27/9/1 18/9/1 17/9/1
f 27/10/1 17/10/1 26/10/1
f 28/9/1 18/9/1 27/9/1
f 29/3/1 20/3/1 19/3/1
f 30/10/1 21/10/1 20/10/1
f 30/3/1 20/3/1 29/3/1
f 30/10/1 22/10/1 21/10/1
f 30/10/1 23/10/1 22/10/1
f 31/3/1 24/3/1 23/3/1
f 31/10/1 23/10/1 30/10/1
f 32/10/1 26/10/1 25/10/1
f 32/3/1 24/3/1 31/3/1
f 32/10/1 27/10/1 26/10/1
f 32/10/1 25/10/1 24/10/1
f 33/3/1 28/3/1 27/3/1
f 33/10/1 27/10/1 32/10/1
f 34/3/1 28/3/1 33/3/1
f 35/1/1 30/1/1 29/1/1
f 36/3/1 31/3/1 30/3/1
f 36/1/1 30/1/1 35/1/1
f 36/3/1 32/3/1 31/3/1
f 36/3/1 33/3/1 32/3/1
f 37/3/1 33/3/1 36/3/1
f 38/3/1 33/3/1 37/3/1
f 39/5/1 34/5/1 33/5/1
f 39/3/1 33/3/1 38/3/1
f 40/5/1 34/5/1 39/5/1
f 41/3/1 36/3/1 35/3/1
f 41/3/1 37/3/1 36/3/1
f 42/3/1 37/3/1 41/3/1
f 43/3/1 37/3/1 42/3/1
f 44/3/1 37/3/1 43/3/1
f 45/3/1 40/3/1 39/3/1
f 45/3/1 39/3/1 38/3/1
f 46/3/1 40/3/1 45/3/1
f 47/10/1 44/10/1 43/10/1
f 49/5/1 43/5/1 42/5/1
f 49/10/1 47/10/1 43/10/1
f 50/5/1 48/5/1 47/5/1
f 50/10/1 47/10/1 49/10/1
f 51/5/1 49/5/1 42/5/1
f 51/5/1 50/5/1 49/5/1
f 52/5/1 48/5/1 50/5/1
f 52/5/1 50/5/1 51/5/1
f 55/4/1 54/4/1 53/4/1
f 56/4/1 54/4/1 55/4/1
f 61/6/1 58/6/1 57/6/1
f 62/6/1 58/6/1 61/6/1
f 63/9/1 60/9/1 59/9/1
f 64/9/1 60/9/1 63/9/1
f 69/10/1 66/10/1 65/10/1
f 70/10/1 66/10/1 69/10/1
f 71/10/1 66/10/1 70/10/1
f 72/10/1 66/10/1 71/10/1
f 73/10/1 68/10/1 67/10/1
f 74/10/1 68/10/1 73/10/1
f 75/10/1 68/10/1 74/10/1
f 76/10/1 68/10/1 75/10/1
f 77/10/1 70/10/1 69/10/1
f 78/2/1 71/2/1 70/2/1
f 78/10/1 70/10/1 77/10/1
f 79/10/1 72/10/1 71/10/1
f 79/2/1 71/2/1 78/2/1
f 80/9/1 73/9/1 72/9/1
f 80/10/1 72/10/1 79/10/1
f 81/10/1 74/10/1 73/10/1
f 81/9/1 73/9/1 80/9/1
f 82/2/1 75/2/1 74/2/1
f 82/10/1 74/10/1 81/10/1
f 83/10/1 76/10/1 75/10/1
f 83/2/1 75/2/1 82/2/1
f 84/10/1 76/10/1 83/10/1
f 85/10/1 78/10/1 77/10/1
f 85/10/1 79/10/1 78/10/1
f 85/10/1 80/10/1 79/10/1
f 86/3/1 81/3/1 80/3/1
f 86/10/1 80/10/1 85/10/1
f 87/10/1 84/10/1 83/10/1
f 87/3/1 81/3/1 86/3/1
f 87/10/1 83/10/1 82/10/1
f 87/10/1 82/10/1 81/10/1
f 88/10/1 84/10/1 87/10/1
f 89/3/1 86/3/1 85/3/1
f 89/3/1 87/3/1 86/3/1
f 89/3/1 88/3/1 87/3/1
f 90/3/1 88/3/1 89/3/1
f 91/3/1 88/3/1 90/3/1
f 92/3/1 88/3/1 91/3/1
f 93/3/1 91/3/1 90/3/1
f 94/3/1 91/3/1 93/3/1
f 95/3/1 91/3/1 94/3/1
f 96/3/1 91/3/1 95/3/1
f 97/10/1 95/10/1 94/10/1
f 98/10/1 95/10/1 97/10/1
f 99/10/2 100/10/2 103/10/2
f 103/10/2 100/10/2 104/10/2
f 104/10/2 100/10/2 105/10/2
f 105/10/2 100/10/2 106/10/2
f 101/10/2 102/10/2 107/10/2
f 107/10/2 102/10/2 108/10/2
f 108/10/2 102/10/2 109/10/2
f 109/10/2 102/10/2 110/10/2
f 103/10/2 104/10/2 111/10/2
f 104/2/2 105/2/2 112/2/2
f 111/10/2 104/10/2 112/10/2
f 105/10/2 106/10/2 113/10/2
f 112/2/2 105/2/2 113/2/2
f 106/9/2 107/9/2 114/9/2
f 113/10/2 106/10/2 114/10/2
f 107/10/2 108/10/2 115/10/2
f 114/9/2 107/9/2 115/9/2
f 108/2/2 109/2/2 116/2/2
f 115/10/2 108/10/2 116/10/2
f 109/10/2 110/10/2 117/10/2
f 116/2/2 109/2/2 117/2/2
f 117/10/2 110/10/2 118/10/2
f 111/10/2 112/10/2 119/10/2
f 112/10/2 113/10/2 119/10/2
f 113/10/2 114/10/2 119/10/2
f 114/3/2 115/3/2 120/3/2
f 119/10/2 114/10/2 120/10/2
f 117/10/2 118/10/2 121/10/2
f 120/3/2 115/3/2 121/3/2
f 116/10/2 117/10/2 121/10/2
f 115/10/2 116/10/2 121/10/2
f 121/10/2 118/10/2 122/10/2
f 119/3/2 120/3/2 123/3/2
f 120/3/2 121/3/2 123/3/2
f 121/3/2 122/3/2 123/3/2
f 123/3/2 122/3/2 124/3/2
f 124/3/2 122/3/2 125/3/2
f 125/3/2 122/3/2 126/3/2
f 124/3/2 125/3/2 127/3/2
f 127/3/2 125/3/2 128/3/2
f 128/3/2 125/3/2 129/3/2
f 129/3/2 125/3/2 130/3/2
f 128/10/2 129/10/2 131/10/2
f 131/10/2 129/10/2 132/10/2
f 133/6/2 134/6/2 137/6/2
f 137/6/2 134/6/2 138/6/2
f 135/9/2 136/9/2 139/9/2
f 139/9/2 136/9/2 140/9/2
f 141/4/2 142/4/2 143/4/2
f 143/4/2 142/4/2 144/4/2
f 145/10/2 146/10/2 150/10/2
f 150/10/2 146/10/2 151/10/2
f 151/10/2 146/10/2 152/10/2
f 152/10/2 146/10/2 153/10/2
f 147/10/2 148/10/2 154/10/2
f 154/10/2 148/10/2 155/10/2
f 155/10/2 148/10/2 156/10/2
f 156/10/2 148/10/2 157/10/2
f 149/6/2 150/6/2 159/6/2
f 150/10/2 151/10/2 160/10/2
f 159/6/2 150/6/2 160/6/2
f 151/2/2 152/2/2 161/2/2
f 160/10/2 151/10/2 161/10/2
f 152/10/2 153/10/2 162/10/2
f 161/2/2 152/2/2 162/2/2
f 153/9/2 154/9/2 163/9/2
f 162/10/2 153/10/2 163/10/2
f 154/10/2 155/10/2 164/10/2
f 163/9/2 154/9/2 164/9/2
f 155/2/2 156/2/2 165/2/2
f 164/10/2 155/10/2 165/10/2
f 156/10/2 157/10/2 166/10/2
f 165/2/2 156/2/2 166/2/2
f 157/9/2 158/9/2 167/9/2
f 166/10/2 157/10/2 167/10/2
f 167/9/2 158/9/2 168/9/2
f 159/3/2 160/3/2 169/3/2
f 160/10/2 161/10/2 170/10/2
f 169/3/2 160/3/2 170/3/2
f 161/10/2 162/10/2 170/10/2
f 162/10/2 163/10/2 170/10/2
f 163/3/2 164/3/2 171/3/2
f 170/10/2 163/10/2 171/10/2
f 165/10/2 166/10/2 172/10/2
f 171/3/2 164/3/2 172/3/2
f 166/10/2 167/10/2 172/10/2
f 164/10/2 165/10/2 172/10/2
f 167/3/2 168/3/2 173/3/2
f 172/10/2 167/10/2 173/10/2
f 173/3/2 168/3/2 174/3/2
f 169/1/2 170/1/2 175/1/2
f 170/3/2 171/3/2 176/3/2
f 175/1/2 170/1/2 176/1/2
f 171/3/2 172/3/2 176/3/2
f 172/3/2 173/3/2 176/3/2
f 176/3/2 173/3/2 177/3/2
f 177/3/2 173/3/2 178/3/2
f 173/5/2 174/5/2 179/5/2
f 178/3/2 173/3/2 179/3/2
f 179/5/2 174/5/2 180/5/2
f 175/3/2 176/3/2 181/3/2
f 176/3/2 177/3/2 181/3/2
f 181/3/2 177/3/2 182/3/2
f 182/3/2 177/3/2 183/3/2
f 183/3/2 177/3/2 184/3/2
f 179/3/2 180/3/2 185/3/2
f 178/3/2 179/3/2 185/3/2
f 185/3/2 180/3/2 186/3/2
f 183/10/2 184/10/2 187/10/2
f 182/5/2 183/5/2 189/5/2
f 183/10/2 187/10/2 189/10/2
f 187/5/2 188/5/2 190/5/2
f 189/10/2 187/10/2 190/10/2
f 182/5/2 189/5/2 191/5/2
f 189/5/2 190/5/2 191/5/2
f 190/5/2 188/5/2 192/5/2
f 191/5/2 190/5/2 192/5/2
f 193/9/2 194/9/2 195/9/2
f 195/9/2 194/9/2 196/9/2
f 202/3/3 199/3/3 198/3/3
f 202/1/3 200/1/3 199/1/3
f 203/3/3 201/3/3 200/3/3
f 203/1/3 200/1/3 202/1/3
f 204/3/3 201/3/3 203/3/3
f 206/6/3 198/6/3 197/6/3
f 207/3/3 202/3/3 198/3/3
f 207/6/3 198/6/3 206/6/3
f 207/3/3 203/3/3 202/3/3
f 208/3/3 203/3/3 207/3/3
f 210/8/3 208/8/3 207/8/3
f 211/3/3 203/3/3 208/3/3
f 211/8/3 208/8/3 210/8/3
f 212/3/3 211/3/3 210/3/3
f 212/3/3 203/3/3 211/3/3
f 213/4/3 205/4/3 204/4/3
f 213/3/3 203/3/3 212/3/3
f 213/4/3 204/4/3 203/4/3
f 214/4/3 205/4/3 213/4/3
f 215/4/3 205/4/3 214/4/3
f 216/6/3 210/6/3 209/6/3
f 217/3/3 212/3/3 210/3/3
f 217/6/3 210/6/3 216/6/3
f 218/1/3 213/1/3 212/1/3
f 218/3/3 212/3/3 217/3/3
f 219/3/3 214/3/3 213/3/3
f 219/1/3 213/1/3 218/1/3
f 220/3/3 214/3/3 219/3/3
f 223/10/3 222/10/3 221/10/3
f 224/10/3 222/10/3 223/10/3
f 227/10/3 226/10/3 225/10/3
f 228/10/3 226/10/3 227/10/3
f 231/5/3 230/5/3 229/5/3
f 232/5/3 230/5/3 231/5/3
f 233/10/3 232/10/3 231/10/3
f 234/5/3 230/5/3 232/5/3
f 234/10/3 232/10/3 233/10/3
f 235/5/3 234/5/3 233/5/3
f 236/5/3 230/5/3 234/5/3
f 236/5/3 234/5/3 235/5/3
f 241/9/3 238/9/3 237/9/3
f 242/9/3 238/9/3 241/9/3
f 243/9/3 238/9/3 242/9/3
f 244/10/3 240/10/3 239/10/3
f 245/10/3 240/10/3 244/10/3
f 250/10/3 247/10/3 246/10/3
f 251/10/3 247/10/3 250/10/3
f 252/10/3 249/10/3 248/10/3
f 253/10/3 249/10/3 252/10/3
f 257/9/3 256/9/3 255/9/3
f 257/9/3 255/9/3 254/9/3
f 258/9/3 256/9/3 257/9/3
f 261/4/3 260/4/3 259/4/3
f 262/4/3 260/4/3 261/4/3
f 267/9/3 264/9/3 263/9/3
f 268/3/3 266/3/3 265/3/3
f 268/9/3 264/9/3 267/9/3
f 268/3/3 265/3/3 264/3/3
f 269/3/3 266/3/3 268/3/3
f 271/7/3 269/7/3 268/7/3
f 272/3/3 266/3/3 269/3/3
f 272/7/3 269/7/3 271/7/3
f 273/9/3 271/9/3 270/9/3
f 274/3/3 272/3/3 271/3/3
f 274/9/3 271/9/3 273/9/3
f 275/3/3 266/3/3 272/3/3
f 275/3/3 272/3/3 274/3/3
f 276/3/3 266/3/3 275/3/3
f 277/6/4 278/6/4 283/6/4
f 278/3/4 279/3/4 284/3/4
f 283/6/4 278/6/4 284/6/4
f 279/3/4 280/3/4 284/3/4
f 284/3/4 280/3/4 285/3/4
f 284/8/4 285/8/4 287/8/4
f 285/3/4 280/3/4 288/3/4
f 287/8/4 285/8/4 288/8/4
f 286/6/4 287/6/4 289/6/4
f 287/3/4 288/3/4 290/3/4
f 289/6/4 287/6/4 290/6/4
f 288/3/4 280/3/4 291/3/4
f 290/3/4 288/3/4 291/3/4
f 291/3/4 280/3/4 292/3/4
f 281/4/4 282/4/4 293/4/4
f 293/4/4 282/4/4 294/4/4
f 295/3/4 296/3/4 297/3/4
f 297/3/4 296/3/4 298/3/4
f 299/10/4 300/10/4 301/10/4
f 301/10/4 300/10/4 302/10/4
f 303/10/4 304/10/4 305/10/4
f 305/10/4 304/10/4 306/10/4
f 307/10/4 308/10/4 309/10/4
f 309/10/4 308/10/4 310/10/4
f 311/9/4 312/9/4 313/9/4
f 313/9/4 312/9/4 314/9/4
f 314/9/4 312/9/4 315/9/4
f 315/5/4 316/5/4 317/5/4
f 314/5/4 315/5/4 317/5/4
f 317/5/4 316/5/4 318/5/4
f 317/10/4 318/10/4 319/10/4
f 318/5/4 316/5/4 320/5/4
f 319/10/4 318/10/4 320/10/4
f 319/5/4 320/5/4 322/5/4
f 322/5/4 320/5/4 323/5/4
f 320/5/4 316/5/4 324/5/4
f 323/5/4 320/5/4 324/5/4
f 322/9/4 323/9/4 325/9/4
f 321/9/4 322/9/4 325/9/4
f 325/9/4 323/9/4 326/9/4
f 327/10/4 328/10/4 329/10/4
f 329/10/4 328/10/4 330/10/4
f 331/10/4 332/10/4 333/10/4
f 333/10/4 332/10/4 334/10/4
f 336/3/4 337/3/4 340/3/4
f 337/5/4 338/5/4 340/5/4
f 338/3/4 339/3/4 341/3/4
f 340/5/4 338/5/4 341/5/4
f 341/3/4 339/3/4 342/3/4
f 335/9/4 336/9/4 343/9/4
f 336/3/4 340/3/4 344/3/4
f 343/9/4 336/9/4 344/9/4
f 340/3/4 341/3/4 344/3/4
f 344/3/4 341/3/4 345/3/4
f 344/7/4 345/7/4 347/7/4
f 345/3/4 341/3/4 348/3/4
f 347/7/4 345/7/4 348/7/4
f 347/3/4 348/3/4 349/3/4
f 348/3/4 341/3/4 349/3/4
f 341/4/4 342/4/4 350/4/4
f 349/3/4 341/3/4 350/3/4
f 350/4/4 342/4/4 351/4/4
f 346/9/4 347/9/4 352/9/4
f 347/3/4 349/3/4 353/3/4
f 352/9/4 347/9/4 353/9/4
f 349/5/4 350/5/4 354/5/4
f 353/3/4 349/3/4 354/3/4
f 350/3/4 351/3/4 355/3/4
f 354/5/4 350/5/4 355/5/4
f 355/3/4 351/3/4 356/3/4
f 361/10/5 358/10/5 357/10/5
f 362/10/5 358/10/5 361/10/5
f 363/10/5 360/10/5 359/10/5
f 364/10/5 360/10/5 363/10/5
f 369/10/5 366/10/5 365/10/5
f 370/10/5 366/10/5 369/10/5
f 371/10/5 368/10/5 367/10/5
f 372/10/5 368/10/5 371/10/5
f 377/6/5 374/6/5 373/6/5
f 378/6/5 374/6/5 377/6/5
f 379/6/5 374/6/5 378/6/5
f 380/6/5 376/6/5 375/6/5
f 381/6/5 376/6/5 380/6/5
f 382/6/5 376/6/5 381/6/5
f 387/9/5 384/9/5 383/9/5
f 388/9/5 384/9/5 387/9/5
f 389/9/5 386/9/5 385/9/5
f 390/9/5 386/9/5 389/9/5
f 397/9/5 392/9/5 391/9/5
f 397/9/5 393/9/5 392/9/5
f 398/9/5 393/9/5 397/9/5
f 399/9/5 396/9/5 395/9/5
f 399/9/5 395/9/5 394/9/5
f 400/9/5 396/9/5 399/9/5
f 403/8/5 402/8/5 401/8/5
f 404/8/5 402/8/5 403/8/5
f 407/7/5 406/7/5 405/7/5
f 408/7/5 406/7/5 407/7/5
f 411/3/5 410/3/5 409/3/5
f 412/3/5 410/3/5 411/3/5
f 417/9/5 414/9/5 413/9/5
f 418/9/5 414/9/5 417/9/5
f 421/9/5 416/9/5 415/9/5
f 422/9/5 416/9/5 421/9/5
f 423/4/5 420/4/5 419/4/5
f 424/4/5 420/4/5 423/4/5
f 427/10/5 426/10/5 425/10/5
f 428/10/5 426/10/5 427/10/5
f 431/10/5 430/10/5 429/10/5
f 432/10/5 430/10/5 431/10/5
f 435/5/5 434/5/5 433/5/5
f 436/5/5 434/5/5 435/5/5
f 437/3/6 438/3/6 441/3/6
f 439/3/6 440/3/6 442/3/6
f 437/3/6 441/3/6 443/3/6
f 441/3/6 442/3/6 443/3/6
f 443/3/6 442/3/6 444/3/6
f 442/3/6 440/3/6 445/3/6
f 444/3/6 442/3/6 445/3/6
f 445/3/6 440/3/6 446/3/6
f 447/3/6 448/3/6 451/3/6
f 448/4/6 449/4/6 452/4/6
f 451/3/6 448/3/6 452/3/6
f 449/3/6 450/3/6 453/3/6
f 452/4/6 449/4/6 453/4/6
f 453/3/6 450/3/6 454/3/6
f 455/4/6 456/4/6 457/4/6
f 457/4/6 456/4/6 458/4/6
f 459/9/6 460/9/6 463/9/6
f 463/9/6 460/9/6 464/9/6
f 461/9/6 462/9/6 465/9/6
f 465/9/6 462/9/6 466/9/6
f 467/5/6 468/5/6 469/5/6
f 469/5/6 468/5/6 470/5/6
