# This file was created with Minddesk Qubicle 3.0
# Get Qubicle at www.getqubicle.com

mtllib RedTruck.mtl

vn 0.0 0.0 1.0
vn 0.0 0.0 -1.0
vn -1.0 0.0 0.0
vn 1.0 0.0 0.0
vn 0.0 1.0 0.0
vn 0.0 -1.0 0.0

v 6.00000 5.50000 -9.00000
v 6.00000 -2.50000 -9.00000
v -13.00000 -2.50000 -9.00000
v -13.00000 5.50000 -9.00000
v 5.00000 4.50000 -1.00000
v 5.00000 -2.50000 -1.00000
v -12.00000 -2.50000 -1.00000
v -12.00000 4.50000 -1.00000
v 13.00000 2.50000 -8.00000
v 13.00000 -4.50000 -8.00000
v 7.00000 -4.50000 -8.00000
v 7.00000 2.50000 -8.00000
v 12.00000 1.50000 -2.00000
v 12.00000 -3.50000 -2.00000
v 8.00000 -3.50000 -2.00000
v 8.00000 1.50000 -2.00000
v 6.00000 -2.50000 -8.00000
v 6.00000 -4.50000 -8.00000
v -11.00000 -4.50000 -8.00000
v -11.00000 -2.50000 -8.00000
v 7.00000 -1.50000 -6.00000
v 7.00000 -3.50000 -6.00000
v 6.00000 -3.50000 -6.00000
v 6.00000 -1.50000 -6.00000
v 5.00000 -2.50000 -2.00000
v 5.00000 -3.50000 -2.00000
v -10.00000 -3.50000 -2.00000
v -10.00000 -2.50000 -2.00000
v -7.00000 -4.50000 -8.00000
v -7.00000 -5.50000 -8.00000
v -10.00000 -5.50000 -8.00000
v -10.00000 -4.50000 -8.00000
v 4.00000 -4.50000 -8.00000
v 4.00000 -5.50000 -8.00000
v 1.00000 -5.50000 -8.00000
v 1.00000 -4.50000 -8.00000
v 11.00000 -4.50000 -8.00000
v 11.00000 -5.50000 -8.00000
v 8.00000 -5.50000 -8.00000
v 8.00000 -4.50000 -8.00000
v 10.00000 3.50000 -7.00000
v 10.00000 2.50000 -7.00000
v 7.00000 2.50000 -7.00000
v 7.00000 3.50000 -7.00000
v -7.00000 -4.50000 -2.00000
v -7.00000 -5.50000 -2.00000
v -10.00000 -5.50000 -2.00000
v -10.00000 -4.50000 -2.00000
v 4.00000 -4.50000 -2.00000
v 4.00000 -5.50000 -2.00000
v 1.00000 -5.50000 -2.00000
v 1.00000 -4.50000 -2.00000
v 11.00000 -4.50000 -2.00000
v 11.00000 -5.50000 -2.00000
v 8.00000 -5.50000 -2.00000
v 8.00000 -4.50000 -2.00000
v 9.00000 4.50000 -7.00000
v 9.00000 3.50000 -7.00000
v 7.00000 4.50000 -7.00000
v 7.00000 -3.50000 -7.00000
v 7.00000 -4.50000 -7.00000
v 6.00000 -4.50000 -7.00000
v 6.00000 -3.50000 -7.00000
v 6.00000 -2.50000 -3.00000
v 6.00000 -3.50000 -3.00000
v 5.00000 -3.50000 -3.00000
v 5.00000 -2.50000 -3.00000
v -12.00000 4.50000 -8.00000
v -12.00000 -2.50000 -8.00000
v 5.00000 -2.50000 -8.00000
v 5.00000 4.50000 -8.00000
v -13.00000 5.50000 0.00000
v -13.00000 -2.50000 0.00000
v 6.00000 -2.50000 0.00000
v 6.00000 5.50000 0.00000
v 7.00000 2.50000 -1.00000
v 7.00000 -4.50000 -1.00000
v 13.00000 -4.50000 -1.00000
v 13.00000 2.50000 -1.00000
v 8.00000 1.50000 -7.00000
v 8.00000 -3.50000 -7.00000
v 12.00000 -3.50000 -7.00000
v 12.00000 1.50000 -7.00000
v -11.00000 -2.50000 -1.00000
v -11.00000 -4.50000 -1.00000
v 6.00000 -4.50000 -1.00000
v 6.00000 -2.50000 -1.00000
v 6.00000 -1.50000 -3.00000
v 7.00000 -3.50000 -3.00000
v 7.00000 -1.50000 -3.00000
v -10.00000 -2.50000 -7.00000
v -10.00000 -3.50000 -7.00000
v 5.00000 -3.50000 -7.00000
v 5.00000 -2.50000 -7.00000
v -10.00000 -4.50000 -7.00000
v -10.00000 -5.50000 -7.00000
v -7.00000 -5.50000 -7.00000
v -7.00000 -4.50000 -7.00000
v 1.00000 -4.50000 -7.00000
v 1.00000 -5.50000 -7.00000
v 4.00000 -5.50000 -7.00000
v 4.00000 -4.50000 -7.00000
v 8.00000 -4.50000 -7.00000
v 8.00000 -5.50000 -7.00000
v 11.00000 -5.50000 -7.00000
v 11.00000 -4.50000 -7.00000
v 7.00000 3.50000 -2.00000
v 7.00000 2.50000 -2.00000
v 10.00000 2.50000 -2.00000
v 10.00000 3.50000 -2.00000
v -10.00000 -4.50000 -1.00000
v -10.00000 -5.50000 -1.00000
v -7.00000 -5.50000 -1.00000
v -7.00000 -4.50000 -1.00000
v 1.00000 -4.50000 -1.00000
v 1.00000 -5.50000 -1.00000
v 4.00000 -5.50000 -1.00000
v 4.00000 -4.50000 -1.00000
v 8.00000 -4.50000 -1.00000
v 8.00000 -5.50000 -1.00000
v 11.00000 -5.50000 -1.00000
v 11.00000 -4.50000 -1.00000
v 7.00000 4.50000 -2.00000
v 9.00000 3.50000 -2.00000
v 9.00000 4.50000 -2.00000
v 5.00000 -2.50000 -6.00000
v 5.00000 -3.50000 -6.00000
v 6.00000 -2.50000 -6.00000
v 6.00000 -3.50000 -2.00000
v 6.00000 -4.50000 -2.00000
v 7.00000 -4.50000 -2.00000
v 7.00000 -3.50000 -2.00000
v 7.00000 -1.50000 -8.00000
v 7.00000 -1.50000 -1.00000
v 7.00000 -3.50000 -8.00000
v 7.00000 -3.50000 -1.00000
v 6.00000 -1.50000 0.00000
v 6.00000 -1.50000 -9.00000
v 6.00000 -3.50000 -8.00000
v 6.00000 -3.50000 -1.00000
v 13.00000 2.50000 -2.00000
v 13.00000 2.50000 -7.00000
v -11.00000 -2.50000 -7.00000
v -11.00000 -2.50000 -2.00000
v -10.00000 -3.50000 -6.00000
v -10.00000 -3.50000 -3.00000
v -11.00000 -4.50000 -2.00000
v -11.00000 -4.50000 -7.00000
v 13.00000 -4.50000 -7.00000
v 13.00000 -4.50000 -2.00000
v -13.00000 -2.50000 -1.00000
v -13.00000 -2.50000 -8.00000

vt 0.00781 0.15625
vt 0.00781 0.01563
vt 0.15625 0.01563
vt 0.15625 0.15625
vt 0.17188 0.14063
vt 0.17188 0.01563
vt 0.32031 0.01563
vt 0.32031 0.14063
vt 0.33594 0.14063
vt 0.33594 0.01563
vt 0.48438 0.01563
vt 0.48438 0.14063
vt 0.50000 0.14063
vt 0.50000 0.01563
vt 0.57031 0.01563
vt 0.57031 0.14063
vt 0.58594 0.12500
vt 0.58594 0.01563
vt 0.71875 0.01563
vt 0.71875 0.12500
vt 0.73438 0.12500
vt 0.73438 0.01563
vt 0.86719 0.01563
vt 0.86719 0.12500
vt 0.00781 0.29688
vt 0.00781 0.18750
vt 0.14063 0.18750
vt 0.14063 0.29688
vt 0.88281 0.12500
vt 0.88281 0.01563
vt 0.95313 0.01563
vt 0.95313 0.12500
vt 0.15625 0.29688
vt 0.15625 0.18750
vt 0.21094 0.18750
vt 0.21094 0.29688
vt 0.22656 0.29688
vt 0.22656 0.18750
vt 0.28125 0.18750
vt 0.28125 0.29688
vt 0.29688 0.29688
vt 0.29688 0.18750
vt 0.35156 0.18750
vt 0.35156 0.29688
vt 0.36719 0.29688
vt 0.36719 0.18750
vt 0.41406 0.18750
vt 0.41406 0.29688
vt 0.42969 0.29688
vt 0.42969 0.18750
vt 0.47656 0.18750
vt 0.47656 0.29688
vt 0.96875 0.12500
vt 0.96875 0.01563
vt 0.97656 0.01563
vt 0.97656 0.12500
vt 0.49219 0.26563
vt 0.49219 0.18750
vt 0.67969 0.18750
vt 0.67969 0.26563
vt 0.69531 0.26563
vt 0.69531 0.18750
vt 0.73438 0.18750
vt 0.73438 0.26563
vt 0.75000 0.26563
vt 0.75000 0.18750
vt 0.78906 0.18750
vt 0.78906 0.26563
vt 0.80469 0.26563
vt 0.80469 0.18750
vt 0.83594 0.18750
vt 0.83594 0.26563
vt 0.85156 0.26563
vt 0.85156 0.18750
vt 0.88281 0.18750
vt 0.88281 0.26563
vt 0.89844 0.26563
vt 0.89844 0.18750
vt 0.92969 0.18750
vt 0.92969 0.26563
vt 0.94531 0.26563
vt 0.94531 0.18750
vt 0.97656 0.18750
vt 0.97656 0.26563
vt 0.00781 0.40625
vt 0.00781 0.32813
vt 0.03125 0.32813
vt 0.03125 0.40625
vt 0.04688 0.40625
vt 0.04688 0.32813
vt 0.06250 0.32813
vt 0.06250 0.40625
vt 0.07813 0.40625
vt 0.07813 0.32813
vt 0.08594 0.32813
vt 0.08594 0.40625
vt 0.10156 0.40625
vt 0.10156 0.32813
vt 0.10938 0.32813
vt 0.10938 0.40625
vt 0.12500 0.39063
vt 0.12500 0.32813
vt 0.17969 0.32813
vt 0.17969 0.39063
vt 0.19531 0.37500
vt 0.19531 0.32813
vt 0.32031 0.32813
vt 0.32031 0.37500
vt 0.33594 0.37500
vt 0.33594 0.32813
vt 0.34375 0.32813
vt 0.34375 0.37500
vt 0.35938 0.37500
vt 0.35938 0.32813
vt 0.36719 0.32813
vt 0.36719 0.37500
vt 0.38281 0.35938
vt 0.38281 0.32813
vt 0.51563 0.32813
vt 0.51563 0.35938
vt 0.53125 0.35938
vt 0.53125 0.32813
vt 0.66406 0.32813
vt 0.66406 0.35938
vt 0.67969 0.35938
vt 0.67969 0.32813
vt 0.73438 0.32813
vt 0.73438 0.35938
vt 0.75000 0.35938
vt 0.75000 0.32813
vt 0.78906 0.32813
vt 0.78906 0.35938
vt 0.80469 0.35938
vt 0.80469 0.32813
vt 0.82031 0.32813
vt 0.82031 0.35938
vt 0.83594 0.35938
vt 0.83594 0.32813
vt 0.85156 0.32813
vt 0.85156 0.35938
vt 0.86719 0.35938
vt 0.86719 0.32813
vt 0.87500 0.32813
vt 0.87500 0.35938
vt 0.89063 0.35938
vt 0.89063 0.32813
vt 0.89844 0.32813
vt 0.89844 0.35938
vt 0.00781 0.45313
vt 0.00781 0.43750
vt 0.15625 0.43750
vt 0.15625 0.45313
vt 0.17188 0.45313
vt 0.17188 0.43750
vt 0.32031 0.43750
vt 0.32031 0.45313
vt 0.33594 0.45313
vt 0.33594 0.43750
vt 0.46094 0.43750
vt 0.46094 0.45313
vt 0.47656 0.45313
vt 0.47656 0.43750
vt 0.60156 0.43750
vt 0.60156 0.45313
vt 0.61719 0.45313
vt 0.61719 0.43750
vt 0.73438 0.43750
vt 0.73438 0.45313
vt 0.75000 0.45313
vt 0.75000 0.43750
vt 0.86719 0.43750
vt 0.86719 0.45313
vt 0.00781 0.50000
vt 0.00781 0.48438
vt 0.12500 0.48438
vt 0.12500 0.50000
vt 0.14063 0.50000
vt 0.14063 0.48438
vt 0.25781 0.48438
vt 0.25781 0.50000
vt 0.91406 0.34375
vt 0.91406 0.32813
vt 0.97656 0.32813
vt 0.97656 0.34375
vt 0.88281 0.45313
vt 0.88281 0.43750
vt 0.94531 0.43750
vt 0.94531 0.45313
vt 0.27344 0.50000
vt 0.27344 0.48438
vt 0.32031 0.48438
vt 0.32031 0.50000
vt 0.33594 0.50000
vt 0.33594 0.48438
vt 0.38281 0.48438
vt 0.38281 0.50000
vt 0.39844 0.50000
vt 0.39844 0.48438
vt 0.43750 0.48438
vt 0.43750 0.50000
vt 0.45313 0.50000
vt 0.45313 0.48438
vt 0.49219 0.48438
vt 0.49219 0.50000
vt 0.50781 0.50000
vt 0.50781 0.48438
vt 0.54688 0.48438
vt 0.54688 0.50000
vt 0.96094 0.45313
vt 0.96094 0.43750
vt 0.98438 0.43750
vt 0.98438 0.45313
vt 0.56250 0.50000
vt 0.56250 0.48438
vt 0.58594 0.48438
vt 0.58594 0.50000
vt 0.60156 0.50000
vt 0.60156 0.48438
vt 0.62500 0.48438
vt 0.62500 0.50000
vt 0.64063 0.50000
vt 0.64063 0.48438
vt 0.66406 0.48438
vt 0.66406 0.50000
vt 0.67969 0.50000
vt 0.67969 0.48438
vt 0.70313 0.48438
vt 0.70313 0.50000
vt 0.71875 0.50000
vt 0.71875 0.48438
vt 0.74219 0.48438
vt 0.74219 0.50000
vt 0.75781 0.50000
vt 0.75781 0.48438
vt 0.78125 0.48438
vt 0.78125 0.50000
vt 0.79688 0.50000
vt 0.79688 0.48438
vt 0.82031 0.48438
vt 0.82031 0.50000
vt 0.83594 0.50000
vt 0.83594 0.48438
vt 0.85938 0.48438
vt 0.85938 0.50000
vt 0.87500 0.50000
vt 0.87500 0.48438
vt 0.89844 0.48438
vt 0.89844 0.50000
vt 0.91406 0.50000
vt 0.91406 0.48438
vt 0.93750 0.48438
vt 0.93750 0.50000
vt 0.95313 0.50000
vt 0.95313 0.48438
vt 0.97656 0.48438
vt 0.97656 0.50000
vt 0.00781 0.54688
vt 0.00781 0.53125
vt 0.03125 0.53125
vt 0.03125 0.54688
vt 0.04688 0.54688
vt 0.04688 0.53125
vt 0.07031 0.53125
vt 0.07031 0.54688
vt 0.08594 0.54688
vt 0.08594 0.53125
vt 0.10938 0.53125
vt 0.10938 0.54688
vt 0.12500 0.54688
vt 0.12500 0.53125
vt 0.14844 0.53125
vt 0.14844 0.54688
vt 0.16406 0.54688
vt 0.16406 0.53125
vt 0.18750 0.53125
vt 0.18750 0.54688
vt 0.20313 0.54688
vt 0.20313 0.53125
vt 0.22656 0.53125
vt 0.22656 0.54688
vt 0.24219 0.54688
vt 0.24219 0.53125
vt 0.26563 0.53125
vt 0.26563 0.54688
vt 0.28125 0.54688
vt 0.28125 0.53125
vt 0.30469 0.53125
vt 0.30469 0.54688
vt 0.32031 0.54688
vt 0.32031 0.53125
vt 0.34375 0.53125
vt 0.34375 0.54688
vt 0.35938 0.54688
vt 0.35938 0.53125
vt 0.38281 0.53125
vt 0.38281 0.54688
vt 0.39844 0.54688
vt 0.39844 0.53125
vt 0.42188 0.53125
vt 0.42188 0.54688
vt 0.43750 0.54688
vt 0.43750 0.53125
vt 0.45313 0.53125
vt 0.45313 0.54688
vt 0.46875 0.54688
vt 0.46875 0.53125
vt 0.48438 0.53125
vt 0.48438 0.54688
vt 0.50000 0.54688
vt 0.50000 0.53125
vt 0.51563 0.53125
vt 0.51563 0.54688
vt 0.53125 0.54688
vt 0.53125 0.53125
vt 0.54688 0.53125
vt 0.54688 0.54688
vt 0.56250 0.54688
vt 0.56250 0.53125
vt 0.57813 0.53125
vt 0.57813 0.54688
vt 0.59375 0.54688
vt 0.59375 0.53125
vt 0.60938 0.53125
vt 0.60938 0.54688
vt 0.62500 0.54688
vt 0.62500 0.53125
vt 0.64063 0.53125
vt 0.64063 0.54688
vt 0.65625 0.54688
vt 0.65625 0.53125
vt 0.67188 0.53125
vt 0.67188 0.54688
vt 0.68750 0.54688
vt 0.68750 0.53125
vt 0.69531 0.53125
vt 0.69531 0.54688
vt 0.71094 0.54688
vt 0.71094 0.53125
vt 0.71875 0.53125
vt 0.71875 0.54688
vt 0.73438 0.54688
vt 0.73438 0.53125
vt 0.74219 0.53125
vt 0.74219 0.54688
vt 0.75781 0.54688
vt 0.75781 0.53125
vt 0.76563 0.53125
vt 0.76563 0.54688
vt 0.78125 0.54688
vt 0.78125 0.53125
vt 0.78906 0.53125
vt 0.78906 0.54688
vt 0.80469 0.54688
vt 0.80469 0.53125
vt 0.81250 0.53125
vt 0.81250 0.54688
vt 0.82813 0.54688
vt 0.82813 0.53125
vt 0.83594 0.53125
vt 0.83594 0.54688
vt 0.85156 0.54688
vt 0.85156 0.53125
vt 0.85938 0.53125
vt 0.85938 0.54688
vt 0.87500 0.54688
vt 0.87500 0.53125
vt 0.88281 0.53125
vt 0.88281 0.54688
vt 0.89844 0.54688
vt 0.89844 0.53125
vt 0.90625 0.53125
vt 0.90625 0.54688
vt 0.92188 0.54688
vt 0.92188 0.53125
vt 0.92969 0.53125
vt 0.92969 0.54688
vt 0.94531 0.54688
vt 0.94531 0.53125
vt 0.95313 0.53125
vt 0.95313 0.54688
vt 0.96875 0.54688
vt 0.96875 0.53125
vt 0.97656 0.53125
vt 0.97656 0.54688
vt 0.00781 0.59375
vt 0.00781 0.57813
vt 0.01563 0.57813
vt 0.01563 0.59375
vt 0.03125 0.59375
vt 0.03125 0.57813
vt 0.03906 0.57813
vt 0.03906 0.59375
vt 0.05469 0.59375
vt 0.05469 0.57813
vt 0.06250 0.57813
vt 0.06250 0.59375
vt 0.07813 0.59375
vt 0.07813 0.57813
vt 0.08594 0.57813
vt 0.08594 0.59375
vt 0.10156 0.59375
vt 0.10156 0.57813
vt 0.10938 0.57813
vt 0.10938 0.59375
vt 0.12500 0.59375
vt 0.12500 0.57813
vt 0.13281 0.57813
vt 0.13281 0.59375
vt 0.14844 0.59375
vt 0.14844 0.57813
vt 0.15625 0.57813
vt 0.15625 0.59375
vt 0.17188 0.59375
vt 0.17188 0.57813
vt 0.17969 0.57813
vt 0.17969 0.59375
vt 0.19531 0.59375
vt 0.19531 0.57813
vt 0.20313 0.57813
vt 0.20313 0.59375
vt 0.21875 0.59375
vt 0.21875 0.57813
vt 0.22656 0.57813
vt 0.22656 0.59375
vt 0.24219 0.59375
vt 0.24219 0.57813
vt 0.25000 0.57813
vt 0.25000 0.59375
vt 0.26563 0.59375
vt 0.26563 0.57813
vt 0.27344 0.57813
vt 0.27344 0.59375
vt 0.28906 0.59375
vt 0.28906 0.57813
vt 0.29688 0.57813
vt 0.29688 0.59375
vt 0.31250 0.59375
vt 0.31250 0.57813
vt 0.32031 0.57813
vt 0.32031 0.59375
vt 0.33594 0.59375
vt 0.33594 0.57813
vt 0.34375 0.57813
vt 0.34375 0.59375

g Matrix_3
usemtl RedTruck_Material
f 1/9/2 2/10/2 3/11/2 4/12/2
f 5/17/2 6/18/2 7/19/2 8/20/2
f 9/45/2 10/46/2 11/47/2 12/48/2
f 13/73/2 14/74/2 15/75/2 16/76/2
f 17/117/2 18/118/2 19/119/2 20/120/2
f 21/145/2 22/146/2 23/147/2 24/148/2
f 25/165/2 26/166/2 27/167/2 28/168/2
f 29/249/2 30/250/2 31/251/2 32/252/2
f 33/245/2 34/246/2 35/247/2 36/248/2
f 37/261/2 38/262/2 39/263/2 40/264/2
f 41/253/2 42/254/2 43/255/2 44/256/2
f 45/289/2 46/290/2 47/291/2 48/292/2
f 49/281/2 50/282/2 51/283/2 52/284/2
f 53/213/2 54/214/2 55/215/2 56/216/2
f 57/317/2 58/318/2 44/319/2 59/320/2
f 60/337/2 61/338/2 62/339/2 63/340/2
f 64/333/2 65/334/2 66/335/2 67/336/2
f 68/25/1 69/26/1 70/27/1 71/28/1
f 72/5/1 73/6/1 74/7/1 75/8/1
f 76/49/1 77/50/1 78/51/1 79/52/1
f 80/77/1 81/78/1 82/79/1 83/80/1
f 84/121/1 85/122/1 86/123/1 87/124/1
f 88/141/1 65/142/1 89/143/1 90/144/1
f 91/173/1 92/174/1 93/175/1 94/176/1
f 95/237/1 96/238/1 97/239/1 98/240/1
f 99/233/1 100/234/1 101/235/1 102/236/1
f 103/241/1 104/242/1 105/243/1 106/244/1
f 107/221/1 108/222/1 109/223/1 110/224/1
f 111/225/1 112/226/1 113/227/1 114/228/1
f 115/217/1 116/218/1 117/219/1 118/220/1
f 119/229/1 120/230/1 121/231/1 122/232/1
f 123/305/1 107/306/1 124/307/1 125/308/1
f 126/413/1 127/414/1 23/415/1 128/416/1
f 129/417/1 130/418/1 131/419/1 132/420/1
f 4/13/3 3/14/3 73/15/3 72/16/3
f 71/37/3 70/38/3 6/39/3 5/40/3
f 83/65/3 82/66/3 14/67/3 13/68/3
f 12/101/3 133/102/3 134/103/3 76/104/3
f 20/125/3 19/126/3 85/127/3 84/128/3
f 59/129/3 43/130/3 108/131/3 123/132/3
f 133/137/3 135/138/3 22/139/3 21/140/3
f 90/133/3 89/134/3 136/135/3 134/136/3
f 128/209/3 23/210/3 65/211/3 64/212/3
f 32/409/3 31/410/3 96/411/3 95/412/3
f 36/401/3 35/402/3 100/403/3 99/404/3
f 135/405/3 11/406/3 61/407/3 60/408/3
f 40/421/3 39/422/3 104/423/3 103/424/3
f 94/437/3 93/438/3 127/439/3 126/440/3
f 67/441/3 66/442/3 26/443/3 25/444/3
f 48/433/3 47/434/3 112/435/3 111/436/3
f 52/425/3 51/426/3 116/427/3 115/428/3
f 132/429/3 131/430/3 77/431/3 136/432/3
f 56/369/3 55/370/3 120/371/3 119/372/3
f 75/29/4 137/30/4 138/31/4 1/32/4
f 8/41/4 7/42/4 69/43/4 68/44/4
f 79/33/4 78/34/4 10/35/4 9/36/4
f 16/61/4 15/62/4 81/63/4 80/64/4
f 28/205/4 27/206/4 92/207/4 91/208/4
f 125/201/4 124/202/4 58/203/4 57/204/4
f 110/197/4 109/198/4 42/199/4 41/200/4
f 24/269/4 128/270/4 2/271/4 138/272/4
f 137/265/4 74/266/4 64/267/4 88/268/4
f 128/329/4 23/330/4 139/331/4 17/332/4
f 87/301/4 140/302/4 65/303/4 64/304/4
f 98/373/4 97/374/4 30/375/4 29/376/4
f 102/365/4 101/366/4 34/367/4 33/368/4
f 63/357/4 62/358/4 18/359/4 139/360/4
f 106/361/4 105/362/4 38/363/4 37/364/4
f 114/377/4 113/378/4 46/379/4 45/380/4
f 118/393/4 117/394/4 50/395/4 49/396/4
f 140/397/4 86/398/4 130/399/4 129/400/4
f 122/389/4 121/390/4 54/391/4 53/392/4
f 4/1/5 72/2/5 75/3/5 1/4/5
f 81/81/5 15/82/5 14/83/5 82/84/5
f 42/85/5 109/86/5 141/87/5 142/88/5
f 59/89/5 123/90/5 125/91/5 57/92/5
f 143/93/5 144/94/5 28/95/5 91/96/5
f 58/97/5 124/98/5 110/99/5 41/100/5
f 145/105/5 146/106/5 65/107/5 23/108/5
f 24/109/5 88/110/5 90/111/5 21/112/5
f 20/161/5 143/162/5 94/163/5 70/164/5
f 92/177/5 145/178/5 127/179/5 93/180/5
f 146/169/5 27/170/5 26/171/5 66/172/5
f 144/157/5 84/158/5 6/159/5 25/160/5
f 12/193/5 43/194/5 142/195/5 9/196/5
f 108/189/5 76/190/5 79/191/5 141/192/5
f 63/381/5 23/382/5 22/383/5 60/384/5
f 65/385/5 129/386/5 132/387/5 89/388/5
f 8/21/6 68/22/6 71/23/6 5/24/6
f 147/57/6 148/58/6 149/59/6 150/60/6
f 16/69/6 80/70/6 83/71/6 13/72/6
f 151/53/6 152/54/6 69/55/6 7/56/6
f 67/113/6 126/114/6 128/115/6 64/116/6
f 152/153/6 3/154/6 2/155/6 17/156/6
f 73/149/6 151/150/6 87/151/6 74/152/6
f 98/185/6 29/186/6 36/187/6 99/188/6
f 114/181/6 45/182/6 52/183/6 115/184/6
f 96/285/6 31/286/6 30/287/6 97/288/6
f 100/273/6 35/274/6 34/275/6 101/276/6
f 104/277/6 39/278/6 38/279/6 105/280/6
f 112/297/6 47/298/6 46/299/6 113/300/6
f 116/293/6 51/294/6 50/295/6 117/296/6
f 120/257/6 55/258/6 54/259/6 121/260/6
f 102/309/6 33/310/6 18/311/6 62/312/6
f 106/313/6 37/314/6 10/315/6 149/316/6
f 118/325/6 49/326/6 130/327/6 86/328/6
f 122/321/6 53/322/6 150/323/6 78/324/6
f 148/345/6 19/346/6 32/347/6 95/348/6
f 61/341/6 11/342/6 40/343/6 103/344/6
f 85/349/6 147/350/6 48/351/6 111/352/6
f 77/353/6 131/354/6 56/355/6 119/356/6
