# This file was created with Minddesk Qubicle 3.0
# Get Qubicle at www.getqubicle.com

mtllib SportsOrangeCar.mtl

vn 0.0 0.0 1.0
vn 0.0 0.0 -1.0
vn -1.0 0.0 0.0
vn 1.0 0.0 0.0
vn 0.0 1.0 0.0
vn 0.0 -1.0 0.0

v 3.00000 3.00000 -7.00000
v 3.00000 1.00000 -7.00000
v -5.00000 1.00000 -7.00000
v -5.00000 3.00000 -7.00000
v 9.00000 -2.00000 -8.00000
v 9.00000 -3.00000 -8.00000
v -8.00000 -3.00000 -8.00000
v -8.00000 -2.00000 -8.00000
v 9.00000 0.00000 -8.00000
v 9.00000 -1.00000 -8.00000
v -8.00000 -1.00000 -8.00000
v -8.00000 0.00000 -8.00000
v 1.00000 -1.00000 -8.00000
v 1.00000 -2.00000 -8.00000
v 1.00000 1.00000 -8.00000
v 1.00000 0.00000 -8.00000
v -8.00000 1.00000 -8.00000
v 8.00000 0.00000 -2.00000
v 8.00000 -1.00000 -2.00000
v -7.00000 -1.00000 -2.00000
v -7.00000 0.00000 -2.00000
v 9.00000 1.00000 -8.00000
v 3.00000 0.00000 -8.00000
v 3.00000 1.00000 -8.00000
v 4.00000 -2.00000 -8.00000
v 4.00000 -1.00000 -8.00000
v 3.00000 1.00000 -3.00000
v 3.00000 0.00000 -3.00000
v -5.00000 0.00000 -3.00000
v -5.00000 1.00000 -3.00000
v 2.00000 2.00000 -3.00000
v 2.00000 1.00000 -3.00000
v -4.00000 1.00000 -3.00000
v -4.00000 2.00000 -3.00000
v 1.00000 -1.00000 -2.00000
v 1.00000 -2.00000 -2.00000
v -7.00000 -2.00000 -2.00000
v 4.00000 -1.00000 -7.00000
v 4.00000 -2.00000 -7.00000
v 1.00000 -2.00000 -7.00000
v 1.00000 -1.00000 -7.00000
v 8.00000 2.00000 -6.00000
v 8.00000 1.00000 -6.00000
v 4.00000 1.00000 -6.00000
v 4.00000 2.00000 -6.00000
v 4.00000 -1.00000 -3.00000
v 4.00000 -2.00000 -3.00000
v 1.00000 -2.00000 -3.00000
v 1.00000 -1.00000 -3.00000
v 7.00000 1.00000 -3.00000
v 7.00000 0.00000 -3.00000
v 4.00000 0.00000 -3.00000
v 4.00000 1.00000 -3.00000
v 8.00000 -2.00000 -2.00000
v 4.00000 -2.00000 -2.00000
v 4.00000 -1.00000 -2.00000
v 3.00000 1.00000 -9.00000
v 3.00000 0.00000 -9.00000
v 1.00000 0.00000 -9.00000
v 1.00000 1.00000 -9.00000
v -7.00000 2.00000 -9.00000
v -7.00000 1.00000 -9.00000
v -8.00000 1.00000 -9.00000
v -8.00000 2.00000 -9.00000
v -8.00000 -2.00000 -6.00000
v -8.00000 -3.00000 -6.00000
v -9.00000 -3.00000 -6.00000
v -9.00000 -2.00000 -6.00000
v -8.00000 -2.00000 -4.00000
v -8.00000 -3.00000 -4.00000
v -9.00000 -3.00000 -4.00000
v -9.00000 -2.00000 -4.00000
v -5.00000 3.00000 -2.00000
v -5.00000 1.00000 -2.00000
v 3.00000 1.00000 -2.00000
v 3.00000 3.00000 -2.00000
v -8.00000 -2.00000 -1.00000
v -8.00000 -3.00000 -1.00000
v 9.00000 -3.00000 -1.00000
v 9.00000 -2.00000 -1.00000
v -8.00000 0.00000 -1.00000
v -8.00000 -1.00000 -1.00000
v 9.00000 -1.00000 -1.00000
v 9.00000 0.00000 -1.00000
v -7.00000 0.00000 -7.00000
v -7.00000 -1.00000 -7.00000
v 8.00000 -1.00000 -7.00000
v 8.00000 0.00000 -7.00000
v 1.00000 -2.00000 -1.00000
v 1.00000 -1.00000 -1.00000
v -8.00000 1.00000 -1.00000
v 1.00000 0.00000 -1.00000
v 1.00000 1.00000 -1.00000
v -7.00000 -2.00000 -7.00000
v -5.00000 1.00000 -6.00000
v -5.00000 0.00000 -6.00000
v 3.00000 0.00000 -6.00000
v 3.00000 1.00000 -6.00000
v -4.00000 2.00000 -6.00000
v -4.00000 1.00000 -6.00000
v 2.00000 1.00000 -6.00000
v 2.00000 2.00000 -6.00000
v 3.00000 1.00000 -1.00000
v 3.00000 0.00000 -1.00000
v 9.00000 1.00000 -1.00000
v 4.00000 -1.00000 -1.00000
v 4.00000 -2.00000 -1.00000
v 8.00000 -2.00000 -7.00000
v 1.00000 -1.00000 -6.00000
v 1.00000 -2.00000 -6.00000
v 4.00000 -2.00000 -6.00000
v 4.00000 -1.00000 -6.00000
v 4.00000 0.00000 -6.00000
v 7.00000 0.00000 -6.00000
v 7.00000 1.00000 -6.00000
v 4.00000 2.00000 -3.00000
v 8.00000 1.00000 -3.00000
v 8.00000 2.00000 -3.00000
v 1.00000 1.00000 0.00000
v 1.00000 0.00000 0.00000
v 3.00000 0.00000 0.00000
v 3.00000 1.00000 0.00000
v -9.00000 -2.00000 -5.00000
v -9.00000 -3.00000 -5.00000
v -8.00000 -3.00000 -5.00000
v -8.00000 -2.00000 -5.00000
v -9.00000 -2.00000 -3.00000
v -9.00000 -3.00000 -3.00000
v -8.00000 -3.00000 -3.00000
v -8.00000 -2.00000 -3.00000
v -8.00000 2.00000 0.00000
v -8.00000 1.00000 0.00000
v -7.00000 1.00000 0.00000
v -7.00000 2.00000 0.00000
v -7.00000 1.00000 -7.00000
v -7.00000 1.00000 -2.00000
v -7.00000 -2.00000 -6.00000
v -7.00000 -2.00000 -3.00000
v 8.00000 -2.00000 -3.00000
v 8.00000 -2.00000 -6.00000
v 9.00000 1.00000 -3.00000
v 9.00000 1.00000 -6.00000
v -7.00000 1.00000 -8.00000
v 9.00000 1.00000 -7.00000
v -7.00000 1.00000 -1.00000
v 9.00000 1.00000 -2.00000
v -7.00000 0.00000 -3.00000
v -7.00000 0.00000 -6.00000
v 8.00000 0.00000 -6.00000
v 8.00000 0.00000 -3.00000
v 9.00000 -3.00000 -6.00000
v 9.00000 -3.00000 -3.00000
v 9.00000 -3.00000 -5.00000
v 9.00000 -3.00000 -4.00000

vt 0.01563 0.15625
vt 0.01563 0.01563
vt 0.03125 0.01563
vt 0.03125 0.15625
vt 0.06250 0.09375
vt 0.06250 0.01563
vt 0.18750 0.01563
vt 0.18750 0.09375
vt 0.21875 0.09375
vt 0.21875 0.01563
vt 0.25000 0.01563
vt 0.25000 0.09375
vt 0.28125 0.07813
vt 0.28125 0.01563
vt 0.39063 0.01563
vt 0.39063 0.07813
vt 0.42188 0.06250
vt 0.42188 0.01563
vt 0.65625 0.01563
vt 0.65625 0.06250
vt 0.68750 0.06250
vt 0.68750 0.01563
vt 0.79688 0.01563
vt 0.79688 0.06250
vt 0.82813 0.06250
vt 0.82813 0.01563
vt 0.92188 0.01563
vt 0.92188 0.06250
vt 0.01563 0.23438
vt 0.01563 0.18750
vt 0.07813 0.18750
vt 0.07813 0.23438
vt 0.10938 0.23438
vt 0.10938 0.18750
vt 0.15625 0.18750
vt 0.15625 0.23438
vt 0.95313 0.06250
vt 0.95313 0.01563
vt 0.98438 0.01563
vt 0.98438 0.06250
vt 0.18750 0.23438
vt 0.18750 0.18750
vt 0.20313 0.18750
vt 0.20313 0.23438
vt 0.23438 0.23438
vt 0.23438 0.18750
vt 0.25000 0.18750
vt 0.25000 0.23438
vt 0.28125 0.23438
vt 0.28125 0.18750
vt 0.29688 0.18750
vt 0.29688 0.23438
vt 0.32813 0.23438
vt 0.32813 0.18750
vt 0.34375 0.18750
vt 0.34375 0.23438
vt 0.37500 0.23438
vt 0.37500 0.18750
vt 0.39063 0.18750
vt 0.39063 0.23438
vt 0.42188 0.23438
vt 0.42188 0.18750
vt 0.43750 0.18750
vt 0.43750 0.23438
vt 0.06250 0.15625
vt 0.06250 0.12500
vt 0.32813 0.12500
vt 0.32813 0.15625
vt 0.35938 0.15625
vt 0.35938 0.12500
vt 0.62500 0.12500
vt 0.62500 0.15625
vt 0.65625 0.15625
vt 0.65625 0.12500
vt 0.78125 0.12500
vt 0.78125 0.15625
vt 0.81250 0.15625
vt 0.81250 0.12500
vt 0.93750 0.12500
vt 0.93750 0.15625
vt 0.46875 0.21875
vt 0.46875 0.18750
vt 0.54688 0.18750
vt 0.54688 0.21875
vt 0.57813 0.21875
vt 0.57813 0.18750
vt 0.65625 0.18750
vt 0.65625 0.21875
vt 0.68750 0.21875
vt 0.68750 0.18750
vt 0.76563 0.18750
vt 0.76563 0.21875
vt 0.79688 0.21875
vt 0.79688 0.18750
vt 0.87500 0.18750
vt 0.87500 0.21875
vt 0.01563 0.28125
vt 0.01563 0.26563
vt 0.29688 0.26563
vt 0.29688 0.28125
vt 0.32813 0.28125
vt 0.32813 0.26563
vt 0.60938 0.26563
vt 0.60938 0.28125
vt 0.64063 0.28125
vt 0.64063 0.26563
vt 0.90625 0.26563
vt 0.90625 0.28125
vt 0.01563 0.32813
vt 0.01563 0.31250
vt 0.28125 0.31250
vt 0.28125 0.32813
vt 0.31250 0.32813
vt 0.31250 0.31250
vt 0.57813 0.31250
vt 0.57813 0.32813
vt 0.60938 0.32813
vt 0.60938 0.31250
vt 0.87500 0.31250
vt 0.87500 0.32813
vt 0.01563 0.37500
vt 0.01563 0.35938
vt 0.28125 0.35938
vt 0.28125 0.37500
vt 0.31250 0.37500
vt 0.31250 0.35938
vt 0.56250 0.35938
vt 0.56250 0.37500
vt 0.59375 0.37500
vt 0.59375 0.35938
vt 0.84375 0.35938
vt 0.84375 0.37500
vt 0.01563 0.42188
vt 0.01563 0.40625
vt 0.25000 0.40625
vt 0.25000 0.42188
vt 0.28125 0.42188
vt 0.28125 0.40625
vt 0.51563 0.40625
vt 0.51563 0.42188
vt 0.54688 0.42188
vt 0.54688 0.40625
vt 0.78125 0.40625
vt 0.78125 0.42188
vt 0.01563 0.46875
vt 0.01563 0.45313
vt 0.25000 0.45313
vt 0.25000 0.46875
vt 0.81250 0.42188
vt 0.81250 0.40625
vt 0.95313 0.40625
vt 0.95313 0.42188
vt 0.28125 0.46875
vt 0.28125 0.45313
vt 0.42188 0.45313
vt 0.42188 0.46875
vt 0.45313 0.46875
vt 0.45313 0.45313
vt 0.59375 0.45313
vt 0.59375 0.46875
vt 0.62500 0.46875
vt 0.62500 0.45313
vt 0.76563 0.45313
vt 0.76563 0.46875
vt 0.79688 0.46875
vt 0.79688 0.45313
vt 0.93750 0.45313
vt 0.93750 0.46875
vt 0.01563 0.51563
vt 0.01563 0.50000
vt 0.15625 0.50000
vt 0.15625 0.51563
vt 0.18750 0.51563
vt 0.18750 0.50000
vt 0.31250 0.50000
vt 0.31250 0.51563
vt 0.34375 0.51563
vt 0.34375 0.50000
vt 0.46875 0.50000
vt 0.46875 0.51563
vt 0.50000 0.51563
vt 0.50000 0.50000
vt 0.62500 0.50000
vt 0.62500 0.51563
vt 0.65625 0.51563
vt 0.65625 0.50000
vt 0.78125 0.50000
vt 0.78125 0.51563
vt 0.81250 0.51563
vt 0.81250 0.50000
vt 0.93750 0.50000
vt 0.93750 0.51563
vt 0.01563 0.56250
vt 0.01563 0.54688
vt 0.14063 0.54688
vt 0.14063 0.56250
vt 0.87500 0.37500
vt 0.87500 0.35938
vt 0.96875 0.35938
vt 0.96875 0.37500
vt 0.17188 0.56250
vt 0.17188 0.54688
vt 0.26563 0.54688
vt 0.26563 0.56250
vt 0.29688 0.56250
vt 0.29688 0.54688
vt 0.39063 0.54688
vt 0.39063 0.56250
vt 0.42188 0.56250
vt 0.42188 0.54688
vt 0.51563 0.54688
vt 0.51563 0.56250
vt 0.54688 0.56250
vt 0.54688 0.54688
vt 0.64063 0.54688
vt 0.64063 0.56250
vt 0.67188 0.56250
vt 0.67188 0.54688
vt 0.76563 0.54688
vt 0.76563 0.56250
vt 0.90625 0.20313
vt 0.90625 0.18750
vt 0.98438 0.18750
vt 0.98438 0.20313
vt 0.90625 0.32813
vt 0.90625 0.31250
vt 0.98438 0.31250
vt 0.98438 0.32813
vt 0.79688 0.56250
vt 0.79688 0.54688
vt 0.85938 0.54688
vt 0.85938 0.56250
vt 0.89063 0.56250
vt 0.89063 0.54688
vt 0.95313 0.54688
vt 0.95313 0.56250
vt 0.01563 0.60938
vt 0.01563 0.59375
vt 0.07813 0.59375
vt 0.07813 0.60938
vt 0.10938 0.60938
vt 0.10938 0.59375
vt 0.17188 0.59375
vt 0.17188 0.60938
vt 0.20313 0.60938
vt 0.20313 0.59375
vt 0.26563 0.59375
vt 0.26563 0.60938
vt 0.29688 0.60938
vt 0.29688 0.59375
vt 0.35938 0.59375
vt 0.35938 0.60938
vt 0.93750 0.28125
vt 0.93750 0.26563
vt 0.98438 0.26563
vt 0.98438 0.28125
vt 0.39063 0.60938
vt 0.39063 0.59375
vt 0.43750 0.59375
vt 0.43750 0.60938
vt 0.46875 0.60938
vt 0.46875 0.59375
vt 0.51563 0.59375
vt 0.51563 0.60938
vt 0.54688 0.60938
vt 0.54688 0.59375
vt 0.59375 0.59375
vt 0.59375 0.60938
vt 0.62500 0.60938
vt 0.62500 0.59375
vt 0.67188 0.59375
vt 0.67188 0.60938
vt 0.70313 0.60938
vt 0.70313 0.59375
vt 0.75000 0.59375
vt 0.75000 0.60938
vt 0.78125 0.60938
vt 0.78125 0.59375
vt 0.82813 0.59375
vt 0.82813 0.60938
vt 0.85938 0.60938
vt 0.85938 0.59375
vt 0.90625 0.59375
vt 0.90625 0.60938
vt 0.93750 0.60938
vt 0.93750 0.59375
vt 0.98438 0.59375
vt 0.98438 0.60938
vt 0.01563 0.65625
vt 0.01563 0.64063
vt 0.06250 0.64063
vt 0.06250 0.65625
vt 0.09375 0.65625
vt 0.09375 0.64063
vt 0.14063 0.64063
vt 0.14063 0.65625
vt 0.17188 0.65625
vt 0.17188 0.64063
vt 0.21875 0.64063
vt 0.21875 0.65625
vt 0.25000 0.65625
vt 0.25000 0.64063
vt 0.29688 0.64063
vt 0.29688 0.65625
vt 0.32813 0.65625
vt 0.32813 0.64063
vt 0.37500 0.64063
vt 0.37500 0.65625
vt 0.40625 0.65625
vt 0.40625 0.64063
vt 0.45313 0.64063
vt 0.45313 0.65625
vt 0.48438 0.65625
vt 0.48438 0.64063
vt 0.53125 0.64063
vt 0.53125 0.65625
vt 0.56250 0.65625
vt 0.56250 0.64063
vt 0.60938 0.64063
vt 0.60938 0.65625
vt 0.64063 0.65625
vt 0.64063 0.64063
vt 0.68750 0.64063
vt 0.68750 0.65625
vt 0.71875 0.65625
vt 0.71875 0.64063
vt 0.76563 0.64063
vt 0.76563 0.65625
vt 0.79688 0.65625
vt 0.79688 0.64063
vt 0.84375 0.64063
vt 0.84375 0.65625
vt 0.87500 0.65625
vt 0.87500 0.64063
vt 0.90625 0.64063
vt 0.90625 0.65625
vt 0.93750 0.65625
vt 0.93750 0.64063
vt 0.96875 0.64063
vt 0.96875 0.65625
vt 0.01563 0.70313
vt 0.01563 0.68750
vt 0.04688 0.68750
vt 0.04688 0.70313
vt 0.07813 0.70313
vt 0.07813 0.68750
vt 0.10938 0.68750
vt 0.10938 0.70313
vt 0.14063 0.70313
vt 0.14063 0.68750
vt 0.17188 0.68750
vt 0.17188 0.70313
vt 0.20313 0.70313
vt 0.20313 0.68750
vt 0.23438 0.68750
vt 0.23438 0.70313
vt 0.26563 0.70313
vt 0.26563 0.68750
vt 0.29688 0.68750
vt 0.29688 0.70313
vt 0.32813 0.70313
vt 0.32813 0.68750
vt 0.35938 0.68750
vt 0.35938 0.70313
vt 0.96875 0.14063
vt 0.96875 0.12500
vt 0.98438 0.12500
vt 0.98438 0.14063
vt 0.96875 0.46875
vt 0.96875 0.45313
vt 0.98438 0.45313
vt 0.98438 0.46875
vt 0.96875 0.51563
vt 0.96875 0.50000
vt 0.98438 0.50000
vt 0.98438 0.51563
vt 0.39063 0.70313
vt 0.39063 0.68750
vt 0.40625 0.68750
vt 0.40625 0.70313
vt 0.43750 0.70313
vt 0.43750 0.68750
vt 0.45313 0.68750
vt 0.45313 0.70313
vt 0.48438 0.70313
vt 0.48438 0.68750
vt 0.50000 0.68750
vt 0.50000 0.70313
vt 0.53125 0.70313
vt 0.53125 0.68750
vt 0.54688 0.68750
vt 0.54688 0.70313
vt 0.57813 0.70313
vt 0.57813 0.68750
vt 0.59375 0.68750
vt 0.59375 0.70313
vt 0.62500 0.70313
vt 0.62500 0.68750
vt 0.64063 0.68750
vt 0.64063 0.70313
vt 0.67188 0.70313
vt 0.67188 0.68750
vt 0.68750 0.68750
vt 0.68750 0.70313
vt 0.71875 0.70313
vt 0.71875 0.68750
vt 0.73438 0.68750
vt 0.73438 0.70313
vt 0.76563 0.70313
vt 0.76563 0.68750
vt 0.78125 0.68750
vt 0.78125 0.70313
vt 0.81250 0.70313
vt 0.81250 0.68750
vt 0.82813 0.68750
vt 0.82813 0.70313
vt 0.85938 0.70313
vt 0.85938 0.68750
vt 0.87500 0.68750
vt 0.87500 0.70313
vt 0.90625 0.70313
vt 0.90625 0.68750
vt 0.92188 0.68750
vt 0.92188 0.70313
vt 0.95313 0.70313
vt 0.95313 0.68750
vt 0.96875 0.68750
vt 0.96875 0.70313
vt 0.01563 0.75000
vt 0.01563 0.73438
vt 0.03125 0.73438
vt 0.03125 0.75000
vt 0.06250 0.75000
vt 0.06250 0.73438
vt 0.07813 0.73438
vt 0.07813 0.75000
vt 0.10938 0.75000
vt 0.10938 0.73438
vt 0.12500 0.73438
vt 0.12500 0.75000
vt 0.15625 0.75000
vt 0.15625 0.73438
vt 0.17188 0.73438
vt 0.17188 0.75000
vt 0.20313 0.75000
vt 0.20313 0.73438
vt 0.21875 0.73438
vt 0.21875 0.75000
vt 0.25000 0.75000
vt 0.25000 0.73438
vt 0.26563 0.73438
vt 0.26563 0.75000
vt 0.29688 0.75000
vt 0.29688 0.73438
vt 0.31250 0.73438
vt 0.31250 0.75000
vt 0.34375 0.75000
vt 0.34375 0.73438
vt 0.35938 0.73438
vt 0.35938 0.75000
vt 0.39063 0.75000
vt 0.39063 0.73438
vt 0.40625 0.73438
vt 0.40625 0.75000

g RedSportCar
usemtl SportsOrangeCar_Material
f 1/77/2 2/78/2 3/79/2 4/80/2
f 5/105/2 6/106/2 7/107/2 8/108/2
f 9/109/2 10/110/2 11/111/2 12/112/2
f 13/149/2 14/150/2 8/151/2 11/152/2
f 15/169/2 16/170/2 12/171/2 17/172/2
f 18/141/2 19/142/2 20/143/2 21/144/2
f 22/201/2 9/202/2 23/203/2 24/204/2
f 10/225/2 5/226/2 25/227/2 26/228/2
f 27/173/2 28/174/2 29/175/2 30/176/2
f 31/197/2 32/198/2 33/199/2 34/200/2
f 35/185/2 36/186/2 37/187/2 20/188/2
f 38/289/2 39/290/2 40/291/2 41/292/2
f 42/245/2 43/246/2 44/247/2 45/248/2
f 46/293/2 47/294/2 48/295/2 49/296/2
f 50/297/2 51/298/2 52/299/2 53/300/2
f 19/229/2 54/230/2 55/231/2 56/232/2
f 57/357/2 58/358/2 59/359/2 60/360/2
f 61/369/2 62/370/2 63/371/2 64/372/2
f 65/373/2 66/374/2 67/375/2 68/376/2
f 69/365/2 70/366/2 71/367/2 72/368/2
f 73/73/1 74/74/1 75/75/1 76/76/1
f 77/121/1 78/122/1 79/123/1 80/124/1
f 81/117/1 82/118/1 83/119/1 84/120/1
f 85/137/1 86/138/1 87/139/1 88/140/1
f 82/157/1 77/158/1 89/159/1 90/160/1
f 91/153/1 81/154/1 92/155/1 93/156/1
f 86/177/1 94/178/1 40/179/1 41/180/1
f 95/181/1 96/182/1 97/183/1 98/184/1
f 99/213/1 100/214/1 101/215/1 102/216/1
f 103/217/1 104/218/1 84/219/1 105/220/1
f 106/221/1 107/222/1 80/223/1 83/224/1
f 38/249/1 39/250/1 108/251/1 87/252/1
f 109/277/1 110/278/1 111/279/1 112/280/1
f 44/273/1 113/274/1 114/275/1 115/276/1
f 116/233/1 53/234/1 117/235/1 118/236/1
f 35/285/1 36/286/1 55/287/1 56/288/1
f 119/341/1 120/342/1 121/343/1 122/344/1
f 123/433/1 124/434/1 125/435/1 126/436/1
f 127/437/1 128/438/1 129/439/1 130/440/1
f 131/429/1 132/430/1 133/431/1 134/432/1
f 17/21/3 8/22/3 77/23/3 91/24/3
f 4/85/3 3/86/3 74/87/3 73/88/3
f 88/81/3 108/82/3 54/83/3 18/84/3
f 64/161/3 63/162/3 132/163/3 131/164/3
f 102/325/3 101/326/3 32/327/3 31/328/3
f 98/329/3 97/330/3 28/331/3 27/332/3
f 45/317/3 44/318/3 53/319/3 116/320/3
f 115/321/3 114/322/3 51/323/3 50/324/3
f 8/353/3 7/354/3 66/355/3 65/356/3
f 130/361/3 129/362/3 78/363/3 77/364/3
f 60/421/3 59/422/3 16/423/3 15/424/3
f 26/425/3 25/426/3 39/427/3 38/428/3
f 41/441/3 40/442/3 110/443/3 109/444/3
f 68/457/3 67/458/3 124/459/3 123/460/3
f 126/461/3 125/462/3 70/463/3 69/464/3
f 72/453/3 71/454/3 128/455/3 127/456/3
f 49/445/3 48/446/3 36/447/3 35/448/3
f 56/449/3 55/450/3 107/451/3 106/452/3
f 93/389/3 92/390/3 120/391/3 119/392/3
f 105/13/4 79/14/4 6/15/4 22/16/4
f 21/93/4 37/94/4 94/95/4 85/96/4
f 76/89/4 75/90/4 2/91/4 1/92/4
f 134/165/4 133/166/4 62/167/4 61/168/4
f 30/301/4 29/302/4 96/303/4 95/304/4
f 34/313/4 33/314/4 100/315/4 99/316/4
f 53/309/4 52/310/4 113/311/4 44/312/4
f 118/305/4 117/306/4 43/307/4 42/308/4
f 24/393/4 23/394/4 58/395/4 57/396/4
f 41/385/4 40/386/4 14/387/4 13/388/4
f 112/377/4 111/378/4 39/379/4 38/380/4
f 56/381/4 55/382/4 47/383/4 46/384/4
f 90/397/4 89/398/4 36/399/4 35/400/4
f 122/413/4 121/414/4 104/415/4 103/416/4
f 64/1/5 131/2/5 134/3/5 61/4/5
f 4/5/5 73/6/5 76/7/5 1/8/5
f 135/9/5 136/10/5 74/11/5 3/12/5
f 137/17/5 138/18/5 139/19/5 140/20/5
f 45/29/5 116/30/5 118/31/5 42/32/5
f 98/49/5 27/50/5 53/51/5 44/52/5
f 43/53/5 117/54/5 141/55/5 142/56/5
f 143/129/5 135/130/5 144/131/5 22/132/5
f 136/125/5 145/126/5 105/127/5 146/128/5
f 94/189/5 137/190/5 110/191/5 40/192/5
f 2/209/5 98/210/5 142/211/5 144/212/5
f 138/193/5 37/194/5 36/195/5 48/196/5
f 27/205/5 75/206/5 146/207/5 141/208/5
f 14/265/5 40/266/5 39/267/5 25/268/5
f 41/261/5 109/262/5 112/263/5 38/264/5
f 39/241/5 111/242/5 140/243/5 108/244/5
f 49/257/5 35/258/5 56/259/5 46/260/5
f 47/237/5 55/238/5 54/239/5 139/240/5
f 36/281/5 89/282/5 107/283/5 55/284/5
f 60/337/5 15/338/5 24/339/5 57/340/5
f 93/333/5 119/334/5 122/335/5 103/336/5
f 68/417/5 123/418/5 126/419/5 65/420/5
f 72/409/5 127/410/5 130/411/5 69/412/5
f 34/25/6 99/26/6 102/27/6 31/28/6
f 53/33/6 44/34/6 115/35/6 50/36/6
f 147/37/6 148/38/6 96/39/6 29/40/6
f 30/41/6 95/42/6 100/43/6 33/44/6
f 32/45/6 101/46/6 98/47/6 27/48/6
f 28/57/6 97/58/6 113/59/6 52/60/6
f 51/61/6 114/62/6 149/63/6 150/64/6
f 66/69/6 7/70/6 6/71/6 151/72/6
f 78/65/6 129/66/6 152/67/6 79/68/6
f 124/97/6 67/98/6 151/99/6 153/100/6
f 70/113/6 125/114/6 153/115/6 154/116/6
f 128/101/6 71/102/6 154/103/6 152/104/6
f 148/133/6 85/134/6 88/135/6 149/136/6
f 21/145/6 147/146/6 150/147/6 18/148/6
f 41/269/6 13/270/6 26/271/6 38/272/6
f 90/253/6 35/254/6 56/255/6 106/256/6
f 16/349/6 59/350/6 58/351/6 23/352/6
f 120/345/6 92/346/6 104/347/6 121/348/6
f 17/401/6 63/402/6 62/403/6 143/404/6
f 132/405/6 91/406/6 145/407/6 133/408/6
