# This file was created with Minddesk Qubicle 3.0
# Get Qubicle at www.getqubicle.com

mtllib Taxi.mtl

vn 0.0 0.0 1.0
vn 0.0 0.0 -1.0
vn -1.0 0.0 0.0
vn 1.0 0.0 0.0
vn 0.0 1.0 0.0
vn 0.0 -1.0 0.0

v 7.50000 -0.50000 -8.00000
v 7.50000 -3.50000 -8.00000
v -7.50000 -3.50000 -8.00000
v -7.50000 -0.50000 -8.00000
v 2.50000 3.50000 -7.00000
v 2.50000 0.50000 -7.00000
v -5.50000 0.50000 -7.00000
v -5.50000 3.50000 -7.00000
v 1.50000 2.50000 -3.00000
v 1.50000 0.50000 -3.00000
v -4.50000 0.50000 -3.00000
v -4.50000 2.50000 -3.00000
v 6.50000 -2.50000 -2.00000
v 6.50000 -3.50000 -2.00000
v -6.50000 -3.50000 -2.00000
v -6.50000 -2.50000 -2.00000
v 6.50000 -0.50000 -2.00000
v 6.50000 -1.50000 -2.00000
v -6.50000 -1.50000 -2.00000
v -6.50000 -0.50000 -2.00000
v -0.50000 0.50000 -8.00000
v -0.50000 -0.50000 -8.00000
v -7.50000 0.50000 -8.00000
v 7.50000 0.50000 -8.00000
v 1.50000 -0.50000 -8.00000
v 1.50000 0.50000 -8.00000
v 1.50000 -0.50000 -3.00000
v -5.50000 -0.50000 -3.00000
v -5.50000 0.50000 -3.00000
v -3.50000 -3.50000 -8.00000
v -3.50000 -4.50000 -8.00000
v -6.50000 -4.50000 -8.00000
v -6.50000 -3.50000 -8.00000
v 5.50000 -3.50000 -8.00000
v 5.50000 -4.50000 -8.00000
v 2.50000 -4.50000 -8.00000
v 2.50000 -3.50000 -8.00000
v -3.50000 -3.50000 -2.00000
v -3.50000 -4.50000 -2.00000
v -6.50000 -4.50000 -2.00000
v 5.50000 -3.50000 -2.00000
v 5.50000 -4.50000 -2.00000
v 2.50000 -4.50000 -2.00000
v 2.50000 -3.50000 -2.00000
v 1.50000 0.50000 -9.00000
v 1.50000 -0.50000 -9.00000
v -0.50000 -0.50000 -9.00000
v -0.50000 0.50000 -9.00000
v -0.50000 4.50000 -6.00000
v -0.50000 3.50000 -6.00000
v -2.50000 3.50000 -6.00000
v -2.50000 4.50000 -6.00000
v -6.50000 -2.50000 -3.00000
v -6.50000 -3.50000 -3.00000
v -7.50000 -3.50000 -3.00000
v -7.50000 -2.50000 -3.00000
v 7.50000 -2.50000 -3.00000
v 7.50000 -3.50000 -3.00000
v 6.50000 -3.50000 -3.00000
v 6.50000 -2.50000 -3.00000
v -7.50000 -0.50000 -1.00000
v -7.50000 -3.50000 -1.00000
v 7.50000 -3.50000 -1.00000
v 7.50000 -0.50000 -1.00000
v -5.50000 3.50000 -2.00000
v -5.50000 0.50000 -2.00000
v 2.50000 0.50000 -2.00000
v 2.50000 3.50000 -2.00000
v -4.50000 2.50000 -6.00000
v -4.50000 0.50000 -6.00000
v 1.50000 0.50000 -6.00000
v 1.50000 2.50000 -6.00000
v -6.50000 -2.50000 -7.00000
v -6.50000 -3.50000 -7.00000
v 6.50000 -3.50000 -7.00000
v 6.50000 -2.50000 -7.00000
v -6.50000 -0.50000 -7.00000
v -6.50000 -1.50000 -7.00000
v 6.50000 -1.50000 -7.00000
v 6.50000 -0.50000 -7.00000
v -5.50000 0.50000 -6.00000
v -5.50000 -0.50000 -6.00000
v 1.50000 -0.50000 -6.00000
v -7.50000 0.50000 -1.00000
v -0.50000 -0.50000 -1.00000
v -0.50000 0.50000 -1.00000
v 1.50000 0.50000 -1.00000
v 1.50000 -0.50000 -1.00000
v 7.50000 0.50000 -1.00000
v -6.50000 -4.50000 -7.00000
v -3.50000 -4.50000 -7.00000
v -3.50000 -3.50000 -7.00000
v 2.50000 -3.50000 -7.00000
v 2.50000 -4.50000 -7.00000
v 5.50000 -4.50000 -7.00000
v 5.50000 -3.50000 -7.00000
v -6.50000 -3.50000 -1.00000
v -6.50000 -4.50000 -1.00000
v -3.50000 -4.50000 -1.00000
v -3.50000 -3.50000 -1.00000
v 2.50000 -3.50000 -1.00000
v 2.50000 -4.50000 -1.00000
v 5.50000 -4.50000 -1.00000
v 5.50000 -3.50000 -1.00000
v -2.50000 4.50000 -3.00000
v -2.50000 3.50000 -3.00000
v -0.50000 3.50000 -3.00000
v -0.50000 4.50000 -3.00000
v -0.50000 0.50000 0.00000
v -0.50000 -0.50000 0.00000
v 1.50000 -0.50000 0.00000
v 1.50000 0.50000 0.00000
v -7.50000 -2.50000 -6.00000
v -7.50000 -3.50000 -6.00000
v -6.50000 -3.50000 -6.00000
v -6.50000 -2.50000 -6.00000
v 6.50000 -2.50000 -6.00000
v 6.50000 -3.50000 -6.00000
v 7.50000 -3.50000 -6.00000
v 7.50000 -2.50000 -6.00000
v -7.50000 -2.50000 -8.00000
v -7.50000 -2.50000 -1.00000
v 7.50000 -2.50000 -1.00000
v 7.50000 -2.50000 -8.00000
v 7.50000 0.50000 -2.00000
v 7.50000 0.50000 -7.00000
v -7.50000 0.50000 -7.00000
v -7.50000 0.50000 -2.00000
v -5.50000 3.50000 -6.00000
v -5.50000 3.50000 -3.00000
v 2.50000 3.50000 -3.00000
v 2.50000 3.50000 -6.00000
v 6.50000 -0.50000 -6.00000
v 6.50000 -0.50000 -3.00000
v -6.50000 -0.50000 -3.00000
v -6.50000 -0.50000 -6.00000
v 7.50000 -3.50000 -7.00000
v 7.50000 -3.50000 -2.00000

vt 0.01563 0.09375
vt 0.01563 0.01563
vt 0.21875 0.01563
vt 0.21875 0.09375
vt 0.25000 0.09375
vt 0.25000 0.01563
vt 0.32813 0.01563
vt 0.32813 0.09375
vt 0.35938 0.09375
vt 0.35938 0.01563
vt 0.39063 0.01563
vt 0.39063 0.09375
vt 0.42188 0.06250
vt 0.42188 0.01563
vt 0.65625 0.01563
vt 0.65625 0.06250
vt 0.68750 0.06250
vt 0.68750 0.01563
vt 0.92188 0.01563
vt 0.92188 0.06250
vt 0.01563 0.17188
vt 0.01563 0.12500
vt 0.25000 0.12500
vt 0.25000 0.17188
vt 0.28125 0.17188
vt 0.28125 0.12500
vt 0.40625 0.12500
vt 0.40625 0.17188
vt 0.43750 0.17188
vt 0.43750 0.12500
vt 0.56250 0.12500
vt 0.56250 0.17188
vt 0.59375 0.17188
vt 0.59375 0.12500
vt 0.70313 0.12500
vt 0.70313 0.17188
vt 0.73438 0.17188
vt 0.73438 0.12500
vt 0.84375 0.12500
vt 0.84375 0.17188
vt 0.87500 0.17188
vt 0.87500 0.12500
vt 0.96875 0.12500
vt 0.96875 0.17188
vt 0.01563 0.25000
vt 0.01563 0.20313
vt 0.09375 0.20313
vt 0.09375 0.25000
vt 0.12500 0.25000
vt 0.12500 0.20313
vt 0.20313 0.20313
vt 0.20313 0.25000
vt 0.23438 0.25000
vt 0.23438 0.20313
vt 0.31250 0.20313
vt 0.31250 0.25000
vt 0.34375 0.25000
vt 0.34375 0.20313
vt 0.39063 0.20313
vt 0.39063 0.25000
vt 0.42188 0.25000
vt 0.42188 0.20313
vt 0.46875 0.20313
vt 0.46875 0.25000
vt 0.50000 0.25000
vt 0.50000 0.20313
vt 0.54688 0.20313
vt 0.54688 0.25000
vt 0.95313 0.06250
vt 0.95313 0.01563
vt 0.98438 0.01563
vt 0.98438 0.06250
vt 0.57813 0.25000
vt 0.57813 0.20313
vt 0.59375 0.20313
vt 0.59375 0.25000
vt 0.62500 0.25000
vt 0.62500 0.20313
vt 0.64063 0.20313
vt 0.64063 0.25000
vt 0.67188 0.23438
vt 0.67188 0.20313
vt 0.76563 0.20313
vt 0.76563 0.23438
vt 0.79688 0.23438
vt 0.79688 0.20313
vt 0.89063 0.20313
vt 0.89063 0.23438
vt 0.92188 0.23438
vt 0.92188 0.20313
vt 0.96875 0.20313
vt 0.96875 0.23438
vt 0.01563 0.31250
vt 0.01563 0.28125
vt 0.03125 0.28125
vt 0.03125 0.31250
vt 0.06250 0.31250
vt 0.06250 0.28125
vt 0.07813 0.28125
vt 0.07813 0.31250
vt 0.10938 0.29688
vt 0.10938 0.28125
vt 0.34375 0.28125
vt 0.34375 0.29688
vt 0.37500 0.29688
vt 0.37500 0.28125
vt 0.60938 0.28125
vt 0.60938 0.29688
vt 0.64063 0.29688
vt 0.64063 0.28125
vt 0.84375 0.28125
vt 0.84375 0.29688
vt 0.01563 0.35938
vt 0.01563 0.34375
vt 0.21875 0.34375
vt 0.21875 0.35938
vt 0.25000 0.35938
vt 0.25000 0.34375
vt 0.45313 0.34375
vt 0.45313 0.35938
vt 0.48438 0.35938
vt 0.48438 0.34375
vt 0.68750 0.34375
vt 0.68750 0.35938
vt 0.71875 0.35938
vt 0.71875 0.34375
vt 0.92188 0.34375
vt 0.92188 0.35938
vt 0.01563 0.40625
vt 0.01563 0.39063
vt 0.21875 0.39063
vt 0.21875 0.40625
vt 0.25000 0.40625
vt 0.25000 0.39063
vt 0.45313 0.39063
vt 0.45313 0.40625
vt 0.48438 0.40625
vt 0.48438 0.39063
vt 0.68750 0.39063
vt 0.68750 0.40625
vt 0.71875 0.40625
vt 0.71875 0.39063
vt 0.84375 0.39063
vt 0.84375 0.40625
vt 0.01563 0.45313
vt 0.01563 0.43750
vt 0.14063 0.43750
vt 0.14063 0.45313
vt 0.87500 0.29688
vt 0.87500 0.28125
vt 0.98438 0.28125
vt 0.98438 0.29688
vt 0.87500 0.40625
vt 0.87500 0.39063
vt 0.98438 0.39063
vt 0.98438 0.40625
vt 0.17188 0.45313
vt 0.17188 0.43750
vt 0.28125 0.43750
vt 0.28125 0.45313
vt 0.31250 0.45313
vt 0.31250 0.43750
vt 0.42188 0.43750
vt 0.42188 0.45313
vt 0.45313 0.45313
vt 0.45313 0.43750
vt 0.54688 0.43750
vt 0.54688 0.45313
vt 0.57813 0.45313
vt 0.57813 0.43750
vt 0.67188 0.43750
vt 0.67188 0.45313
vt 0.70313 0.45313
vt 0.70313 0.43750
vt 0.79688 0.43750
vt 0.79688 0.45313
vt 0.82813 0.45313
vt 0.82813 0.43750
vt 0.92188 0.43750
vt 0.92188 0.45313
vt 0.01563 0.50000
vt 0.01563 0.48438
vt 0.09375 0.48438
vt 0.09375 0.50000
vt 0.12500 0.50000
vt 0.12500 0.48438
vt 0.20313 0.48438
vt 0.20313 0.50000
vt 0.23438 0.50000
vt 0.23438 0.48438
vt 0.28125 0.48438
vt 0.28125 0.50000
vt 0.31250 0.50000
vt 0.31250 0.48438
vt 0.35938 0.48438
vt 0.35938 0.50000
vt 0.39063 0.50000
vt 0.39063 0.48438
vt 0.43750 0.48438
vt 0.43750 0.50000
vt 0.46875 0.50000
vt 0.46875 0.48438
vt 0.51563 0.48438
vt 0.51563 0.50000
vt 0.54688 0.50000
vt 0.54688 0.48438
vt 0.59375 0.48438
vt 0.59375 0.50000
vt 0.62500 0.50000
vt 0.62500 0.48438
vt 0.67188 0.48438
vt 0.67188 0.50000
vt 0.70313 0.50000
vt 0.70313 0.48438
vt 0.75000 0.48438
vt 0.75000 0.50000
vt 0.78125 0.50000
vt 0.78125 0.48438
vt 0.82813 0.48438
vt 0.82813 0.50000
vt 0.85938 0.50000
vt 0.85938 0.48438
vt 0.90625 0.48438
vt 0.90625 0.50000
vt 0.93750 0.50000
vt 0.93750 0.48438
vt 0.98438 0.48438
vt 0.98438 0.50000
vt 0.01563 0.54688
vt 0.01563 0.53125
vt 0.06250 0.53125
vt 0.06250 0.54688
vt 0.09375 0.54688
vt 0.09375 0.53125
vt 0.14063 0.53125
vt 0.14063 0.54688
vt 0.17188 0.54688
vt 0.17188 0.53125
vt 0.21875 0.53125
vt 0.21875 0.54688
vt 0.25000 0.54688
vt 0.25000 0.53125
vt 0.29688 0.53125
vt 0.29688 0.54688
vt 0.32813 0.54688
vt 0.32813 0.53125
vt 0.37500 0.53125
vt 0.37500 0.54688
vt 0.95313 0.35938
vt 0.95313 0.34375
vt 0.98438 0.34375
vt 0.98438 0.35938
vt 0.95313 0.45313
vt 0.95313 0.43750
vt 0.98438 0.43750
vt 0.98438 0.45313
vt 0.40625 0.54688
vt 0.40625 0.53125
vt 0.43750 0.53125
vt 0.43750 0.54688
vt 0.46875 0.54688
vt 0.46875 0.53125
vt 0.50000 0.53125
vt 0.50000 0.54688
vt 0.53125 0.54688
vt 0.53125 0.53125
vt 0.56250 0.53125
vt 0.56250 0.54688
vt 0.59375 0.54688
vt 0.59375 0.53125
vt 0.62500 0.53125
vt 0.62500 0.54688
vt 0.65625 0.54688
vt 0.65625 0.53125
vt 0.68750 0.53125
vt 0.68750 0.54688
vt 0.71875 0.54688
vt 0.71875 0.53125
vt 0.75000 0.53125
vt 0.75000 0.54688
vt 0.78125 0.54688
vt 0.78125 0.53125
vt 0.81250 0.53125
vt 0.81250 0.54688
vt 0.84375 0.54688
vt 0.84375 0.53125
vt 0.87500 0.53125
vt 0.87500 0.54688
vt 0.90625 0.54688
vt 0.90625 0.53125
vt 0.93750 0.53125
vt 0.93750 0.54688
vt 0.01563 0.59375
vt 0.01563 0.57813
vt 0.04688 0.57813
vt 0.04688 0.59375
vt 0.07813 0.59375
vt 0.07813 0.57813
vt 0.10938 0.57813
vt 0.10938 0.59375
vt 0.14063 0.59375
vt 0.14063 0.57813
vt 0.17188 0.57813
vt 0.17188 0.59375
vt 0.96875 0.54688
vt 0.96875 0.53125
vt 0.98438 0.53125
vt 0.98438 0.54688
vt 0.20313 0.59375
vt 0.20313 0.57813
vt 0.21875 0.57813
vt 0.21875 0.59375
vt 0.25000 0.59375
vt 0.25000 0.57813
vt 0.26563 0.57813
vt 0.26563 0.59375
vt 0.29688 0.59375
vt 0.29688 0.57813
vt 0.31250 0.57813
vt 0.31250 0.59375
vt 0.34375 0.59375
vt 0.34375 0.57813
vt 0.35938 0.57813
vt 0.35938 0.59375
vt 0.39063 0.59375
vt 0.39063 0.57813
vt 0.40625 0.57813
vt 0.40625 0.59375
vt 0.43750 0.59375
vt 0.43750 0.57813
vt 0.45313 0.57813
vt 0.45313 0.59375
vt 0.48438 0.59375
vt 0.48438 0.57813
vt 0.50000 0.57813
vt 0.50000 0.59375
vt 0.53125 0.59375
vt 0.53125 0.57813
vt 0.54688 0.57813
vt 0.54688 0.59375
vt 0.57813 0.59375
vt 0.57813 0.57813
vt 0.59375 0.57813
vt 0.59375 0.59375
vt 0.62500 0.59375
vt 0.62500 0.57813
vt 0.64063 0.57813
vt 0.64063 0.59375
vt 0.67188 0.59375
vt 0.67188 0.57813
vt 0.68750 0.57813
vt 0.68750 0.59375
vt 0.71875 0.59375
vt 0.71875 0.57813
vt 0.73438 0.57813
vt 0.73438 0.59375
vt 0.76563 0.59375
vt 0.76563 0.57813
vt 0.78125 0.57813
vt 0.78125 0.59375
vt 0.81250 0.59375
vt 0.81250 0.57813
vt 0.82813 0.57813
vt 0.82813 0.59375
vt 0.85938 0.59375
vt 0.85938 0.57813
vt 0.87500 0.57813
vt 0.87500 0.59375
vt 0.90625 0.59375
vt 0.90625 0.57813
vt 0.92188 0.57813
vt 0.92188 0.59375
vt 0.95313 0.59375
vt 0.95313 0.57813
vt 0.96875 0.57813
vt 0.96875 0.59375
vt 0.01563 0.64063
vt 0.01563 0.62500
vt 0.03125 0.62500
vt 0.03125 0.64063
vt 0.06250 0.64063
vt 0.06250 0.62500
vt 0.07813 0.62500
vt 0.07813 0.64063
vt 0.10938 0.64063
vt 0.10938 0.62500
vt 0.12500 0.62500
vt 0.12500 0.64063
vt 0.15625 0.64063
vt 0.15625 0.62500
vt 0.17188 0.62500
vt 0.17188 0.64063

g Taxi
usemtl Taxi_Material
f 1/21/2 2/22/2 3/23/2 4/24/2
f 5/25/2 6/26/2 7/27/2 8/28/2
f 9/85/2 10/86/2 11/87/2 12/88/2
f 13/121/2 14/122/2 15/123/2 16/124/2
f 17/125/2 18/126/2 19/127/2 20/128/2
f 21/149/2 22/150/2 4/151/2 23/152/2
f 24/165/2 1/166/2 25/167/2 26/168/2
f 10/161/2 27/162/2 28/163/2 29/164/2
f 30/237/2 31/238/2 32/239/2 33/240/2
f 34/245/2 35/246/2 36/247/2 37/248/2
f 38/241/2 39/242/2 40/243/2 15/244/2
f 41/217/2 42/218/2 43/219/2 44/220/2
f 45/277/2 46/278/2 47/279/2 48/280/2
f 49/281/2 50/282/2 51/283/2 52/284/2
f 53/305/2 54/306/2 55/307/2 56/308/2
f 57/317/2 58/318/2 59/319/2 60/320/2
f 61/17/1 62/18/1 63/19/1 64/20/1
f 65/29/1 66/30/1 67/31/1 68/32/1
f 69/81/1 70/82/1 71/83/1 72/84/1
f 73/129/1 74/130/1 75/131/1 76/132/1
f 77/109/1 78/110/1 79/111/1 80/112/1
f 81/153/1 82/154/1 83/155/1 71/156/1
f 84/157/1 61/158/1 85/159/1 86/160/1
f 87/177/1 88/178/1 64/179/1 89/180/1
f 74/189/1 90/190/1 91/191/1 92/192/1
f 93/201/1 94/202/1 95/203/1 96/204/1
f 97/209/1 98/210/1 99/211/1 100/212/1
f 101/205/1 102/206/1 103/207/1 104/208/1
f 105/257/1 106/258/1 107/259/1 108/260/1
f 109/249/1 110/250/1 111/251/1 112/252/1
f 113/365/1 114/366/1 115/367/1 116/368/1
f 117/369/1 118/370/1 119/371/1 120/372/1
f 23/33/3 121/34/3 122/35/3 84/36/3
f 8/49/3 7/50/3 66/51/3 65/52/3
f 72/65/3 83/66/3 27/67/3 9/68/3
f 80/185/3 79/186/3 18/187/3 17/188/3
f 52/213/3 51/214/3 106/215/3 105/216/3
f 121/273/3 3/274/3 114/275/3 113/276/3
f 56/269/3 55/270/3 62/271/3 122/272/3
f 48/357/3 47/358/3 22/359/3 21/360/3
f 33/361/3 32/362/3 90/363/3 74/364/3
f 37/373/3 36/374/3 94/375/3 93/376/3
f 76/385/3 75/386/3 118/387/3 117/388/3
f 60/389/3 59/390/3 14/391/3 13/392/3
f 15/377/3 40/378/3 98/379/3 97/380/3
f 44/381/3 43/382/3 102/383/3 101/384/3
f 86/329/3 85/330/3 110/331/3 109/332/3
f 89/37/4 123/38/4 124/39/4 24/40/4
f 68/53/4 67/54/4 6/55/4 5/56/4
f 12/89/4 11/90/4 70/91/4 69/92/4
f 20/181/4 19/182/4 78/183/4 77/184/4
f 29/229/4 28/230/4 82/231/4 81/232/4
f 108/233/4 107/234/4 50/235/4 49/236/4
f 120/285/4 119/286/4 2/287/4 124/288/4
f 123/297/4 63/298/4 58/299/4 57/300/4
f 26/333/4 25/334/4 46/335/4 45/336/4
f 92/321/4 91/322/4 31/323/4 30/324/4
f 96/325/4 95/326/4 35/327/4 34/328/4
f 116/337/4 115/338/4 74/339/4 73/340/4
f 16/349/4 15/350/4 54/351/4 53/352/4
f 100/353/4 99/354/4 39/355/4 38/356/4
f 104/341/4 103/342/4 42/343/4 41/344/4
f 112/345/4 111/346/4 88/347/4 87/348/4
f 78/1/5 19/2/5 18/3/5 79/4/5
f 6/5/5 67/6/5 125/7/5 126/8/5
f 127/9/5 128/10/5 66/11/5 7/12/5
f 129/61/5 130/62/5 106/63/5 51/64/5
f 50/57/5 107/58/5 131/59/5 132/60/5
f 52/69/5 105/70/5 108/71/5 49/72/5
f 23/105/5 127/106/5 126/107/5 24/108/5
f 128/101/5 84/102/5 89/103/5 125/104/5
f 8/141/5 129/142/5 132/143/5 5/144/5
f 130/145/5 65/146/5 68/147/5 131/148/5
f 48/261/5 21/262/5 26/263/5 45/264/5
f 86/265/5 109/266/5 112/267/5 87/268/5
f 56/13/6 113/14/6 120/15/6 57/16/6
f 12/41/6 69/42/6 72/43/6 9/44/6
f 27/45/6 83/46/6 133/47/6 134/48/6
f 135/73/6 136/74/6 82/75/6 28/76/6
f 29/77/6 81/78/6 70/79/6 11/80/6
f 114/93/6 3/94/6 33/95/6 115/96/6
f 62/97/6 55/98/6 54/99/6 97/100/6
f 116/137/6 73/138/6 76/139/6 117/140/6
f 136/113/6 77/114/6 80/115/6 133/116/6
f 16/117/6 53/118/6 60/119/6 13/120/6
f 20/133/6 135/134/6 134/135/6 17/136/6
f 92/169/6 30/170/6 37/171/6 93/172/6
f 100/173/6 38/174/6 44/175/6 101/176/6
f 90/197/6 32/198/6 31/199/6 91/200/6
f 94/193/6 36/194/6 35/195/6 95/196/6
f 98/221/6 40/222/6 39/223/6 99/224/6
f 102/225/6 43/226/6 42/227/6 103/228/6
f 22/301/6 47/302/6 46/303/6 25/304/6
f 96/293/6 34/294/6 2/295/6 137/296/6
f 104/253/6 41/254/6 138/255/6 63/256/6
f 110/289/6 85/290/6 88/291/6 111/292/6
f 118/309/6 75/310/6 137/311/6 119/312/6
f 14/313/6 59/314/6 58/315/6 138/316/6
