# This file was created with Minddesk Qubicle 3.0
# Get Qubicle at www.getqubicle.com

mtllib 1BlockTree.mtl

vn 0.0 0.0 1.0
vn 0.0 0.0 -1.0
vn -1.0 0.0 0.0
vn 1.0 0.0 0.0
vn 0.0 1.0 0.0
vn 0.0 -1.0 0.0

v 2.50000 3.50000 -5.00000
v 2.50000 -0.50000 -5.00000
v -2.50000 -0.50000 -5.00000
v -2.50000 3.50000 -5.00000
v 1.50000 -0.50000 -4.00000
v 1.50000 -3.50000 -4.00000
v -1.50000 -3.50000 -4.00000
v -1.50000 -0.50000 -4.00000
v 1.50000 2.50000 -1.00000
v 1.50000 0.50000 -1.00000
v -1.50000 0.50000 -1.00000
v -1.50000 2.50000 -1.00000
v -2.50000 3.50000 0.00000
v -2.50000 -0.50000 0.00000
v 2.50000 -0.50000 0.00000
v 2.50000 3.50000 0.00000
v -1.50000 -0.50000 -1.00000
v -1.50000 -3.50000 -1.00000
v 1.50000 -3.50000 -1.00000
v 1.50000 -0.50000 -1.00000
v -1.50000 2.50000 -4.00000
v -1.50000 0.50000 -4.00000
v 1.50000 0.50000 -4.00000
v 1.50000 2.50000 -4.00000
v -2.50000 -0.50000 -1.00000
v -2.50000 -0.50000 -4.00000
v 2.50000 -0.50000 -4.00000
v 2.50000 -0.50000 -1.00000

vt 0.03125 0.18750
vt 0.03125 0.03125
vt 0.18750 0.03125
vt 0.18750 0.18750
vt 0.25000 0.15625
vt 0.25000 0.03125
vt 0.40625 0.03125
vt 0.40625 0.15625
vt 0.46875 0.15625
vt 0.46875 0.03125
vt 0.62500 0.03125
vt 0.62500 0.15625
vt 0.68750 0.15625
vt 0.68750 0.03125
vt 0.84375 0.03125
vt 0.84375 0.15625
vt 0.03125 0.37500
vt 0.03125 0.25000
vt 0.18750 0.25000
vt 0.18750 0.37500
vt 0.25000 0.34375
vt 0.25000 0.25000
vt 0.34375 0.25000
vt 0.34375 0.34375
vt 0.40625 0.34375
vt 0.40625 0.25000
vt 0.50000 0.25000
vt 0.50000 0.34375
vt 0.56250 0.34375
vt 0.56250 0.25000
vt 0.65625 0.25000
vt 0.65625 0.34375
vt 0.71875 0.34375
vt 0.71875 0.25000
vt 0.81250 0.25000
vt 0.81250 0.34375
vt 0.87500 0.34375
vt 0.87500 0.25000
vt 0.96875 0.25000
vt 0.96875 0.34375
vt 0.03125 0.53125
vt 0.03125 0.43750
vt 0.12500 0.43750
vt 0.12500 0.53125
vt 0.18750 0.53125
vt 0.18750 0.43750
vt 0.28125 0.43750
vt 0.28125 0.53125
vt 0.90625 0.12500
vt 0.90625 0.03125
vt 0.93750 0.03125
vt 0.93750 0.12500
vt 0.34375 0.53125
vt 0.34375 0.43750
vt 0.37500 0.43750
vt 0.37500 0.53125
vt 0.43750 0.50000
vt 0.43750 0.43750
vt 0.53125 0.43750
vt 0.53125 0.50000
vt 0.59375 0.50000
vt 0.59375 0.43750
vt 0.68750 0.43750
vt 0.68750 0.50000
vt 0.75000 0.50000
vt 0.75000 0.43750
vt 0.84375 0.43750
vt 0.84375 0.50000
vt 0.03125 0.65625
vt 0.03125 0.59375
vt 0.12500 0.59375
vt 0.12500 0.65625
vt 0.18750 0.62500
vt 0.18750 0.59375
vt 0.34375 0.59375
vt 0.34375 0.62500
vt 0.40625 0.62500
vt 0.40625 0.59375
vt 0.56250 0.59375
vt 0.56250 0.62500

g 1BlockTree
usemtl 1BlockTree_Material
f 1/13/2 2/14/2 3/15/2 4/16/2
f 5/29/2 6/30/2 7/31/2 8/32/2
f 9/57/2 10/58/2 11/59/2 12/60/2
f 13/17/1 14/18/1 15/19/1 16/20/1
f 17/33/1 18/34/1 19/35/1 20/36/1
f 21/69/1 22/70/1 23/71/1 24/72/1
f 4/9/3 3/10/3 14/11/3 13/12/3
f 8/21/3 7/22/3 18/23/3 17/24/3
f 24/61/3 23/62/3 10/63/3 9/64/3
f 16/5/4 15/6/4 2/7/4 1/8/4
f 20/25/4 19/26/4 6/27/4 5/28/4
f 12/65/4 11/66/4 22/67/4 21/68/4
f 4/1/5 13/2/5 16/3/5 1/4/5
f 22/41/5 11/42/5 10/43/5 23/44/5
f 18/45/6 7/46/6 6/47/6 19/48/6
f 12/37/6 21/38/6 24/39/6 9/40/6
f 25/53/6 26/54/6 8/55/6 17/56/6
f 20/49/6 5/50/6 27/51/6 28/52/6
f 26/77/6 3/78/6 2/79/6 27/80/6
f 14/73/6 25/74/6 28/75/6 15/76/6
