# This file was created with Minddesk Qubicle 3.0
# Get Qubicle at www.getqubicle.com

mtllib 4BlocksTree.mtl

vn 0.0 0.0 1.0
vn 0.0 0.0 -1.0
vn -1.0 0.0 0.0
vn 1.0 0.0 0.0
vn 0.0 1.0 0.0
vn 0.0 -1.0 0.0

v 2.50000 8.00000 -5.00000
v 2.50000 -5.00000 -5.00000
v -2.50000 -5.00000 -5.00000
v -2.50000 8.00000 -5.00000
v 1.50000 7.00000 -1.00000
v 1.50000 -4.00000 -1.00000
v -1.50000 -4.00000 -1.00000
v -1.50000 7.00000 -1.00000
v 1.50000 -5.00000 -4.00000
v 1.50000 -8.00000 -4.00000
v -1.50000 -8.00000 -4.00000
v -1.50000 -5.00000 -4.00000
v -2.50000 8.00000 0.00000
v -2.50000 -5.00000 0.00000
v 2.50000 -5.00000 0.00000
v 2.50000 8.00000 0.00000
v -1.50000 7.00000 -4.00000
v -1.50000 -4.00000 -4.00000
v 1.50000 -4.00000 -4.00000
v 1.50000 7.00000 -4.00000
v -1.50000 -5.00000 -1.00000
v -1.50000 -8.00000 -1.00000
v 1.50000 -8.00000 -1.00000
v 1.50000 -5.00000 -1.00000
v -2.50000 -5.00000 -1.00000
v -2.50000 -5.00000 -4.00000
v 2.50000 -5.00000 -4.00000
v 2.50000 -5.00000 -1.00000

vt 0.01563 0.43750
vt 0.01563 0.03125
vt 0.09375 0.03125
vt 0.09375 0.43750
vt 0.12500 0.43750
vt 0.12500 0.03125
vt 0.20313 0.03125
vt 0.20313 0.43750
vt 0.23438 0.43750
vt 0.23438 0.03125
vt 0.31250 0.03125
vt 0.31250 0.43750
vt 0.34375 0.43750
vt 0.34375 0.03125
vt 0.42188 0.03125
vt 0.42188 0.43750
vt 0.45313 0.37500
vt 0.45313 0.03125
vt 0.50000 0.03125
vt 0.50000 0.37500
vt 0.53125 0.37500
vt 0.53125 0.03125
vt 0.57813 0.03125
vt 0.57813 0.37500
vt 0.60938 0.37500
vt 0.60938 0.03125
vt 0.65625 0.03125
vt 0.65625 0.37500
vt 0.68750 0.37500
vt 0.68750 0.03125
vt 0.73438 0.03125
vt 0.73438 0.37500
vt 0.76563 0.18750
vt 0.76563 0.03125
vt 0.84375 0.03125
vt 0.84375 0.18750
vt 0.87500 0.12500
vt 0.87500 0.03125
vt 0.92188 0.03125
vt 0.92188 0.12500
vt 0.76563 0.34375
vt 0.76563 0.25000
vt 0.81250 0.25000
vt 0.81250 0.34375
vt 0.84375 0.34375
vt 0.84375 0.25000
vt 0.89063 0.25000
vt 0.89063 0.34375
vt 0.92188 0.34375
vt 0.92188 0.25000
vt 0.96875 0.25000
vt 0.96875 0.34375
vt 0.01563 0.59375
vt 0.01563 0.50000
vt 0.06250 0.50000
vt 0.06250 0.59375
vt 0.09375 0.59375
vt 0.09375 0.50000
vt 0.14063 0.50000
vt 0.14063 0.59375
vt 0.17188 0.59375
vt 0.17188 0.50000
vt 0.21875 0.50000
vt 0.21875 0.59375
vt 0.95313 0.12500
vt 0.95313 0.03125
vt 0.96875 0.03125
vt 0.96875 0.12500
vt 0.25000 0.59375
vt 0.25000 0.50000
vt 0.26563 0.50000
vt 0.26563 0.59375
vt 0.29688 0.53125
vt 0.29688 0.50000
vt 0.37500 0.50000
vt 0.37500 0.53125
vt 0.40625 0.53125
vt 0.40625 0.50000
vt 0.48438 0.50000
vt 0.48438 0.53125

g 4BlockTree
usemtl 4BlocksTree_Material
f 1/9/2 2/10/2 3/11/2 4/12/2
f 5/25/2 6/26/2 7/27/2 8/28/2
f 9/49/2 10/50/2 11/51/2 12/52/2
f 13/13/1 14/14/1 15/15/1 16/16/1
f 17/29/1 18/30/1 19/31/1 20/32/1
f 21/41/1 22/42/1 23/43/1 24/44/1
f 4/1/3 3/2/3 14/3/3 13/4/3
f 20/17/3 19/18/3 6/19/3 5/20/3
f 12/53/3 11/54/3 22/55/3 21/56/3
f 16/5/4 15/6/4 2/7/4 1/8/4
f 8/21/4 7/22/4 18/23/4 17/24/4
f 24/57/4 23/58/4 10/59/4 9/60/4
f 4/33/5 13/34/5 16/35/5 1/36/5
f 18/61/5 7/62/5 6/63/5 19/64/5
f 22/37/6 11/38/6 10/39/6 23/40/6
f 8/45/6 17/46/6 20/47/6 5/48/6
f 25/65/6 26/66/6 12/67/6 21/68/6
f 24/69/6 9/70/6 27/71/6 28/72/6
f 26/77/6 3/78/6 2/79/6 27/80/6
f 14/73/6 25/74/6 28/75/6 15/76/6
