# This file was created with Minddesk Qubicle 3.0
# Get Qubicle at www.getqubicle.com

mtllib MediumLog.mtl

vn 0.0 0.0 1.0
vn 0.0 0.0 -1.0
vn -1.0 0.0 0.0
vn 1.0 0.0 0.0
vn 0.0 1.0 0.0
vn 0.0 -1.0 0.0

v 8.00000 1.00000 -4.00000
v 8.00000 -1.00000 -4.00000
v -8.00000 -1.00000 -4.00000
v -8.00000 1.00000 -4.00000
v 8.00000 0.00000 -1.00000
v 8.00000 -1.00000 -1.00000
v -8.00000 -1.00000 -1.00000
v -8.00000 0.00000 -1.00000
v -8.00000 1.00000 0.00000
v -8.00000 -1.00000 0.00000
v 8.00000 -1.00000 0.00000
v 8.00000 1.00000 0.00000
v -8.00000 0.00000 -3.00000
v -8.00000 -1.00000 -3.00000
v 8.00000 -1.00000 -3.00000
v 8.00000 0.00000 -3.00000
v -8.00000 0.00000 -4.00000
v -8.00000 0.00000 0.00000
v 8.00000 0.00000 0.00000
v 8.00000 0.00000 -4.00000

vt 0.03125 0.15625
vt 0.03125 0.03125
vt 0.53125 0.03125
vt 0.53125 0.15625
vt 0.03125 0.28125
vt 0.03125 0.21875
vt 0.53125 0.21875
vt 0.53125 0.28125
vt 0.03125 0.40625
vt 0.03125 0.34375
vt 0.53125 0.34375
vt 0.53125 0.40625
vt 0.03125 0.53125
vt 0.03125 0.46875
vt 0.53125 0.46875
vt 0.53125 0.53125
vt 0.03125 0.62500
vt 0.03125 0.59375
vt 0.53125 0.59375
vt 0.53125 0.62500
vt 0.03125 0.71875
vt 0.03125 0.68750
vt 0.53125 0.68750
vt 0.53125 0.71875
vt 0.03125 0.81250
vt 0.03125 0.78125
vt 0.53125 0.78125
vt 0.53125 0.81250
vt 0.03125 0.90625
vt 0.03125 0.87500
vt 0.53125 0.87500
vt 0.53125 0.90625
vt 0.59375 0.06250
vt 0.59375 0.03125
vt 0.71875 0.03125
vt 0.71875 0.06250
vt 0.78125 0.06250
vt 0.78125 0.03125
vt 0.90625 0.03125
vt 0.90625 0.06250
vt 0.59375 0.15625
vt 0.59375 0.12500
vt 0.62500 0.12500
vt 0.62500 0.15625
vt 0.68750 0.15625
vt 0.68750 0.12500
vt 0.71875 0.12500
vt 0.71875 0.15625
vt 0.78125 0.15625
vt 0.78125 0.12500
vt 0.81250 0.12500
vt 0.81250 0.15625
vt 0.87500 0.15625
vt 0.87500 0.12500
vt 0.90625 0.12500
vt 0.90625 0.15625

g MediumLog
usemtl MediumLog_Material
f 1/5/2 2/6/2 3/7/2 4/8/2
f 5/21/2 6/22/2 7/23/2 8/24/2
f 9/13/1 10/14/1 11/15/1 12/16/1
f 13/17/1 14/18/1 15/19/1 16/20/1
f 4/33/3 17/34/3 18/35/3 9/36/3
f 17/49/3 3/50/3 14/51/3 13/52/3
f 8/53/3 7/54/3 10/55/3 18/56/3
f 12/37/4 19/38/4 20/39/4 1/40/4
f 16/41/4 15/42/4 2/43/4 20/44/4
f 19/45/4 11/46/4 6/47/4 5/48/4
f 4/1/5 9/2/5 12/3/5 1/4/5
f 8/9/6 13/10/6 16/11/6 5/12/6
f 14/29/6 3/30/6 2/31/6 15/32/6
f 10/25/6 7/26/6 6/27/6 11/28/6
