# This file was created with Minddesk Qubicle 3.0
# Get Qubicle at www.getqubicle.com

mtllib Stone.mtl

vn 0.0 0.0 1.0
vn 0.0 0.0 -1.0
vn -1.0 0.0 0.0
vn 1.0 0.0 0.0
vn 0.0 1.0 0.0
vn 0.0 -1.0 0.0

v 2.50000 1.00000 -5.00000
v 2.50000 -2.00000 -5.00000
v -2.50000 -2.00000 -5.00000
v -2.50000 1.00000 -5.00000
v 2.50000 2.00000 -4.00000
v 2.50000 1.00000 -4.00000
v -1.50000 1.00000 -4.00000
v -1.50000 2.00000 -4.00000
v -2.50000 1.00000 0.00000
v -2.50000 -2.00000 0.00000
v 2.50000 -2.00000 0.00000
v 2.50000 1.00000 0.00000
v -1.50000 2.00000 0.00000
v -1.50000 1.00000 0.00000
v 1.50000 1.00000 0.00000
v 1.50000 2.00000 0.00000
v 1.50000 2.00000 -2.00000
v 1.50000 1.00000 -2.00000
v 2.50000 1.00000 -2.00000
v 2.50000 2.00000 -2.00000
v -2.50000 1.00000 -4.00000
v -1.50000 2.00000 -2.00000

vt 0.03125 0.37500
vt 0.03125 0.06250
vt 0.18750 0.06250
vt 0.18750 0.37500
vt 0.25000 0.31250
vt 0.25000 0.06250
vt 0.28125 0.06250
vt 0.28125 0.31250
vt 0.34375 0.25000
vt 0.34375 0.06250
vt 0.50000 0.06250
vt 0.50000 0.25000
vt 0.56250 0.25000
vt 0.56250 0.06250
vt 0.71875 0.06250
vt 0.71875 0.25000
vt 0.78125 0.25000
vt 0.78125 0.06250
vt 0.93750 0.06250
vt 0.93750 0.25000
vt 0.03125 0.68750
vt 0.03125 0.50000
vt 0.18750 0.50000
vt 0.18750 0.68750
vt 0.25000 0.62500
vt 0.25000 0.50000
vt 0.37500 0.50000
vt 0.37500 0.62500
vt 0.43750 0.62500
vt 0.43750 0.50000
vt 0.53125 0.50000
vt 0.53125 0.62500
vt 0.59375 0.62500
vt 0.59375 0.50000
vt 0.62500 0.50000
vt 0.62500 0.62500
vt 0.68750 0.56250
vt 0.68750 0.50000
vt 0.84375 0.50000
vt 0.84375 0.56250
vt 0.03125 0.87500
vt 0.03125 0.81250
vt 0.15625 0.81250
vt 0.15625 0.87500
vt 0.21875 0.87500
vt 0.21875 0.81250
vt 0.34375 0.81250
vt 0.34375 0.87500
vt 0.40625 0.87500
vt 0.40625 0.81250
vt 0.50000 0.81250
vt 0.50000 0.87500
vt 0.90625 0.56250
vt 0.90625 0.50000
vt 0.96875 0.50000
vt 0.96875 0.56250
vt 0.56250 0.87500
vt 0.56250 0.81250
vt 0.62500 0.81250
vt 0.62500 0.87500
vt 0.68750 0.87500
vt 0.68750 0.81250
vt 0.71875 0.81250
vt 0.71875 0.87500

g Stone
usemtl Stone_Material
f 1/17/2 2/18/2 3/19/2 4/20/2
f 5/45/2 6/46/2 7/47/2 8/48/2
f 9/21/1 10/22/1 11/23/1 12/24/1
f 13/49/1 14/50/1 15/51/1 16/52/1
f 17/61/1 18/62/1 19/63/1 20/64/1
f 4/13/3 3/14/3 10/15/3 9/16/3
f 8/41/3 7/42/3 14/43/3 13/44/3
f 12/9/4 11/10/4 2/11/4 1/12/4
f 20/57/4 19/58/4 6/59/4 5/60/4
f 16/53/4 15/54/4 18/55/4 17/56/4
f 21/5/5 9/6/5 14/7/5 7/8/5
f 8/25/5 22/26/5 20/27/5 5/28/5
f 22/29/5 13/30/5 16/31/5 17/32/5
f 18/33/5 15/34/5 12/35/5 19/36/5
f 4/37/5 21/38/5 6/39/5 1/40/5
f 10/1/6 3/2/6 2/3/6 11/4/6
