# This file was created with Minddesk Qubicle 3.0
# Get Qubicle at www.getqubicle.com

mtllib WaterLilly.mtl

vn 0.0 0.0 1.0
vn 0.0 0.0 -1.0
vn -1.0 0.0 0.0
vn 1.0 0.0 0.0
vn 0.0 1.0 0.0
vn 0.0 -1.0 0.0

v 2.00000 0.50000 -4.00000
v 2.00000 -0.50000 -4.00000
v -2.00000 -0.50000 -4.00000
v -2.00000 0.50000 -4.00000
v -2.00000 0.50000 0.00000
v -2.00000 -0.50000 0.00000
v 1.00000 -0.50000 0.00000
v 1.00000 0.50000 0.00000
v 1.00000 0.50000 -1.00000
v 1.00000 -0.50000 -1.00000
v 2.00000 -0.50000 -1.00000
v 2.00000 0.50000 -1.00000
v -2.00000 0.50000 -1.00000
v -2.00000 -0.50000 -1.00000

vt 0.06250 0.25000
vt 0.06250 0.06250
vt 0.31250 0.06250
vt 0.31250 0.25000
vt 0.43750 0.25000
vt 0.43750 0.06250
vt 0.68750 0.06250
vt 0.68750 0.25000
vt 0.06250 0.43750
vt 0.06250 0.37500
vt 0.31250 0.37500
vt 0.31250 0.43750
vt 0.43750 0.43750
vt 0.43750 0.37500
vt 0.68750 0.37500
vt 0.68750 0.43750
vt 0.06250 0.62500
vt 0.06250 0.56250
vt 0.25000 0.56250
vt 0.25000 0.62500
vt 0.37500 0.62500
vt 0.37500 0.56250
vt 0.56250 0.56250
vt 0.56250 0.62500
vt 0.68750 0.62500
vt 0.68750 0.56250
vt 0.87500 0.56250
vt 0.87500 0.62500
vt 0.06250 0.81250
vt 0.06250 0.75000
vt 0.25000 0.75000
vt 0.25000 0.81250
vt 0.81250 0.12500
vt 0.81250 0.06250
vt 0.87500 0.06250
vt 0.87500 0.12500
vt 0.81250 0.43750
vt 0.81250 0.37500
vt 0.87500 0.37500
vt 0.87500 0.43750

g WaterLilly
usemtl WaterLilly_Material
f 1/13/2 2/14/2 3/15/2 4/16/2
f 5/17/1 6/18/1 7/19/1 8/20/1
f 9/37/1 10/38/1 11/39/1 12/40/1
f 4/9/3 3/10/3 6/11/3 5/12/3
f 12/21/4 11/22/4 2/23/4 1/24/4
f 8/33/4 7/34/4 10/35/4 9/36/4
f 4/5/5 13/6/5 12/7/5 1/8/5
f 13/25/5 5/26/5 8/27/5 9/28/5
f 14/1/6 3/2/6 2/3/6 11/4/6
f 6/29/6 14/30/6 10/31/6 7/32/6
