# This file was created with Minddesk Qubicle 3.0
# Get Qubicle at www.getqubicle.com

mtllib AnglerFish.mtl

vn 0.0 0.0 1.0
vn 0.0 0.0 -1.0
vn -1.0 0.0 0.0
vn 1.0 0.0 0.0
vn 0.0 1.0 0.0
vn 0.0 -1.0 0.0

v 0.50000 0.50000 -19.00000
v 0.50000 -5.50000 -19.00000
v -0.50000 -5.50000 -19.00000
v -0.50000 0.50000 -19.00000
v 0.50000 5.50000 -8.00000
v 0.50000 0.50000 -8.00000
v -0.50000 0.50000 -8.00000
v -0.50000 5.50000 -8.00000
v 2.50000 -0.50000 -7.00000
v 2.50000 -4.50000 -7.00000
v -2.50000 -4.50000 -7.00000
v -2.50000 -0.50000 -7.00000
v -0.50000 -0.50000 -15.00000
v -0.50000 -4.50000 -15.00000
v -3.50000 -4.50000 -15.00000
v -3.50000 -0.50000 -15.00000
v 3.50000 -0.50000 -15.00000
v 3.50000 -4.50000 -15.00000
v 0.50000 -4.50000 -15.00000
v 0.50000 -0.50000 -15.00000
v -3.50000 -2.50000 -14.00000
v -3.50000 -4.50000 -14.00000
v -4.50000 -4.50000 -14.00000
v -4.50000 -2.50000 -14.00000
v 0.50000 2.50000 -14.00000
v 0.50000 0.50000 -14.00000
v -0.50000 0.50000 -14.00000
v -0.50000 2.50000 -14.00000
v 4.50000 -2.50000 -14.00000
v 4.50000 -4.50000 -14.00000
v 3.50000 -4.50000 -14.00000
v 3.50000 -2.50000 -14.00000
v -1.50000 -1.50000 -4.00000
v -1.50000 -3.50000 -4.00000
v -2.50000 -3.50000 -4.00000
v -2.50000 -1.50000 -4.00000
v 2.50000 -1.50000 -4.00000
v 2.50000 -3.50000 -4.00000
v 1.50000 -3.50000 -4.00000
v 1.50000 -1.50000 -4.00000
v 0.50000 4.50000 -1.00000
v 0.50000 2.50000 -1.00000
v -0.50000 2.50000 -1.00000
v -0.50000 4.50000 -1.00000
v 3.50000 -5.50000 -15.00000
v -3.50000 -5.50000 -15.00000
v 3.50000 0.50000 -15.00000
v -3.50000 0.50000 -15.00000
v 2.50000 -4.50000 -4.00000
v 2.50000 -5.50000 -4.00000
v -2.50000 -5.50000 -4.00000
v -2.50000 -4.50000 -4.00000
v 1.50000 -2.50000 -5.00000
v 1.50000 -3.50000 -5.00000
v -1.50000 -3.50000 -5.00000
v -1.50000 -2.50000 -5.00000
v -2.50000 -0.50000 -14.00000
v -2.50000 -4.50000 -14.00000
v 2.50000 -4.50000 -14.00000
v 2.50000 -0.50000 -14.00000
v -2.50000 -0.50000 -6.00000
v -2.50000 -3.50000 -6.00000
v 2.50000 -3.50000 -6.00000
v 2.50000 -0.50000 -6.00000
v -0.50000 4.50000 -7.00000
v -0.50000 0.50000 -7.00000
v 0.50000 0.50000 -7.00000
v 0.50000 4.50000 -7.00000
v -3.50000 -0.50000 -5.00000
v -3.50000 -3.50000 -5.00000
v -2.50000 -3.50000 -5.00000
v -2.50000 -0.50000 -5.00000
v 2.50000 -0.50000 -5.00000
v 2.50000 -3.50000 -5.00000
v 3.50000 -3.50000 -5.00000
v 3.50000 -0.50000 -5.00000
v -0.50000 5.50000 0.00000
v -0.50000 2.50000 0.00000
v 0.50000 2.50000 0.00000
v 0.50000 5.50000 0.00000
v -4.50000 -2.50000 -11.00000
v -4.50000 -4.50000 -11.00000
v -3.50000 -4.50000 -11.00000
v -3.50000 -2.50000 -11.00000
v 3.50000 -2.50000 -11.00000
v 3.50000 -4.50000 -11.00000
v 4.50000 -4.50000 -11.00000
v 4.50000 -2.50000 -11.00000
v -0.50000 2.50000 -10.00000
v -0.50000 0.50000 -10.00000
v 0.50000 0.50000 -10.00000
v 0.50000 2.50000 -10.00000
v -2.50000 -4.50000 -9.00000
v -2.50000 -5.50000 -9.00000
v 2.50000 -5.50000 -9.00000
v 2.50000 -4.50000 -9.00000
v -3.50000 0.50000 -5.00000
v 3.50000 0.50000 -5.00000
v -3.50000 -4.50000 -3.00000
v -3.50000 -5.50000 -3.00000
v 3.50000 -5.50000 -3.00000
v 3.50000 -4.50000 -3.00000
v -2.50000 -2.50000 -3.00000
v -2.50000 -3.50000 -3.00000
v 2.50000 -3.50000 -3.00000
v 2.50000 -2.50000 -3.00000
v -3.50000 -3.50000 -2.00000
v -3.50000 -4.50000 -2.00000
v 3.50000 -4.50000 -2.00000
v 3.50000 -3.50000 -2.00000
v -0.50000 -4.50000 -16.00000
v -0.50000 -5.50000 -16.00000
v 0.50000 -5.50000 -16.00000
v 0.50000 -4.50000 -16.00000
v -0.50000 0.50000 -16.00000
v -0.50000 -0.50000 -16.00000
v 0.50000 -0.50000 -16.00000
v 0.50000 0.50000 -16.00000
v -2.50000 -1.50000 -3.00000
v -1.50000 -2.50000 -3.00000
v -1.50000 -1.50000 -3.00000
v 1.50000 -1.50000 -3.00000
v 1.50000 -2.50000 -3.00000
v 2.50000 -1.50000 -3.00000
v -3.50000 -2.50000 -15.00000
v -3.50000 -2.50000 -5.00000
v -0.50000 -0.50000 -19.00000
v -0.50000 -4.50000 -19.00000
v -0.50000 4.50000 -8.00000
v -0.50000 4.50000 0.00000
v -3.50000 -3.50000 -11.00000
v -1.50000 -2.50000 -4.00000
v 1.50000 -2.50000 -4.00000
v 3.50000 -2.50000 -5.00000
v 3.50000 -2.50000 -15.00000
v 0.50000 -4.50000 -19.00000
v 0.50000 -0.50000 -19.00000
v 0.50000 4.50000 -8.00000
v 0.50000 4.50000 0.00000
v 3.50000 -3.50000 -11.00000
v -3.50000 0.50000 -14.00000
v -3.50000 0.50000 -10.00000
v 3.50000 0.50000 -10.00000
v 3.50000 0.50000 -14.00000
v -3.50000 0.50000 -8.00000
v 3.50000 0.50000 -8.00000
v -3.50000 0.50000 -7.00000
v 3.50000 0.50000 -7.00000
v -3.50000 -3.50000 -3.00000
v 3.50000 -3.50000 -3.00000
v -3.50000 -3.50000 -4.00000
v 3.50000 -3.50000 -4.00000
v -3.50000 -5.50000 -9.00000
v 3.50000 -5.50000 -9.00000
v -3.50000 -5.50000 -4.00000
v 3.50000 -5.50000 -4.00000

vt 0.01563 0.14063
vt 0.01563 0.01563
vt 0.03125 0.01563
vt 0.03125 0.14063
vt 0.06250 0.12500
vt 0.06250 0.01563
vt 0.14063 0.01563
vt 0.14063 0.12500
vt 0.17188 0.10938
vt 0.17188 0.01563
vt 0.28125 0.01563
vt 0.28125 0.10938
vt 0.31250 0.10938
vt 0.31250 0.01563
vt 0.32813 0.01563
vt 0.32813 0.10938
vt 0.35938 0.10938
vt 0.35938 0.01563
vt 0.37500 0.01563
vt 0.37500 0.10938
vt 0.40625 0.09375
vt 0.40625 0.01563
vt 0.48438 0.01563
vt 0.48438 0.09375
vt 0.51563 0.09375
vt 0.51563 0.01563
vt 0.53125 0.01563
vt 0.53125 0.09375
vt 0.56250 0.09375
vt 0.56250 0.01563
vt 0.57813 0.01563
vt 0.57813 0.09375
vt 0.60938 0.09375
vt 0.60938 0.01563
vt 0.62500 0.01563
vt 0.62500 0.09375
vt 0.65625 0.07813
vt 0.65625 0.01563
vt 0.76563 0.01563
vt 0.76563 0.07813
vt 0.79688 0.07813
vt 0.79688 0.01563
vt 0.90625 0.01563
vt 0.90625 0.07813
vt 0.01563 0.23438
vt 0.01563 0.17188
vt 0.09375 0.17188
vt 0.09375 0.23438
vt 0.12500 0.23438
vt 0.12500 0.17188
vt 0.20313 0.17188
vt 0.20313 0.23438
vt 0.23438 0.23438
vt 0.23438 0.17188
vt 0.29688 0.17188
vt 0.29688 0.23438
vt 0.32813 0.23438
vt 0.32813 0.17188
vt 0.39063 0.17188
vt 0.39063 0.23438
vt 0.93750 0.07813
vt 0.93750 0.01563
vt 0.98438 0.01563
vt 0.98438 0.07813
vt 0.42188 0.23438
vt 0.42188 0.17188
vt 0.46875 0.17188
vt 0.46875 0.23438
vt 0.50000 0.23438
vt 0.50000 0.17188
vt 0.54688 0.17188
vt 0.54688 0.23438
vt 0.57813 0.23438
vt 0.57813 0.17188
vt 0.62500 0.17188
vt 0.62500 0.23438
vt 0.65625 0.23438
vt 0.65625 0.17188
vt 0.67188 0.17188
vt 0.67188 0.23438
vt 0.70313 0.23438
vt 0.70313 0.17188
vt 0.71875 0.17188
vt 0.71875 0.23438
vt 0.75000 0.23438
vt 0.75000 0.17188
vt 0.76563 0.17188
vt 0.76563 0.23438
vt 0.79688 0.23438
vt 0.79688 0.17188
vt 0.81250 0.17188
vt 0.81250 0.23438
vt 0.01563 0.31250
vt 0.01563 0.26563
vt 0.17188 0.26563
vt 0.17188 0.31250
vt 0.20313 0.31250
vt 0.20313 0.26563
vt 0.35938 0.26563
vt 0.35938 0.31250
vt 0.84375 0.21875
vt 0.84375 0.17188
vt 0.92188 0.17188
vt 0.92188 0.21875
vt 0.39063 0.31250
vt 0.39063 0.26563
vt 0.46875 0.26563
vt 0.46875 0.31250
vt 0.95313 0.21875
vt 0.95313 0.17188
vt 0.96875 0.17188
vt 0.96875 0.21875
vt 0.50000 0.31250
vt 0.50000 0.26563
vt 0.51563 0.26563
vt 0.51563 0.31250
vt 0.54688 0.31250
vt 0.54688 0.26563
vt 0.56250 0.26563
vt 0.56250 0.31250
vt 0.59375 0.31250
vt 0.59375 0.26563
vt 0.60938 0.26563
vt 0.60938 0.31250
vt 0.64063 0.31250
vt 0.64063 0.26563
vt 0.65625 0.26563
vt 0.65625 0.31250
vt 0.68750 0.31250
vt 0.68750 0.26563
vt 0.70313 0.26563
vt 0.70313 0.31250
vt 0.73438 0.31250
vt 0.73438 0.26563
vt 0.75000 0.26563
vt 0.75000 0.31250
vt 0.78125 0.31250
vt 0.78125 0.26563
vt 0.79688 0.26563
vt 0.79688 0.31250
vt 0.82813 0.31250
vt 0.82813 0.26563
vt 0.84375 0.26563
vt 0.84375 0.31250
vt 0.87500 0.31250
vt 0.87500 0.26563
vt 0.89063 0.26563
vt 0.89063 0.31250
vt 0.92188 0.31250
vt 0.92188 0.26563
vt 0.93750 0.26563
vt 0.93750 0.31250
vt 0.01563 0.37500
vt 0.01563 0.34375
vt 0.12500 0.34375
vt 0.12500 0.37500
vt 0.15625 0.37500
vt 0.15625 0.34375
vt 0.26563 0.34375
vt 0.26563 0.37500
vt 0.29688 0.37500
vt 0.29688 0.34375
vt 0.35938 0.34375
vt 0.35938 0.37500
vt 0.39063 0.37500
vt 0.39063 0.34375
vt 0.45313 0.34375
vt 0.45313 0.37500
vt 0.48438 0.37500
vt 0.48438 0.34375
vt 0.53125 0.34375
vt 0.53125 0.37500
vt 0.56250 0.37500
vt 0.56250 0.34375
vt 0.60938 0.34375
vt 0.60938 0.37500
vt 0.64063 0.37500
vt 0.64063 0.34375
vt 0.68750 0.34375
vt 0.68750 0.37500
vt 0.96875 0.29688
vt 0.96875 0.26563
vt 0.98438 0.26563
vt 0.98438 0.29688
vt 0.71875 0.37500
vt 0.71875 0.34375
vt 0.73438 0.34375
vt 0.73438 0.37500
vt 0.76563 0.37500
vt 0.76563 0.34375
vt 0.78125 0.34375
vt 0.78125 0.37500
vt 0.81250 0.37500
vt 0.81250 0.34375
vt 0.82813 0.34375
vt 0.82813 0.37500
vt 0.85938 0.37500
vt 0.85938 0.34375
vt 0.87500 0.34375
vt 0.87500 0.37500
vt 0.90625 0.37500
vt 0.90625 0.34375
vt 0.92188 0.34375
vt 0.92188 0.37500
vt 0.95313 0.37500
vt 0.95313 0.34375
vt 0.96875 0.34375
vt 0.96875 0.37500
vt 0.01563 0.43750
vt 0.01563 0.40625
vt 0.03125 0.40625
vt 0.03125 0.43750
vt 0.06250 0.43750
vt 0.06250 0.40625
vt 0.07813 0.40625
vt 0.07813 0.43750
vt 0.10938 0.43750
vt 0.10938 0.40625
vt 0.12500 0.40625
vt 0.12500 0.43750
vt 0.15625 0.43750
vt 0.15625 0.40625
vt 0.17188 0.40625
vt 0.17188 0.43750
vt 0.20313 0.43750
vt 0.20313 0.40625
vt 0.21875 0.40625
vt 0.21875 0.43750
vt 0.25000 0.43750
vt 0.25000 0.40625
vt 0.26563 0.40625
vt 0.26563 0.43750
vt 0.29688 0.43750
vt 0.29688 0.40625
vt 0.31250 0.40625
vt 0.31250 0.43750
vt 0.34375 0.43750
vt 0.34375 0.40625
vt 0.35938 0.40625
vt 0.35938 0.43750
vt 0.39063 0.42188
vt 0.39063 0.40625
vt 0.57813 0.40625
vt 0.57813 0.42188
vt 0.60938 0.42188
vt 0.60938 0.40625
vt 0.79688 0.40625
vt 0.79688 0.42188
vt 0.82813 0.42188
vt 0.82813 0.40625
vt 0.96875 0.40625
vt 0.96875 0.42188
vt 0.01563 0.48438
vt 0.01563 0.46875
vt 0.15625 0.46875
vt 0.15625 0.48438
vt 0.18750 0.48438
vt 0.18750 0.46875
vt 0.31250 0.46875
vt 0.31250 0.48438
vt 0.34375 0.48438
vt 0.34375 0.46875
vt 0.46875 0.46875
vt 0.46875 0.48438
vt 0.50000 0.48438
vt 0.50000 0.46875
vt 0.60938 0.46875
vt 0.60938 0.48438
vt 0.64063 0.48438
vt 0.64063 0.46875
vt 0.75000 0.46875
vt 0.75000 0.48438
vt 0.78125 0.48438
vt 0.78125 0.46875
vt 0.89063 0.46875
vt 0.89063 0.48438
vt 0.01563 0.53125
vt 0.01563 0.51563
vt 0.12500 0.51563
vt 0.12500 0.53125
vt 0.15625 0.53125
vt 0.15625 0.51563
vt 0.26563 0.51563
vt 0.26563 0.53125
vt 0.29688 0.53125
vt 0.29688 0.51563
vt 0.40625 0.51563
vt 0.40625 0.53125
vt 0.43750 0.53125
vt 0.43750 0.51563
vt 0.54688 0.51563
vt 0.54688 0.53125
vt 0.57813 0.53125
vt 0.57813 0.51563
vt 0.68750 0.51563
vt 0.68750 0.53125
vt 0.71875 0.53125
vt 0.71875 0.51563
vt 0.82813 0.51563
vt 0.82813 0.53125
vt 0.85938 0.53125
vt 0.85938 0.51563
vt 0.95313 0.51563
vt 0.95313 0.53125
vt 0.01563 0.57813
vt 0.01563 0.56250
vt 0.10938 0.56250
vt 0.10938 0.57813
vt 0.14063 0.57813
vt 0.14063 0.56250
vt 0.21875 0.56250
vt 0.21875 0.57813
vt 0.25000 0.57813
vt 0.25000 0.56250
vt 0.32813 0.56250
vt 0.32813 0.57813
vt 0.35938 0.57813
vt 0.35938 0.56250
vt 0.43750 0.56250
vt 0.43750 0.57813
vt 0.46875 0.57813
vt 0.46875 0.56250
vt 0.54688 0.56250
vt 0.54688 0.57813
vt 0.57813 0.57813
vt 0.57813 0.56250
vt 0.65625 0.56250
vt 0.65625 0.57813
vt 0.68750 0.57813
vt 0.68750 0.56250
vt 0.76563 0.56250
vt 0.76563 0.57813
vt 0.79688 0.57813
vt 0.79688 0.56250
vt 0.87500 0.56250
vt 0.87500 0.57813
vt 0.92188 0.48438
vt 0.92188 0.46875
vt 0.96875 0.46875
vt 0.96875 0.48438
vt 0.90625 0.57813
vt 0.90625 0.56250
vt 0.95313 0.56250
vt 0.95313 0.57813
vt 0.01563 0.62500
vt 0.01563 0.60938
vt 0.06250 0.60938
vt 0.06250 0.62500
vt 0.09375 0.62500
vt 0.09375 0.60938
vt 0.14063 0.60938
vt 0.14063 0.62500
vt 0.17188 0.62500
vt 0.17188 0.60938
vt 0.21875 0.60938
vt 0.21875 0.62500
vt 0.25000 0.62500
vt 0.25000 0.60938
vt 0.29688 0.60938
vt 0.29688 0.62500
vt 0.32813 0.62500
vt 0.32813 0.60938
vt 0.37500 0.60938
vt 0.37500 0.62500
vt 0.40625 0.62500
vt 0.40625 0.60938
vt 0.43750 0.60938
vt 0.43750 0.62500
vt 0.46875 0.62500
vt 0.46875 0.60938
vt 0.50000 0.60938
vt 0.50000 0.62500
vt 0.53125 0.62500
vt 0.53125 0.60938
vt 0.54688 0.60938
vt 0.54688 0.62500
vt 0.57813 0.62500
vt 0.57813 0.60938
vt 0.59375 0.60938
vt 0.59375 0.62500
vt 0.62500 0.62500
vt 0.62500 0.60938
vt 0.64063 0.60938
vt 0.64063 0.62500
vt 0.67188 0.62500
vt 0.67188 0.60938
vt 0.68750 0.60938
vt 0.68750 0.62500
vt 0.71875 0.62500
vt 0.71875 0.60938
vt 0.73438 0.60938
vt 0.73438 0.62500
vt 0.76563 0.62500
vt 0.76563 0.60938
vt 0.78125 0.60938
vt 0.78125 0.62500
vt 0.81250 0.62500
vt 0.81250 0.60938
vt 0.82813 0.60938
vt 0.82813 0.62500
vt 0.85938 0.62500
vt 0.85938 0.60938
vt 0.87500 0.60938
vt 0.87500 0.62500
vt 0.90625 0.62500
vt 0.90625 0.60938
vt 0.92188 0.60938
vt 0.92188 0.62500
vt 0.95313 0.62500
vt 0.95313 0.60938
vt 0.96875 0.60938
vt 0.96875 0.62500
vt 0.01563 0.67188
vt 0.01563 0.65625
vt 0.03125 0.65625
vt 0.03125 0.67188
vt 0.06250 0.67188
vt 0.06250 0.65625
vt 0.07813 0.65625
vt 0.07813 0.67188
vt 0.10938 0.67188
vt 0.10938 0.65625
vt 0.12500 0.65625
vt 0.12500 0.67188
vt 0.15625 0.67188
vt 0.15625 0.65625
vt 0.17188 0.65625
vt 0.17188 0.67188
vt 0.20313 0.67188
vt 0.20313 0.65625
vt 0.21875 0.65625
vt 0.21875 0.67188

g AnglerFish
usemtl AnglerFish_Material
f 1/13/2 2/14/2 3/15/2 4/16/2
f 5/33/2 6/34/2 7/35/2 8/36/2
f 9/49/2 10/50/2 11/51/2 12/52/2
f 13/73/2 14/74/2 15/75/2 16/76/2
f 17/61/2 18/62/2 19/63/2 20/64/2
f 21/225/2 22/226/2 23/227/2 24/228/2
f 25/217/2 26/218/2 27/219/2 28/220/2
f 29/213/2 30/214/2 31/215/2 32/216/2
f 33/205/2 34/206/2 35/207/2 36/208/2
f 37/209/2 38/210/2 39/211/2 40/212/2
f 41/221/2 42/222/2 43/223/2 44/224/2
f 18/285/2 45/286/2 46/287/2 15/288/2
f 47/289/2 17/290/2 16/291/2 48/292/2
f 49/325/2 50/326/2 51/327/2 52/328/2
f 53/337/2 54/338/2 55/339/2 56/340/2
f 57/45/1 58/46/1 59/47/1 60/48/1
f 61/105/1 62/106/1 63/107/1 64/108/1
f 65/85/1 66/86/1 67/87/1 68/88/1
f 69/117/1 70/118/1 71/119/1 72/120/1
f 73/129/1 74/130/1 75/131/1 76/132/1
f 77/137/1 78/138/1 79/139/1 80/140/1
f 81/201/1 82/202/1 83/203/1 84/204/1
f 85/197/1 86/198/1 87/199/1 88/200/1
f 89/181/1 90/182/1 91/183/1 92/184/1
f 93/321/1 94/322/1 95/323/1 96/324/1
f 97/273/1 69/274/1 76/275/1 98/276/1
f 99/277/1 100/278/1 101/279/1 102/280/1
f 103/333/1 104/334/1 105/335/1 106/336/1
f 107/281/1 108/282/1 109/283/1 110/284/1
f 111/409/1 112/410/1 113/411/1 114/412/1
f 115/413/1 116/414/1 117/415/1 118/416/1
f 119/401/1 103/402/1 120/403/1 121/404/1
f 122/405/1 123/406/1 106/407/1 124/408/1
f 48/97/3 125/98/3 126/99/3 97/100/3
f 60/41/3 59/42/3 10/43/3 9/44/3
f 127/57/3 128/58/3 14/59/3 13/60/3
f 129/81/3 7/82/3 66/83/3 65/84/3
f 64/133/3 63/134/3 74/135/3 73/136/3
f 24/177/3 23/178/3 82/179/3 81/180/3
f 28/161/3 27/162/3 90/163/3 89/164/3
f 125/189/3 15/190/3 22/191/3 21/192/3
f 36/185/3 35/186/3 104/187/3 119/188/3
f 44/193/3 43/194/3 78/195/3 130/196/3
f 15/241/3 46/242/3 100/243/3 99/244/3
f 131/249/3 83/250/3 108/251/3 107/252/3
f 84/301/3 131/302/3 70/303/3 126/304/3
f 96/329/3 95/330/3 50/331/3 49/332/3
f 8/261/3 129/262/3 130/263/3 77/264/3
f 128/345/3 3/346/3 112/347/3 111/348/3
f 4/341/3 127/342/3 116/343/3 115/344/3
f 56/425/3 55/426/3 34/427/3 132/428/3
f 40/429/3 133/430/3 123/431/3 122/432/3
f 98/93/4 134/94/4 135/95/4 47/96/4
f 12/37/4 11/38/4 58/39/4 57/40/4
f 20/53/4 19/54/4 136/55/4 137/56/4
f 68/89/4 67/90/4 6/91/4 138/92/4
f 72/113/4 71/114/4 62/115/4 61/116/4
f 92/165/4 91/166/4 26/167/4 25/168/4
f 88/173/4 87/174/4 30/175/4 29/176/4
f 32/233/4 31/234/4 18/235/4 135/236/4
f 124/237/4 105/238/4 38/239/4 37/240/4
f 139/229/4 79/230/4 42/231/4 41/232/4
f 102/245/4 101/246/4 45/247/4 18/248/4
f 110/253/4 109/254/4 86/255/4 140/256/4
f 134/305/4 75/306/4 140/307/4 85/308/4
f 52/313/4 51/314/4 94/315/4 93/316/4
f 80/257/4 139/258/4 138/259/4 5/260/4
f 114/349/4 113/350/4 2/351/4 136/352/4
f 118/353/4 117/354/4 137/355/4 1/356/4
f 133/417/4 39/418/4 54/419/4 53/420/4
f 121/421/4 120/422/4 132/423/4 33/424/4
f 58/21/5 93/22/5 96/23/5 59/24/5
f 8/1/5 77/2/5 80/3/5 5/4/5
f 141/69/5 142/70/5 90/71/5 27/72/5
f 26/65/5 91/66/5 143/67/5 144/68/5
f 4/109/5 115/110/5 118/111/5 1/112/5
f 24/125/5 81/126/5 84/127/5 21/128/5
f 28/77/5 89/78/5 92/79/5 25/80/5
f 32/149/5 85/150/5 88/151/5 29/152/5
f 142/157/5 145/158/5 146/159/5 143/160/5
f 147/153/5 97/154/5 98/155/5 148/156/5
f 56/169/5 120/170/5 123/171/5 53/172/5
f 48/297/5 141/298/5 144/299/5 47/300/5
f 62/317/5 71/318/5 74/319/5 63/320/5
f 149/265/5 107/266/5 110/267/5 150/268/5
f 145/357/5 147/358/5 66/359/5 7/360/5
f 6/361/5 67/362/5 148/363/5 146/364/5
f 70/365/5 151/366/5 34/367/5 55/368/5
f 54/369/5 39/370/5 152/371/5 75/372/5
f 116/373/5 13/374/5 20/375/5 117/376/5
f 151/389/5 149/390/5 104/391/5 35/392/5
f 36/393/5 119/394/5 121/395/5 33/396/5
f 40/397/5 122/398/5 124/399/5 37/400/5
f 38/377/5 105/378/5 150/379/5 152/380/5
f 153/9/6 46/10/6 45/11/6 154/12/6
f 12/5/6 57/6/6 60/7/6 9/8/6
f 155/25/6 153/26/6 94/27/6 51/28/6
f 50/29/6 95/30/6 154/31/6 156/32/6
f 44/17/6 65/18/6 68/19/6 41/20/6
f 52/101/6 11/102/6 10/103/6 49/104/6
f 112/141/6 3/142/6 2/143/6 113/144/6
f 82/145/6 23/146/6 22/147/6 83/148/6
f 86/121/6 31/122/6 30/123/6 87/124/6
f 72/309/6 61/310/6 64/311/6 73/312/6
f 100/293/6 155/294/6 156/295/6 101/296/6
f 108/269/6 99/270/6 102/271/6 109/272/6
f 14/381/6 111/382/6 114/383/6 19/384/6
f 78/385/6 43/386/6 42/387/6 79/388/6
