# This file was created with Minddesk Qubicle 3.0
# Get Qubicle at www.getqubicle.com

mtllib Chicken.mtl

vn 0.0 0.0 1.0
vn 0.0 0.0 -1.0
vn -1.0 0.0 0.0
vn 1.0 0.0 0.0
vn 0.0 1.0 0.0
vn 0.0 -1.0 0.0

v 3.00000 7.50000 -10.00000
v 3.00000 -0.50000 -10.00000
v -3.00000 -0.50000 -10.00000
v -3.00000 7.50000 -10.00000
v 2.00000 -0.50000 -14.00000
v 2.00000 -4.50000 -14.00000
v -2.00000 -4.50000 -14.00000
v -2.00000 -0.50000 -14.00000
v 5.00000 -1.50000 -11.00000
v 5.00000 -4.50000 -11.00000
v 3.00000 -4.50000 -11.00000
v 3.00000 -1.50000 -11.00000
v -3.00000 -1.50000 -10.00000
v -3.00000 -4.50000 -10.00000
v -5.00000 -4.50000 -10.00000
v -5.00000 -1.50000 -10.00000
v -2.00000 -0.50000 -13.00000
v -2.00000 -4.50000 -13.00000
v -3.00000 -4.50000 -13.00000
v -3.00000 -0.50000 -13.00000
v 3.00000 -0.50000 -13.00000
v 3.00000 -4.50000 -13.00000
v 2.00000 -4.50000 -13.00000
v 2.00000 -0.50000 -13.00000
v 3.00000 -6.50000 -13.00000
v -3.00000 -6.50000 -13.00000
v 1.00000 9.50000 -8.00000
v 1.00000 7.50000 -8.00000
v -1.00000 7.50000 -8.00000
v -1.00000 9.50000 -8.00000
v -2.00000 -6.50000 -8.00000
v -2.00000 -8.50000 -8.00000
v -3.00000 -8.50000 -8.00000
v -3.00000 -6.50000 -8.00000
v 3.00000 -6.50000 -8.00000
v 3.00000 -8.50000 -8.00000
v 2.00000 -8.50000 -8.00000
v 2.00000 -6.50000 -8.00000
v 4.00000 -8.50000 -9.00000
v 4.00000 -9.50000 -9.00000
v 1.00000 -9.50000 -9.00000
v 1.00000 -8.50000 -9.00000
v -1.00000 -8.50000 -8.00000
v -1.00000 -9.50000 -8.00000
v -4.00000 -9.50000 -8.00000
v -4.00000 -8.50000 -8.00000
v -3.00000 1.50000 -3.00000
v -3.00000 -6.50000 -3.00000
v 3.00000 -6.50000 -3.00000
v 3.00000 1.50000 -3.00000
v 3.00000 -1.50000 -5.00000
v 3.00000 -4.50000 -5.00000
v 5.00000 -4.50000 -5.00000
v 5.00000 -1.50000 -5.00000
v -5.00000 -1.50000 -4.00000
v -5.00000 -4.50000 -4.00000
v -3.00000 -4.50000 -4.00000
v -3.00000 -1.50000 -4.00000
v -3.00000 5.50000 -3.00000
v -1.00000 1.50000 -3.00000
v -1.00000 5.50000 -3.00000
v 1.00000 5.50000 -3.00000
v 1.00000 1.50000 -3.00000
v 3.00000 5.50000 -3.00000
v -3.00000 7.50000 -3.00000
v 3.00000 7.50000 -3.00000
v -1.00000 9.50000 -4.00000
v -1.00000 7.50000 -4.00000
v 1.00000 7.50000 -4.00000
v 1.00000 9.50000 -4.00000
v -1.00000 3.50000 -1.00000
v -1.00000 1.50000 -1.00000
v 1.00000 1.50000 -1.00000
v 1.00000 3.50000 -1.00000
v -1.00000 5.50000 0.00000
v -1.00000 3.50000 0.00000
v 1.00000 3.50000 0.00000
v 1.00000 5.50000 0.00000
v -3.00000 -6.50000 -7.00000
v -3.00000 -8.50000 -7.00000
v -2.00000 -8.50000 -7.00000
v -2.00000 -6.50000 -7.00000
v 2.00000 -6.50000 -7.00000
v 2.00000 -8.50000 -7.00000
v 3.00000 -8.50000 -7.00000
v 3.00000 -6.50000 -7.00000
v -3.00000 -8.50000 -6.00000
v -3.00000 -9.50000 -6.00000
v -2.00000 -9.50000 -6.00000
v -2.00000 -8.50000 -6.00000
v 2.00000 -8.50000 -6.00000
v 2.00000 -9.50000 -6.00000
v 3.00000 -9.50000 -6.00000
v 3.00000 -8.50000 -6.00000
v -4.00000 -8.50000 -4.00000
v -4.00000 -9.50000 -4.00000
v -3.00000 -9.50000 -4.00000
v -3.00000 -8.50000 -4.00000
v -2.00000 -8.50000 -4.00000
v -2.00000 -9.50000 -4.00000
v -1.00000 -9.50000 -4.00000
v -1.00000 -8.50000 -4.00000
v 1.00000 -8.50000 -4.00000
v 1.00000 -9.50000 -4.00000
v 2.00000 -9.50000 -4.00000
v 2.00000 -8.50000 -4.00000
v 3.00000 -8.50000 -4.00000
v 3.00000 -9.50000 -4.00000
v 4.00000 -9.50000 -4.00000
v 4.00000 -8.50000 -4.00000
v -3.00000 -0.50000 -3.00000
v -3.00000 -1.50000 -13.00000
v -3.00000 -4.50000 -3.00000
v -3.00000 -1.50000 -3.00000
v -1.00000 3.50000 -3.00000
v 3.00000 -0.50000 -3.00000
v 3.00000 -1.50000 -13.00000
v 3.00000 -1.50000 -3.00000
v 3.00000 -4.50000 -3.00000
v 1.00000 3.50000 -3.00000
v -3.00000 7.50000 -8.00000
v -3.00000 7.50000 -4.00000
v 3.00000 7.50000 -4.00000
v 3.00000 7.50000 -8.00000
v -4.00000 -8.50000 -6.00000
v -1.00000 -8.50000 -6.00000
v 1.00000 -8.50000 -6.00000
v 4.00000 -8.50000 -6.00000
v 1.00000 -8.50000 -8.00000
v 4.00000 -8.50000 -8.00000
v -4.00000 -8.50000 -7.00000
v -1.00000 -8.50000 -7.00000
v 1.00000 -8.50000 -7.00000
v 4.00000 -8.50000 -7.00000
v 1.00000 -9.50000 -6.00000
v 4.00000 -9.50000 -6.00000
v -4.00000 -9.50000 -6.00000
v -1.00000 -9.50000 -6.00000

vt 0.01563 0.14063
vt 0.01563 0.01563
vt 0.12500 0.01563
vt 0.12500 0.14063
vt 0.15625 0.14063
vt 0.15625 0.01563
vt 0.26563 0.01563
vt 0.26563 0.14063
vt 0.29688 0.14063
vt 0.29688 0.01563
vt 0.39063 0.01563
vt 0.39063 0.14063
vt 0.42188 0.14063
vt 0.42188 0.01563
vt 0.51563 0.01563
vt 0.51563 0.14063
vt 0.54688 0.10938
vt 0.54688 0.01563
vt 0.57813 0.01563
vt 0.57813 0.10938
vt 0.60938 0.10938
vt 0.60938 0.01563
vt 0.64063 0.01563
vt 0.64063 0.10938
vt 0.67188 0.10938
vt 0.67188 0.01563
vt 0.70313 0.01563
vt 0.70313 0.10938
vt 0.73438 0.10938
vt 0.73438 0.01563
vt 0.76563 0.01563
vt 0.76563 0.10938
vt 0.79688 0.09375
vt 0.79688 0.01563
vt 0.89063 0.01563
vt 0.89063 0.09375
vt 0.01563 0.23438
vt 0.01563 0.17188
vt 0.10938 0.17188
vt 0.10938 0.23438
vt 0.92188 0.07813
vt 0.92188 0.01563
vt 0.98438 0.01563
vt 0.98438 0.07813
vt 0.14063 0.23438
vt 0.14063 0.17188
vt 0.17188 0.17188
vt 0.17188 0.23438
vt 0.20313 0.23438
vt 0.20313 0.17188
vt 0.23438 0.17188
vt 0.23438 0.23438
vt 0.26563 0.23438
vt 0.26563 0.17188
vt 0.29688 0.17188
vt 0.29688 0.23438
vt 0.32813 0.23438
vt 0.32813 0.17188
vt 0.35938 0.17188
vt 0.35938 0.23438
vt 0.39063 0.23438
vt 0.39063 0.17188
vt 0.42188 0.17188
vt 0.42188 0.23438
vt 0.45313 0.23438
vt 0.45313 0.17188
vt 0.46875 0.17188
vt 0.46875 0.23438
vt 0.50000 0.23438
vt 0.50000 0.17188
vt 0.51563 0.17188
vt 0.51563 0.23438
vt 0.54688 0.23438
vt 0.54688 0.17188
vt 0.56250 0.17188
vt 0.56250 0.23438
vt 0.59375 0.23438
vt 0.59375 0.17188
vt 0.60938 0.17188
vt 0.60938 0.23438
vt 0.64063 0.21875
vt 0.64063 0.17188
vt 0.73438 0.17188
vt 0.73438 0.21875
vt 0.76563 0.21875
vt 0.76563 0.17188
vt 0.85938 0.17188
vt 0.85938 0.21875
vt 0.89063 0.21875
vt 0.89063 0.17188
vt 0.98438 0.17188
vt 0.98438 0.21875
vt 0.01563 0.31250
vt 0.01563 0.26563
vt 0.06250 0.26563
vt 0.06250 0.31250
vt 0.09375 0.31250
vt 0.09375 0.26563
vt 0.14063 0.26563
vt 0.14063 0.31250
vt 0.17188 0.31250
vt 0.17188 0.26563
vt 0.20313 0.26563
vt 0.20313 0.31250
vt 0.23438 0.31250
vt 0.23438 0.26563
vt 0.26563 0.26563
vt 0.26563 0.31250
vt 0.29688 0.31250
vt 0.29688 0.26563
vt 0.32813 0.26563
vt 0.32813 0.31250
vt 0.35938 0.31250
vt 0.35938 0.26563
vt 0.39063 0.26563
vt 0.39063 0.31250
vt 0.42188 0.31250
vt 0.42188 0.26563
vt 0.45313 0.26563
vt 0.45313 0.31250
vt 0.48438 0.31250
vt 0.48438 0.26563
vt 0.51563 0.26563
vt 0.51563 0.31250
vt 0.54688 0.31250
vt 0.54688 0.26563
vt 0.57813 0.26563
vt 0.57813 0.31250
vt 0.60938 0.31250
vt 0.60938 0.26563
vt 0.62500 0.26563
vt 0.62500 0.31250
vt 0.65625 0.29688
vt 0.65625 0.26563
vt 0.81250 0.26563
vt 0.81250 0.29688
vt 0.01563 0.37500
vt 0.01563 0.34375
vt 0.17188 0.34375
vt 0.17188 0.37500
vt 0.84375 0.29688
vt 0.84375 0.26563
vt 0.93750 0.26563
vt 0.93750 0.29688
vt 0.20313 0.37500
vt 0.20313 0.34375
vt 0.29688 0.34375
vt 0.29688 0.37500
vt 0.32813 0.37500
vt 0.32813 0.34375
vt 0.42188 0.34375
vt 0.42188 0.37500
vt 0.45313 0.37500
vt 0.45313 0.34375
vt 0.51563 0.34375
vt 0.51563 0.37500
vt 0.54688 0.37500
vt 0.54688 0.34375
vt 0.60938 0.34375
vt 0.60938 0.37500
vt 0.64063 0.37500
vt 0.64063 0.34375
vt 0.68750 0.34375
vt 0.68750 0.37500
vt 0.71875 0.37500
vt 0.71875 0.34375
vt 0.76563 0.34375
vt 0.76563 0.37500
vt 0.79688 0.37500
vt 0.79688 0.34375
vt 0.84375 0.34375
vt 0.84375 0.37500
vt 0.87500 0.37500
vt 0.87500 0.34375
vt 0.90625 0.34375
vt 0.90625 0.37500
vt 0.93750 0.37500
vt 0.93750 0.34375
vt 0.96875 0.34375
vt 0.96875 0.37500
vt 0.01563 0.43750
vt 0.01563 0.40625
vt 0.04688 0.40625
vt 0.04688 0.43750
vt 0.07813 0.43750
vt 0.07813 0.40625
vt 0.10938 0.40625
vt 0.10938 0.43750
vt 0.14063 0.43750
vt 0.14063 0.40625
vt 0.17188 0.40625
vt 0.17188 0.43750
vt 0.20313 0.43750
vt 0.20313 0.40625
vt 0.23438 0.40625
vt 0.23438 0.43750
vt 0.26563 0.43750
vt 0.26563 0.40625
vt 0.29688 0.40625
vt 0.29688 0.43750
vt 0.96875 0.29688
vt 0.96875 0.26563
vt 0.98438 0.26563
vt 0.98438 0.29688
vt 0.32813 0.43750
vt 0.32813 0.40625
vt 0.34375 0.40625
vt 0.34375 0.43750
vt 0.37500 0.43750
vt 0.37500 0.40625
vt 0.39063 0.40625
vt 0.39063 0.43750
vt 0.42188 0.43750
vt 0.42188 0.40625
vt 0.43750 0.40625
vt 0.43750 0.43750
vt 0.46875 0.43750
vt 0.46875 0.40625
vt 0.48438 0.40625
vt 0.48438 0.43750
vt 0.51563 0.43750
vt 0.51563 0.40625
vt 0.53125 0.40625
vt 0.53125 0.43750
vt 0.56250 0.43750
vt 0.56250 0.40625
vt 0.57813 0.40625
vt 0.57813 0.43750
vt 0.60938 0.43750
vt 0.60938 0.40625
vt 0.62500 0.40625
vt 0.62500 0.43750
vt 0.65625 0.43750
vt 0.65625 0.40625
vt 0.67188 0.40625
vt 0.67188 0.43750
vt 0.70313 0.43750
vt 0.70313 0.40625
vt 0.71875 0.40625
vt 0.71875 0.43750
vt 0.75000 0.43750
vt 0.75000 0.40625
vt 0.76563 0.40625
vt 0.76563 0.43750
vt 0.79688 0.43750
vt 0.79688 0.40625
vt 0.81250 0.40625
vt 0.81250 0.43750
vt 0.84375 0.43750
vt 0.84375 0.40625
vt 0.85938 0.40625
vt 0.85938 0.43750
vt 0.89063 0.43750
vt 0.89063 0.40625
vt 0.90625 0.40625
vt 0.90625 0.43750
vt 0.93750 0.43750
vt 0.93750 0.40625
vt 0.95313 0.40625
vt 0.95313 0.43750
vt 0.01563 0.50000
vt 0.01563 0.46875
vt 0.03125 0.46875
vt 0.03125 0.50000
vt 0.06250 0.48438
vt 0.06250 0.46875
vt 0.21875 0.46875
vt 0.21875 0.48438
vt 0.25000 0.48438
vt 0.25000 0.46875
vt 0.40625 0.46875
vt 0.40625 0.48438
vt 0.43750 0.48438
vt 0.43750 0.46875
vt 0.53125 0.46875
vt 0.53125 0.48438
vt 0.56250 0.48438
vt 0.56250 0.46875
vt 0.64063 0.46875
vt 0.64063 0.48438
vt 0.67188 0.48438
vt 0.67188 0.46875
vt 0.75000 0.46875
vt 0.75000 0.48438
vt 0.78125 0.48438
vt 0.78125 0.46875
vt 0.84375 0.46875
vt 0.84375 0.48438
vt 0.87500 0.48438
vt 0.87500 0.46875
vt 0.93750 0.46875
vt 0.93750 0.48438
vt 0.01563 0.54688
vt 0.01563 0.53125
vt 0.07813 0.53125
vt 0.07813 0.54688
vt 0.10938 0.54688
vt 0.10938 0.53125
vt 0.17188 0.53125
vt 0.17188 0.54688
vt 0.20313 0.54688
vt 0.20313 0.53125
vt 0.26563 0.53125
vt 0.26563 0.54688
vt 0.29688 0.54688
vt 0.29688 0.53125
vt 0.34375 0.53125
vt 0.34375 0.54688
vt 0.37500 0.54688
vt 0.37500 0.53125
vt 0.42188 0.53125
vt 0.42188 0.54688
vt 0.45313 0.54688
vt 0.45313 0.53125
vt 0.50000 0.53125
vt 0.50000 0.54688
vt 0.53125 0.54688
vt 0.53125 0.53125
vt 0.57813 0.53125
vt 0.57813 0.54688
vt 0.60938 0.54688
vt 0.60938 0.53125
vt 0.65625 0.53125
vt 0.65625 0.54688
vt 0.68750 0.54688
vt 0.68750 0.53125
vt 0.71875 0.53125
vt 0.71875 0.54688
vt 0.75000 0.54688
vt 0.75000 0.53125
vt 0.78125 0.53125
vt 0.78125 0.54688
vt 0.81250 0.54688
vt 0.81250 0.53125
vt 0.84375 0.53125
vt 0.84375 0.54688
vt 0.87500 0.54688
vt 0.87500 0.53125
vt 0.90625 0.53125
vt 0.90625 0.54688
vt 0.93750 0.54688
vt 0.93750 0.53125
vt 0.96875 0.53125
vt 0.96875 0.54688
vt 0.96875 0.48438
vt 0.96875 0.46875
vt 0.98438 0.46875
vt 0.98438 0.48438
vt 0.01563 0.59375
vt 0.01563 0.57813
vt 0.03125 0.57813
vt 0.03125 0.59375
vt 0.06250 0.59375
vt 0.06250 0.57813
vt 0.07813 0.57813
vt 0.07813 0.59375
vt 0.10938 0.59375
vt 0.10938 0.57813
vt 0.12500 0.57813
vt 0.12500 0.59375
vt 0.15625 0.59375
vt 0.15625 0.57813
vt 0.17188 0.57813
vt 0.17188 0.59375
vt 0.20313 0.59375
vt 0.20313 0.57813
vt 0.21875 0.57813
vt 0.21875 0.59375
vt 0.25000 0.59375
vt 0.25000 0.57813
vt 0.26563 0.57813
vt 0.26563 0.59375
vt 0.29688 0.59375
vt 0.29688 0.57813
vt 0.31250 0.57813
vt 0.31250 0.59375
vt 0.34375 0.59375
vt 0.34375 0.57813
vt 0.35938 0.57813
vt 0.35938 0.59375
vt 0.39063 0.59375
vt 0.39063 0.57813
vt 0.40625 0.57813
vt 0.40625 0.59375

g Chicken
usemtl Chicken_Material
f 1/9/2 2/10/2 3/11/2 4/12/2
f 5/41/2 6/42/2 7/43/2 8/44/2
f 9/105/2 10/106/2 11/107/2 12/108/2
f 13/101/2 14/102/2 15/103/2 16/104/2
f 17/69/2 18/70/2 19/71/2 20/72/2
f 21/77/2 22/78/2 23/79/2 24/80/2
f 22/145/2 25/146/2 26/147/2 19/148/2
f 27/193/2 28/194/2 29/195/2 30/196/2
f 31/213/2 32/214/2 33/215/2 34/216/2
f 35/209/2 36/210/2 37/211/2 38/212/2
f 39/309/2 40/310/2 41/311/2 42/312/2
f 43/305/2 44/306/2 45/307/2 46/308/2
f 47/13/1 48/14/1 49/15/1 50/16/1
f 51/117/1 52/118/1 53/119/1 54/120/1
f 55/113/1 56/114/1 57/115/1 58/116/1
f 59/61/1 47/62/1 60/63/1 61/64/1
f 62/45/1 63/46/1 50/47/1 64/48/1
f 65/149/1 59/150/1 64/151/1 66/152/1
f 67/173/1 68/174/1 69/175/1 70/176/1
f 71/177/1 72/178/1 73/179/1 74/180/1
f 75/189/1 76/190/1 77/191/1 78/192/1
f 79/241/1 80/242/1 81/243/1 82/244/1
f 83/261/1 84/262/1 85/263/1 86/264/1
f 87/357/1 88/358/1 89/359/1 90/360/1
f 91/353/1 92/354/1 93/355/1 94/356/1
f 95/365/1 96/366/1 97/367/1 98/368/1
f 99/377/1 100/378/1 101/379/1 102/380/1
f 103/381/1 104/382/1 105/383/1 106/384/1
f 107/369/1 108/370/1 109/371/1 110/372/1
f 4/1/3 3/2/3 111/3/3 65/4/3
f 16/89/3 15/90/3 56/91/3 55/92/3
f 112/97/3 19/98/3 14/99/3 13/100/3
f 8/65/3 7/66/3 18/67/3 17/68/3
f 58/129/3 57/130/3 113/131/3 114/132/3
f 19/133/3 26/134/3 48/135/3 113/136/3
f 30/157/3 29/158/3 68/159/3 67/160/3
f 61/165/3 115/166/3 76/167/3 75/168/3
f 115/185/3 60/186/3 72/187/3 71/188/3
f 34/217/3 33/218/3 80/219/3 79/220/3
f 38/201/3 37/202/3 84/203/3 83/204/3
f 20/265/3 112/266/3 114/267/3 111/268/3
f 42/277/3 41/278/3 104/279/3 103/280/3
f 46/297/3 45/298/3 96/299/3 95/300/3
f 90/325/3 89/326/3 100/327/3 99/328/3
f 94/329/3 93/330/3 108/331/3 107/332/3
f 66/5/4 116/6/4 2/7/4 1/8/4
f 54/85/4 53/86/4 10/87/4 9/88/4
f 12/109/4 11/110/4 22/111/4 117/112/4
f 118/121/4 119/122/4 52/123/4 51/124/4
f 24/73/4 23/74/4 6/75/4 5/76/4
f 119/137/4 49/138/4 25/139/4 22/140/4
f 70/153/4 69/154/4 28/155/4 27/156/4
f 78/161/4 77/162/4 120/163/4 62/164/4
f 74/197/4 73/198/4 63/199/4 120/200/4
f 82/225/4 81/226/4 32/227/4 31/228/4
f 86/221/4 85/222/4 36/223/4 35/224/4
f 116/269/4 118/270/4 117/271/4 21/272/4
f 110/281/4 109/282/4 40/283/4 39/284/4
f 102/289/4 101/290/4 44/291/4 43/292/4
f 98/341/4 97/342/4 88/343/4 87/344/4
f 106/337/4 105/338/4 92/339/4 91/340/4
f 12/21/5 51/22/5 54/23/5 9/24/5
f 16/29/5 55/30/5 58/31/5 13/32/5
f 20/81/5 3/82/5 2/83/5 21/84/5
f 121/49/5 122/50/5 68/51/5 29/52/5
f 30/57/5 67/58/5 70/59/5 27/60/5
f 28/53/5 69/54/5 123/55/5 124/56/5
f 61/125/5 75/126/5 78/127/5 62/128/5
f 4/141/5 121/142/5 124/143/5 1/144/5
f 125/233/5 95/234/5 98/235/5 87/236/5
f 90/237/5 99/238/5 102/239/5 126/240/5
f 127/229/5 103/230/5 106/231/5 91/232/5
f 94/245/5 107/246/5 110/247/5 128/248/5
f 122/273/5 65/274/5 66/275/5 123/276/5
f 8/301/5 17/302/5 24/303/5 5/304/5
f 42/313/5 129/314/5 130/315/5 39/316/5
f 131/317/5 125/318/5 126/319/5 132/320/5
f 133/321/5 127/322/5 128/323/5 134/324/5
f 46/345/5 131/346/5 80/347/5 33/348/5
f 32/373/5 81/374/5 132/375/5 43/376/5
f 129/361/5 133/362/5 84/363/5 37/364/5
f 36/349/5 85/350/5 134/351/5 130/352/5
f 34/33/6 26/34/6 25/35/6 35/36/6
f 52/25/6 11/26/6 10/27/6 53/28/6
f 56/17/6 15/18/6 14/19/6 57/20/6
f 48/37/6 79/38/6 86/39/6 49/40/6
f 135/93/6 41/94/6 40/95/6 136/96/6
f 137/169/6 45/170/6 44/171/6 138/172/6
f 72/181/6 60/182/6 63/183/6 73/184/6
f 96/205/6 137/206/6 88/207/6 97/208/6
f 100/249/6 89/250/6 138/251/6 101/252/6
f 104/253/6 135/254/6 92/255/6 105/256/6
f 108/257/6 93/258/6 136/259/6 109/260/6
f 18/293/6 7/294/6 6/295/6 23/296/6
f 82/285/6 31/286/6 38/287/6 83/288/6
f 76/333/6 71/334/6 74/335/6 77/336/6
