# This file was created with Minddesk Qubicle 3.0
# Get Qubicle at www.getqubicle.com

mtllib GraveDigger.mtl

vn 0.0 0.0 1.0
vn 0.0 0.0 -1.0
vn -1.0 0.0 0.0
vn 1.0 0.0 0.0
vn 0.0 1.0 0.0
vn 0.0 -1.0 0.0

v 2.50000 1.50000 -9.00000
v 2.50000 -3.50000 -9.00000
v -3.50000 -3.50000 -9.00000
v -3.50000 1.50000 -9.00000
v 1.50000 9.50000 -8.00000
v 1.50000 4.50000 -8.00000
v -2.50000 4.50000 -8.00000
v -2.50000 9.50000 -8.00000
v -1.50000 -5.50000 -8.00000
v -1.50000 -10.50000 -8.00000
v -3.50000 -10.50000 -8.00000
v -3.50000 -5.50000 -8.00000
v 2.50000 -5.50000 -8.00000
v 2.50000 -10.50000 -8.00000
v 0.50000 -10.50000 -8.00000
v 0.50000 -5.50000 -8.00000
v 0.50000 8.50000 -6.00000
v 0.50000 4.50000 -6.00000
v -1.50000 4.50000 -6.00000
v -1.50000 8.50000 -6.00000
v -3.50000 7.50000 -14.00000
v -3.50000 4.50000 -14.00000
v -4.50000 4.50000 -14.00000
v -4.50000 7.50000 -14.00000
v 2.50000 3.50000 -9.00000
v -4.50000 1.50000 -9.00000
v -4.50000 3.50000 -9.00000
v 2.50000 -3.50000 -8.00000
v -3.50000 -3.50000 -8.00000
v 3.50000 3.50000 -8.00000
v 3.50000 1.50000 -8.00000
v 2.50000 1.50000 -8.00000
v 2.50000 3.50000 -8.00000
v 3.50000 4.50000 -9.00000
v 3.50000 3.50000 -9.00000
v -4.50000 4.50000 -9.00000
v 4.50000 0.50000 -3.00000
v 4.50000 -0.50000 -3.00000
v 1.50000 -0.50000 -3.00000
v 1.50000 0.50000 -3.00000
v 0.50000 10.50000 -7.00000
v 0.50000 9.50000 -7.00000
v -1.50000 9.50000 -7.00000
v -1.50000 10.50000 -7.00000
v -3.50000 5.50000 -6.00000
v -3.50000 4.50000 -6.00000
v -4.50000 4.50000 -6.00000
v -4.50000 5.50000 -6.00000
v 3.50000 -3.50000 -2.00000
v 3.50000 -4.50000 -2.00000
v 2.50000 -4.50000 -2.00000
v 2.50000 -3.50000 -2.00000
v 3.50000 1.50000 -2.00000
v 3.50000 0.50000 -2.00000
v 2.50000 0.50000 -2.00000
v 2.50000 1.50000 -2.00000
v -3.50000 3.50000 -5.00000
v -3.50000 -3.50000 -5.00000
v 2.50000 -3.50000 -5.00000
v 2.50000 3.50000 -5.00000
v -2.50000 9.50000 -5.00000
v -2.50000 4.50000 -5.00000
v 1.50000 4.50000 -5.00000
v 1.50000 9.50000 -5.00000
v -1.50000 8.50000 -7.00000
v -1.50000 4.50000 -7.00000
v 0.50000 4.50000 -7.00000
v 0.50000 8.50000 -7.00000
v -3.50000 -5.50000 -6.00000
v -3.50000 -9.50000 -6.00000
v -1.50000 -9.50000 -6.00000
v -1.50000 -5.50000 -6.00000
v 0.50000 -5.50000 -6.00000
v 0.50000 -9.50000 -6.00000
v 2.50000 -9.50000 -6.00000
v 2.50000 -5.50000 -6.00000
v -4.50000 5.50000 -4.00000
v -4.50000 1.50000 -4.00000
v -3.50000 1.50000 -4.00000
v -3.50000 5.50000 -4.00000
v 2.50000 3.50000 -1.00000
v 2.50000 0.50000 -1.00000
v 3.50000 0.50000 -1.00000
v 3.50000 3.50000 -1.00000
v -3.50000 -3.50000 -6.00000
v 2.50000 -3.50000 -6.00000
v -3.50000 4.50000 -5.00000
v 3.50000 3.50000 -5.00000
v 3.50000 4.50000 -5.00000
v 1.50000 0.50000 0.00000
v 1.50000 -0.50000 0.00000
v 4.50000 -0.50000 0.00000
v 4.50000 0.50000 0.00000
v -1.50000 10.50000 -6.00000
v -1.50000 9.50000 -6.00000
v 0.50000 9.50000 -6.00000
v 0.50000 10.50000 -6.00000
v -3.50000 -9.50000 -5.00000
v -3.50000 -10.50000 -5.00000
v -1.50000 -10.50000 -5.00000
v -1.50000 -9.50000 -5.00000
v 0.50000 -9.50000 -5.00000
v 0.50000 -10.50000 -5.00000
v 2.50000 -10.50000 -5.00000
v 2.50000 -9.50000 -5.00000
v -4.50000 5.50000 -11.00000
v -4.50000 4.50000 -11.00000
v -3.50000 4.50000 -11.00000
v -3.50000 5.50000 -11.00000
v -4.50000 7.50000 -11.00000
v -4.50000 6.50000 -11.00000
v -3.50000 6.50000 -11.00000
v -3.50000 7.50000 -11.00000
v -4.50000 6.50000 -2.00000
v -4.50000 5.50000 -2.00000
v -3.50000 5.50000 -2.00000
v -3.50000 6.50000 -2.00000
v 2.50000 -3.50000 -1.00000
v 2.50000 -4.50000 -1.00000
v 3.50000 -4.50000 -1.00000
v 3.50000 -3.50000 -1.00000
v -3.50000 1.50000 -5.00000
v -3.50000 -9.50000 -8.00000
v -4.50000 4.50000 -4.00000
v 0.50000 -9.50000 -8.00000
v 2.50000 1.50000 -5.00000
v 2.50000 1.50000 -1.00000
v -4.50000 6.50000 -14.00000
v -4.50000 5.50000 -14.00000
v 2.50000 -9.50000 -8.00000
v -1.50000 -9.50000 -8.00000
v -3.50000 4.50000 -4.00000
v 3.50000 1.50000 -1.00000
v -3.50000 5.50000 -14.00000
v -3.50000 6.50000 -14.00000
v 3.50000 4.50000 -8.00000
v -4.50000 4.50000 -8.00000
v -2.50000 4.50000 -6.00000
v -2.50000 9.50000 -7.00000
v 1.50000 9.50000 -7.00000
v -2.50000 9.50000 -6.00000
v 1.50000 9.50000 -6.00000
v 1.50000 0.50000 -2.00000
v 4.50000 0.50000 -2.00000
v 1.50000 0.50000 -1.00000
v 4.50000 0.50000 -1.00000

vt 0.01563 0.15625
vt 0.01563 0.01563
vt 0.03125 0.01563
vt 0.03125 0.15625
vt 0.06250 0.12500
vt 0.06250 0.01563
vt 0.15625 0.01563
vt 0.15625 0.12500
vt 0.18750 0.10938
vt 0.18750 0.01563
vt 0.21875 0.01563
vt 0.21875 0.10938
vt 0.25000 0.10938
vt 0.25000 0.01563
vt 0.28125 0.01563
vt 0.28125 0.10938
vt 0.31250 0.10938
vt 0.31250 0.01563
vt 0.32813 0.01563
vt 0.32813 0.10938
vt 0.35938 0.09375
vt 0.35938 0.01563
vt 0.45313 0.01563
vt 0.45313 0.09375
vt 0.48438 0.09375
vt 0.48438 0.01563
vt 0.54688 0.01563
vt 0.54688 0.09375
vt 0.57813 0.09375
vt 0.57813 0.01563
vt 0.64063 0.01563
vt 0.64063 0.09375
vt 0.67188 0.09375
vt 0.67188 0.01563
vt 0.73438 0.01563
vt 0.73438 0.09375
vt 0.76563 0.09375
vt 0.76563 0.01563
vt 0.82813 0.01563
vt 0.82813 0.09375
vt 0.85938 0.09375
vt 0.85938 0.01563
vt 0.90625 0.01563
vt 0.90625 0.09375
vt 0.93750 0.09375
vt 0.93750 0.01563
vt 0.98438 0.01563
vt 0.98438 0.09375
vt 0.01563 0.26563
vt 0.01563 0.18750
vt 0.04688 0.18750
vt 0.04688 0.26563
vt 0.07813 0.26563
vt 0.07813 0.18750
vt 0.10938 0.18750
vt 0.10938 0.26563
vt 0.14063 0.26563
vt 0.14063 0.18750
vt 0.15625 0.18750
vt 0.15625 0.26563
vt 0.18750 0.26563
vt 0.18750 0.18750
vt 0.20313 0.18750
vt 0.20313 0.26563
vt 0.23438 0.25000
vt 0.23438 0.18750
vt 0.26563 0.18750
vt 0.26563 0.25000
vt 0.29688 0.25000
vt 0.29688 0.18750
vt 0.32813 0.18750
vt 0.32813 0.25000
vt 0.35938 0.25000
vt 0.35938 0.18750
vt 0.39063 0.18750
vt 0.39063 0.25000
vt 0.42188 0.25000
vt 0.42188 0.18750
vt 0.45313 0.18750
vt 0.45313 0.25000
vt 0.48438 0.25000
vt 0.48438 0.18750
vt 0.51563 0.18750
vt 0.51563 0.25000
vt 0.54688 0.25000
vt 0.54688 0.18750
vt 0.57813 0.18750
vt 0.57813 0.25000
vt 0.60938 0.25000
vt 0.60938 0.18750
vt 0.62500 0.18750
vt 0.62500 0.25000
vt 0.65625 0.25000
vt 0.65625 0.18750
vt 0.67188 0.18750
vt 0.67188 0.25000
vt 0.70313 0.25000
vt 0.70313 0.18750
vt 0.71875 0.18750
vt 0.71875 0.25000
vt 0.75000 0.25000
vt 0.75000 0.18750
vt 0.76563 0.18750
vt 0.76563 0.25000
vt 0.79688 0.23438
vt 0.79688 0.18750
vt 0.87500 0.18750
vt 0.87500 0.23438
vt 0.90625 0.23438
vt 0.90625 0.18750
vt 0.95313 0.18750
vt 0.95313 0.23438
vt 0.01563 0.34375
vt 0.01563 0.29688
vt 0.04688 0.29688
vt 0.04688 0.34375
vt 0.07813 0.34375
vt 0.07813 0.29688
vt 0.10938 0.29688
vt 0.10938 0.34375
vt 0.14063 0.34375
vt 0.14063 0.29688
vt 0.17188 0.29688
vt 0.17188 0.34375
vt 0.20313 0.34375
vt 0.20313 0.29688
vt 0.21875 0.29688
vt 0.21875 0.34375
vt 0.25000 0.34375
vt 0.25000 0.29688
vt 0.26563 0.29688
vt 0.26563 0.34375
vt 0.29688 0.34375
vt 0.29688 0.29688
vt 0.31250 0.29688
vt 0.31250 0.34375
vt 0.34375 0.34375
vt 0.34375 0.29688
vt 0.35938 0.29688
vt 0.35938 0.34375
vt 0.39063 0.34375
vt 0.39063 0.29688
vt 0.40625 0.29688
vt 0.40625 0.34375
vt 0.43750 0.32813
vt 0.43750 0.29688
vt 0.54688 0.29688
vt 0.54688 0.32813
vt 0.57813 0.32813
vt 0.57813 0.29688
vt 0.68750 0.29688
vt 0.68750 0.32813
vt 0.71875 0.32813
vt 0.71875 0.29688
vt 0.81250 0.29688
vt 0.81250 0.32813
vt 0.84375 0.32813
vt 0.84375 0.29688
vt 0.93750 0.29688
vt 0.93750 0.32813
vt 0.01563 0.40625
vt 0.01563 0.37500
vt 0.07813 0.37500
vt 0.07813 0.40625
vt 0.10938 0.40625
vt 0.10938 0.37500
vt 0.14063 0.37500
vt 0.14063 0.40625
vt 0.17188 0.40625
vt 0.17188 0.37500
vt 0.20313 0.37500
vt 0.20313 0.40625
vt 0.96875 0.32813
vt 0.96875 0.29688
vt 0.98438 0.29688
vt 0.98438 0.32813
vt 0.23438 0.40625
vt 0.23438 0.37500
vt 0.25000 0.37500
vt 0.25000 0.40625
vt 0.28125 0.40625
vt 0.28125 0.37500
vt 0.29688 0.37500
vt 0.29688 0.40625
vt 0.32813 0.39063
vt 0.32813 0.37500
vt 0.51563 0.37500
vt 0.51563 0.39063
vt 0.54688 0.39063
vt 0.54688 0.37500
vt 0.73438 0.37500
vt 0.73438 0.39063
vt 0.76563 0.39063
vt 0.76563 0.37500
vt 0.89063 0.37500
vt 0.89063 0.39063
vt 0.01563 0.45313
vt 0.01563 0.43750
vt 0.14063 0.43750
vt 0.14063 0.45313
vt 0.17188 0.45313
vt 0.17188 0.43750
vt 0.28125 0.43750
vt 0.28125 0.45313
vt 0.31250 0.45313
vt 0.31250 0.43750
vt 0.40625 0.43750
vt 0.40625 0.45313
vt 0.43750 0.45313
vt 0.43750 0.43750
vt 0.53125 0.43750
vt 0.53125 0.45313
vt 0.92188 0.39063
vt 0.92188 0.37500
vt 0.98438 0.37500
vt 0.98438 0.39063
vt 0.56250 0.45313
vt 0.56250 0.43750
vt 0.62500 0.43750
vt 0.62500 0.45313
vt 0.65625 0.45313
vt 0.65625 0.43750
vt 0.71875 0.43750
vt 0.71875 0.45313
vt 0.75000 0.45313
vt 0.75000 0.43750
vt 0.79688 0.43750
vt 0.79688 0.45313
vt 0.82813 0.45313
vt 0.82813 0.43750
vt 0.87500 0.43750
vt 0.87500 0.45313
vt 0.90625 0.45313
vt 0.90625 0.43750
vt 0.95313 0.43750
vt 0.95313 0.45313
vt 0.01563 0.50000
vt 0.01563 0.48438
vt 0.06250 0.48438
vt 0.06250 0.50000
vt 0.09375 0.50000
vt 0.09375 0.48438
vt 0.14063 0.48438
vt 0.14063 0.50000
vt 0.17188 0.50000
vt 0.17188 0.48438
vt 0.21875 0.48438
vt 0.21875 0.50000
vt 0.25000 0.50000
vt 0.25000 0.48438
vt 0.29688 0.48438
vt 0.29688 0.50000
vt 0.32813 0.50000
vt 0.32813 0.48438
vt 0.37500 0.48438
vt 0.37500 0.50000
vt 0.40625 0.50000
vt 0.40625 0.48438
vt 0.45313 0.48438
vt 0.45313 0.50000
vt 0.48438 0.50000
vt 0.48438 0.48438
vt 0.53125 0.48438
vt 0.53125 0.50000
vt 0.56250 0.50000
vt 0.56250 0.48438
vt 0.60938 0.48438
vt 0.60938 0.50000
vt 0.64063 0.50000
vt 0.64063 0.48438
vt 0.68750 0.48438
vt 0.68750 0.50000
vt 0.71875 0.50000
vt 0.71875 0.48438
vt 0.76563 0.48438
vt 0.76563 0.50000
vt 0.79688 0.50000
vt 0.79688 0.48438
vt 0.84375 0.48438
vt 0.84375 0.50000
vt 0.87500 0.50000
vt 0.87500 0.48438
vt 0.90625 0.48438
vt 0.90625 0.50000
vt 0.93750 0.50000
vt 0.93750 0.48438
vt 0.96875 0.48438
vt 0.96875 0.50000
vt 0.01563 0.54688
vt 0.01563 0.53125
vt 0.04688 0.53125
vt 0.04688 0.54688
vt 0.07813 0.54688
vt 0.07813 0.53125
vt 0.10938 0.53125
vt 0.10938 0.54688
vt 0.14063 0.54688
vt 0.14063 0.53125
vt 0.17188 0.53125
vt 0.17188 0.54688
vt 0.20313 0.54688
vt 0.20313 0.53125
vt 0.23438 0.53125
vt 0.23438 0.54688
vt 0.26563 0.54688
vt 0.26563 0.53125
vt 0.29688 0.53125
vt 0.29688 0.54688
vt 0.32813 0.54688
vt 0.32813 0.53125
vt 0.35938 0.53125
vt 0.35938 0.54688
vt 0.39063 0.54688
vt 0.39063 0.53125
vt 0.42188 0.53125
vt 0.42188 0.54688
vt 0.45313 0.54688
vt 0.45313 0.53125
vt 0.48438 0.53125
vt 0.48438 0.54688
vt 0.51563 0.54688
vt 0.51563 0.53125
vt 0.54688 0.53125
vt 0.54688 0.54688
vt 0.57813 0.54688
vt 0.57813 0.53125
vt 0.59375 0.53125
vt 0.59375 0.54688
vt 0.62500 0.54688
vt 0.62500 0.53125
vt 0.64063 0.53125
vt 0.64063 0.54688
vt 0.67188 0.54688
vt 0.67188 0.53125
vt 0.68750 0.53125
vt 0.68750 0.54688
vt 0.71875 0.54688
vt 0.71875 0.53125
vt 0.73438 0.53125
vt 0.73438 0.54688
vt 0.76563 0.54688
vt 0.76563 0.53125
vt 0.78125 0.53125
vt 0.78125 0.54688
vt 0.81250 0.54688
vt 0.81250 0.53125
vt 0.82813 0.53125
vt 0.82813 0.54688
vt 0.85938 0.54688
vt 0.85938 0.53125
vt 0.87500 0.53125
vt 0.87500 0.54688
vt 0.90625 0.54688
vt 0.90625 0.53125
vt 0.92188 0.53125
vt 0.92188 0.54688
vt 0.95313 0.54688
vt 0.95313 0.53125
vt 0.96875 0.53125
vt 0.96875 0.54688
vt 0.01563 0.59375
vt 0.01563 0.57813
vt 0.03125 0.57813
vt 0.03125 0.59375
vt 0.06250 0.59375
vt 0.06250 0.57813
vt 0.07813 0.57813
vt 0.07813 0.59375
vt 0.10938 0.59375
vt 0.10938 0.57813
vt 0.12500 0.57813
vt 0.12500 0.59375
vt 0.15625 0.59375
vt 0.15625 0.57813
vt 0.17188 0.57813
vt 0.17188 0.59375
vt 0.20313 0.59375
vt 0.20313 0.57813
vt 0.21875 0.57813
vt 0.21875 0.59375
vt 0.25000 0.59375
vt 0.25000 0.57813
vt 0.26563 0.57813
vt 0.26563 0.59375
vt 0.29688 0.59375
vt 0.29688 0.57813
vt 0.31250 0.57813
vt 0.31250 0.59375
vt 0.34375 0.59375
vt 0.34375 0.57813
vt 0.35938 0.57813
vt 0.35938 0.59375
vt 0.39063 0.59375
vt 0.39063 0.57813
vt 0.40625 0.57813
vt 0.40625 0.59375
vt 0.43750 0.59375
vt 0.43750 0.57813
vt 0.45313 0.57813
vt 0.45313 0.59375
vt 0.48438 0.59375
vt 0.48438 0.57813
vt 0.50000 0.57813
vt 0.50000 0.59375
vt 0.53125 0.59375
vt 0.53125 0.57813
vt 0.54688 0.57813
vt 0.54688 0.59375

g Wizard_1
usemtl GraveDigger_Material
f 1/21/2 2/22/2 3/23/2 4/24/2
f 5/25/2 6/26/2 7/27/2 8/28/2
f 9/49/2 10/50/2 11/51/2 12/52/2
f 13/53/2 14/54/2 15/55/2 16/56/2
f 17/81/2 18/82/2 19/83/2 20/84/2
f 21/137/2 22/138/2 23/139/2 24/140/2
f 25/149/2 1/150/2 26/151/2 27/152/2
f 28/157/2 13/158/2 12/159/2 29/160/2
f 30/181/2 31/182/2 32/183/2 33/184/2
f 34/197/2 35/198/2 27/199/2 36/200/2
f 37/233/2 38/234/2 39/235/2 40/236/2
f 41/301/2 42/302/2 43/303/2 44/304/2
f 45/357/2 46/358/2 47/359/2 48/360/2
f 49/393/2 50/394/2 51/395/2 52/396/2
f 53/389/2 54/390/2 55/391/2 56/392/2
f 57/5/1 58/6/1 59/7/1 60/8/1
f 61/37/1 62/38/1 63/39/1 64/40/1
f 65/65/1 66/66/1 67/67/1 68/68/1
f 69/77/1 70/78/1 71/79/1 72/80/1
f 73/73/1 74/74/1 75/75/1 76/76/1
f 77/97/1 78/98/1 79/99/1 80/100/1
f 81/133/1 82/134/1 83/135/1 84/136/1
f 85/153/1 69/154/1 76/155/1 86/156/1
f 87/201/1 57/202/1 88/203/1 89/204/1
f 90/237/1 91/238/1 92/239/1 93/240/1
f 94/317/1 95/318/1 96/319/1 97/320/1
f 98/321/1 99/322/1 100/323/1 101/324/1
f 102/309/1 103/310/1 104/311/1 105/312/1
f 106/397/1 107/398/1 108/399/1 109/400/1
f 110/369/1 111/370/1 112/371/1 113/372/1
f 114/365/1 115/366/1 116/367/1 117/368/1
f 118/361/1 119/362/1 120/363/1 121/364/1
f 4/33/3 3/34/3 58/35/3 122/36/3
f 8/41/3 7/42/3 62/43/3 61/44/3
f 29/9/3 123/10/3 70/11/3 85/12/3
f 36/105/3 26/106/3 78/107/3 124/108/3
f 16/85/3 125/86/3 74/87/3 73/88/3
f 68/101/3 67/102/3 18/103/3 17/104/3
f 60/161/3 126/162/3 127/163/3 81/164/3
f 128/185/3 129/186/3 115/187/3 114/188/3
f 129/225/3 23/226/3 107/227/3 106/228/3
f 24/229/3 128/230/3 111/231/3 110/232/3
f 123/277/3 11/278/3 99/279/3 98/280/3
f 125/273/3 15/274/3 103/275/3 102/276/3
f 40/269/3 39/270/3 91/271/3 90/272/3
f 48/313/3 47/314/3 124/315/3 77/316/3
f 44/373/3 43/374/3 95/375/3 94/376/3
f 52/377/3 51/378/3 119/379/3 118/380/3
f 56/381/3 55/382/3 82/383/3 127/384/3
f 126/29/4 59/30/4 2/31/4 1/32/4
f 64/45/4 63/46/4 6/47/4 5/48/4
f 86/13/4 75/14/4 130/15/4 28/16/4
f 72/69/4 71/70/4 131/71/4 9/72/4
f 20/93/4 19/94/4 66/95/4 65/96/4
f 132/129/4 79/130/4 122/131/4 87/132/4
f 84/145/4 133/146/4 31/147/4 30/148/4
f 33/173/4 32/174/4 1/175/4 25/176/4
f 117/189/4 116/190/4 134/191/4 135/192/4
f 109/249/4 108/250/4 22/251/4 134/252/4
f 113/245/4 112/246/4 135/247/4 21/248/4
f 89/217/4 88/218/4 35/219/4 34/220/4
f 101/241/4 100/242/4 10/243/4 131/244/4
f 105/257/4 104/258/4 14/259/4 130/260/4
f 93/261/4 92/262/4 38/263/4 37/264/4
f 80/285/4 132/286/4 46/287/4 45/288/4
f 97/401/4 96/402/4 42/403/4 41/404/4
f 121/405/4 120/406/4 50/407/4 49/408/4
f 133/385/4 83/386/4 54/387/4 53/388/4
f 111/1/5 114/2/5 117/3/5 112/4/5
f 6/117/5 63/118/5 89/119/5 136/120/5
f 24/141/5 110/142/5 113/143/5 21/144/5
f 60/89/5 81/90/5 84/91/5 88/92/5
f 137/169/5 47/170/5 138/171/5 7/172/5
f 36/193/5 137/194/5 136/195/5 34/196/5
f 8/213/5 139/214/5 140/215/5 5/216/5
f 141/221/5 61/222/5 64/223/5 142/224/5
f 40/265/5 143/266/5 144/267/5 37/268/5
f 145/253/5 90/254/5 93/255/5 146/256/5
f 66/297/5 19/298/5 18/299/5 67/300/5
f 44/305/5 94/306/5 97/307/5 41/308/5
f 70/289/5 98/290/5 101/291/5 71/292/5
f 74/281/5 102/282/5 105/283/5 75/284/5
f 139/345/5 141/346/5 95/347/5 43/348/5
f 42/341/5 96/342/5 142/343/5 140/344/5
f 46/353/5 87/354/5 62/355/5 138/356/5
f 143/349/5 145/350/5 82/351/5 55/352/5
f 52/337/5 118/338/5 121/339/5 49/340/5
f 54/325/5 83/326/5 146/327/5 144/328/5
f 48/61/6 106/62/6 109/63/6 45/64/6
f 78/57/6 26/58/6 4/59/6 79/60/6
f 56/17/6 32/18/6 31/19/6 53/20/6
f 91/109/6 39/110/6 38/111/6 92/112/6
f 99/121/6 11/122/6 10/123/6 100/124/6
f 103/113/6 15/114/6 14/115/6 104/116/6
f 107/125/6 23/126/6 22/127/6 108/128/6
f 72/165/6 9/166/6 16/167/6 73/168/6
f 115/177/6 77/178/6 80/179/6 116/180/6
f 29/205/6 3/206/6 2/207/6 28/208/6
f 58/209/6 85/210/6 86/211/6 59/212/6
f 20/293/6 65/294/6 68/295/6 17/296/6
f 33/329/6 25/330/6 35/331/6 30/332/6
f 119/333/6 51/334/6 50/335/6 120/336/6
