# This file was created with Minddesk Qubicle 3.0
# Get Qubicle at www.getqubicle.com

mtllib Wizard.mtl

vn 0.0 0.0 1.0
vn 0.0 0.0 -1.0
vn -1.0 0.0 0.0
vn 1.0 0.0 0.0
vn 0.0 1.0 0.0
vn 0.0 -1.0 0.0

v 1.50000 0.50000 -1.00000
v 1.50000 -10.50000 -1.00000
v -0.50000 -10.50000 -1.00000
v -0.50000 0.50000 -1.00000
v 2.50000 -2.50000 -7.00000
v 2.50000 -8.50000 -7.00000
v -1.50000 -8.50000 -7.00000
v -1.50000 -2.50000 -7.00000
v -4.50000 -2.50000 -7.00000
v -4.50000 -10.50000 -7.00000
v -5.50000 -10.50000 -7.00000
v -5.50000 -2.50000 -7.00000
v -4.50000 6.50000 -7.00000
v -4.50000 -1.50000 -7.00000
v -5.50000 -1.50000 -7.00000
v -5.50000 6.50000 -7.00000
v 3.50000 8.50000 -5.00000
v 3.50000 5.50000 -5.00000
v -1.50000 5.50000 -5.00000
v -1.50000 8.50000 -5.00000
v 2.50000 4.50000 -2.00000
v 2.50000 0.50000 -2.00000
v -0.50000 0.50000 -2.00000
v -0.50000 4.50000 -2.00000
v 3.50000 0.50000 -6.00000
v 3.50000 -2.50000 -6.00000
v 2.50000 -2.50000 -6.00000
v 2.50000 0.50000 -6.00000
v -1.50000 -1.50000 -5.00000
v -1.50000 -5.50000 -5.00000
v -2.50000 -5.50000 -5.00000
v -2.50000 -1.50000 -5.00000
v 3.50000 -8.50000 -7.00000
v 3.50000 -10.50000 -7.00000
v -1.50000 -10.50000 -7.00000
v 3.50000 2.50000 -6.00000
v -2.50000 0.50000 -6.00000
v -2.50000 2.50000 -6.00000
v 5.50000 10.50000 -5.00000
v 5.50000 8.50000 -5.00000
v -1.50000 10.50000 -5.00000
v 2.50000 0.50000 -7.00000
v 2.50000 -1.50000 -7.00000
v -1.50000 -1.50000 -7.00000
v -1.50000 0.50000 -7.00000
v 3.50000 4.50000 -6.00000
v -0.50000 2.50000 -6.00000
v -0.50000 4.50000 -6.00000
v -1.50000 0.50000 -6.00000
v -1.50000 -1.50000 -6.00000
v -2.50000 -1.50000 -6.00000
v -0.50000 4.50000 -5.00000
v -0.50000 2.50000 -5.00000
v -1.50000 2.50000 -5.00000
v -1.50000 4.50000 -5.00000
v 4.50000 5.50000 -7.00000
v 4.50000 4.50000 -7.00000
v -2.50000 4.50000 -7.00000
v -2.50000 5.50000 -7.00000
v -3.50000 7.50000 -7.00000
v -3.50000 6.50000 -7.00000
v -5.50000 7.50000 -7.00000
v 5.50000 7.50000 -5.00000
v 4.50000 7.50000 -5.00000
v 4.50000 8.50000 -5.00000
v -2.50000 -1.50000 -3.00000
v -2.50000 -2.50000 -3.00000
v -3.50000 -2.50000 -3.00000
v -3.50000 -1.50000 -3.00000
v -1.50000 -1.50000 -1.00000
v -1.50000 -2.50000 -1.00000
v -2.50000 -2.50000 -1.00000
v -2.50000 -1.50000 -1.00000
v -0.50000 0.50000 -6.00000
v -0.50000 -10.50000 -6.00000
v 1.50000 -10.50000 -6.00000
v 1.50000 0.50000 -6.00000
v -1.50000 -2.50000 0.00000
v -1.50000 -8.50000 0.00000
v 2.50000 -8.50000 0.00000
v 2.50000 -2.50000 0.00000
v -5.50000 -2.50000 -6.00000
v -5.50000 -10.50000 -6.00000
v -4.50000 -10.50000 -6.00000
v -4.50000 -2.50000 -6.00000
v -5.50000 6.50000 -6.00000
v -5.50000 -1.50000 -6.00000
v -4.50000 -1.50000 -6.00000
v -4.50000 6.50000 -6.00000
v -1.50000 8.50000 -2.00000
v -1.50000 5.50000 -2.00000
v 3.50000 5.50000 -2.00000
v 3.50000 8.50000 -2.00000
v -0.50000 0.50000 -5.00000
v 2.50000 0.50000 -5.00000
v 2.50000 4.50000 -5.00000
v -2.50000 -1.50000 -2.00000
v -2.50000 -5.50000 -2.00000
v -1.50000 -5.50000 -2.00000
v -1.50000 -1.50000 -2.00000
v 2.50000 0.50000 -1.00000
v 2.50000 -2.50000 -1.00000
v 3.50000 -2.50000 -1.00000
v 3.50000 0.50000 -1.00000
v -1.50000 10.50000 -2.00000
v 5.50000 8.50000 -2.00000
v 5.50000 10.50000 -2.00000
v -2.50000 2.50000 -1.00000
v -2.50000 0.50000 -1.00000
v 3.50000 2.50000 -1.00000
v -1.50000 -10.50000 0.00000
v 3.50000 -10.50000 0.00000
v 3.50000 -8.50000 0.00000
v -0.50000 4.50000 -1.00000
v -0.50000 2.50000 -1.00000
v 3.50000 4.50000 -1.00000
v -1.50000 0.50000 0.00000
v -1.50000 -1.50000 0.00000
v 2.50000 -1.50000 0.00000
v 2.50000 0.50000 0.00000
v -1.50000 4.50000 -2.00000
v -1.50000 2.50000 -2.00000
v -0.50000 2.50000 -2.00000
v -1.50000 0.50000 -1.00000
v -3.50000 -1.50000 0.00000
v -3.50000 -2.50000 0.00000
v -2.50000 5.50000 0.00000
v -2.50000 4.50000 0.00000
v 4.50000 4.50000 0.00000
v 4.50000 5.50000 0.00000
v -1.50000 -2.50000 -6.00000
v -5.50000 7.50000 -6.00000
v -3.50000 6.50000 -6.00000
v -3.50000 7.50000 -6.00000
v 4.50000 8.50000 -2.00000
v 4.50000 7.50000 -2.00000
v 5.50000 7.50000 -2.00000
v -1.50000 -5.50000 -7.00000
v -1.50000 -5.50000 0.00000
v -2.50000 -2.50000 -5.00000
v -2.50000 -2.50000 -2.00000
v -1.50000 -2.50000 -5.00000
v -1.50000 -2.50000 -2.00000
v -2.50000 2.50000 -5.00000
v -2.50000 2.50000 -2.00000
v -2.50000 5.50000 -5.00000
v -2.50000 5.50000 -2.00000
v 1.50000 0.50000 -5.00000
v 1.50000 0.50000 -2.00000
v 4.50000 5.50000 -2.00000
v 4.50000 5.50000 -5.00000
v -3.50000 -1.50000 -1.00000
v 3.50000 -10.50000 -6.00000
v 3.50000 -10.50000 -1.00000
v -1.50000 -10.50000 -1.00000
v -1.50000 -10.50000 -6.00000
v 4.50000 4.50000 -6.00000
v 4.50000 4.50000 -1.00000
v -2.50000 4.50000 -2.00000
v -2.50000 4.50000 -5.00000
v -3.50000 -2.50000 -1.00000
v -2.50000 4.50000 -6.00000
v -2.50000 4.50000 -1.00000

vt 0.01563 0.29688
vt 0.01563 0.01563
vt 0.03125 0.01563
vt 0.03125 0.29688
vt 0.06250 0.18750
vt 0.06250 0.01563
vt 0.14063 0.01563
vt 0.14063 0.18750
vt 0.17188 0.18750
vt 0.17188 0.01563
vt 0.25000 0.01563
vt 0.25000 0.18750
vt 0.28125 0.18750
vt 0.28125 0.01563
vt 0.31250 0.01563
vt 0.31250 0.18750
vt 0.34375 0.18750
vt 0.34375 0.01563
vt 0.37500 0.01563
vt 0.37500 0.18750
vt 0.40625 0.14063
vt 0.40625 0.01563
vt 0.42188 0.01563
vt 0.42188 0.14063
vt 0.45313 0.14063
vt 0.45313 0.01563
vt 0.46875 0.01563
vt 0.46875 0.14063
vt 0.50000 0.14063
vt 0.50000 0.01563
vt 0.51563 0.01563
vt 0.51563 0.14063
vt 0.54688 0.14063
vt 0.54688 0.01563
vt 0.56250 0.01563
vt 0.56250 0.14063
vt 0.59375 0.14063
vt 0.59375 0.01563
vt 0.60938 0.01563
vt 0.60938 0.14063
vt 0.64063 0.14063
vt 0.64063 0.01563
vt 0.65625 0.01563
vt 0.65625 0.14063
vt 0.68750 0.12500
vt 0.68750 0.01563
vt 0.76563 0.01563
vt 0.76563 0.12500
vt 0.79688 0.12500
vt 0.79688 0.01563
vt 0.81250 0.01563
vt 0.81250 0.12500
vt 0.84375 0.10938
vt 0.84375 0.01563
vt 0.95313 0.01563
vt 0.95313 0.10938
vt 0.01563 0.42188
vt 0.01563 0.32813
vt 0.07813 0.32813
vt 0.07813 0.42188
vt 0.10938 0.42188
vt 0.10938 0.32813
vt 0.17188 0.32813
vt 0.17188 0.42188
vt 0.06250 0.29688
vt 0.06250 0.21875
vt 0.17188 0.21875
vt 0.17188 0.29688
vt 0.20313 0.29688
vt 0.20313 0.21875
vt 0.25000 0.21875
vt 0.25000 0.29688
vt 0.28125 0.29688
vt 0.28125 0.21875
vt 0.31250 0.21875
vt 0.31250 0.29688
vt 0.34375 0.29688
vt 0.34375 0.21875
vt 0.35938 0.21875
vt 0.35938 0.29688
vt 0.39063 0.29688
vt 0.39063 0.21875
vt 0.40625 0.21875
vt 0.40625 0.29688
vt 0.43750 0.29688
vt 0.43750 0.21875
vt 0.45313 0.21875
vt 0.45313 0.29688
vt 0.48438 0.28125
vt 0.48438 0.21875
vt 0.56250 0.21875
vt 0.56250 0.28125
vt 0.59375 0.28125
vt 0.59375 0.21875
vt 0.64063 0.21875
vt 0.64063 0.28125
vt 0.67188 0.28125
vt 0.67188 0.21875
vt 0.71875 0.21875
vt 0.71875 0.28125
vt 0.75000 0.28125
vt 0.75000 0.21875
vt 0.79688 0.21875
vt 0.79688 0.28125
vt 0.82813 0.28125
vt 0.82813 0.21875
vt 0.87500 0.21875
vt 0.87500 0.28125
vt 0.90625 0.28125
vt 0.90625 0.21875
vt 0.92188 0.21875
vt 0.92188 0.28125
vt 0.95313 0.28125
vt 0.95313 0.21875
vt 0.96875 0.21875
vt 0.96875 0.28125
vt 0.20313 0.37500
vt 0.20313 0.32813
vt 0.31250 0.32813
vt 0.31250 0.37500
vt 0.34375 0.37500
vt 0.34375 0.32813
vt 0.42188 0.32813
vt 0.42188 0.37500
vt 0.45313 0.37500
vt 0.45313 0.32813
vt 0.53125 0.32813
vt 0.53125 0.37500
vt 0.56250 0.37500
vt 0.56250 0.32813
vt 0.60938 0.32813
vt 0.60938 0.37500
vt 0.64063 0.37500
vt 0.64063 0.32813
vt 0.68750 0.32813
vt 0.68750 0.37500
vt 0.71875 0.37500
vt 0.71875 0.32813
vt 0.76563 0.32813
vt 0.76563 0.37500
vt 0.79688 0.37500
vt 0.79688 0.32813
vt 0.84375 0.32813
vt 0.84375 0.37500
vt 0.87500 0.37500
vt 0.87500 0.32813
vt 0.90625 0.32813
vt 0.90625 0.37500
vt 0.93750 0.37500
vt 0.93750 0.32813
vt 0.96875 0.32813
vt 0.96875 0.37500
vt 0.01563 0.50000
vt 0.01563 0.45313
vt 0.03125 0.45313
vt 0.03125 0.50000
vt 0.06250 0.50000
vt 0.06250 0.45313
vt 0.07813 0.45313
vt 0.07813 0.50000
vt 0.10938 0.50000
vt 0.10938 0.45313
vt 0.12500 0.45313
vt 0.12500 0.50000
vt 0.15625 0.50000
vt 0.15625 0.45313
vt 0.17188 0.45313
vt 0.17188 0.50000
vt 0.20313 0.50000
vt 0.20313 0.45313
vt 0.21875 0.45313
vt 0.21875 0.50000
vt 0.25000 0.50000
vt 0.25000 0.45313
vt 0.26563 0.45313
vt 0.26563 0.50000
vt 0.29688 0.50000
vt 0.29688 0.45313
vt 0.31250 0.45313
vt 0.31250 0.50000
vt 0.34375 0.50000
vt 0.34375 0.45313
vt 0.35938 0.45313
vt 0.35938 0.50000
vt 0.39063 0.50000
vt 0.39063 0.45313
vt 0.40625 0.45313
vt 0.40625 0.50000
vt 0.43750 0.50000
vt 0.43750 0.45313
vt 0.45313 0.45313
vt 0.45313 0.50000
vt 0.48438 0.50000
vt 0.48438 0.45313
vt 0.50000 0.45313
vt 0.50000 0.50000
vt 0.53125 0.50000
vt 0.53125 0.45313
vt 0.54688 0.45313
vt 0.54688 0.50000
vt 0.57813 0.48438
vt 0.57813 0.45313
vt 0.68750 0.45313
vt 0.68750 0.48438
vt 0.71875 0.48438
vt 0.71875 0.45313
vt 0.82813 0.45313
vt 0.82813 0.48438
vt 0.85938 0.48438
vt 0.85938 0.45313
vt 0.96875 0.45313
vt 0.96875 0.48438
vt 0.01563 0.56250
vt 0.01563 0.53125
vt 0.12500 0.53125
vt 0.12500 0.56250
vt 0.15625 0.56250
vt 0.15625 0.53125
vt 0.26563 0.53125
vt 0.26563 0.56250
vt 0.29688 0.56250
vt 0.29688 0.53125
vt 0.39063 0.53125
vt 0.39063 0.56250
vt 0.42188 0.56250
vt 0.42188 0.53125
vt 0.51563 0.53125
vt 0.51563 0.56250
vt 0.54688 0.56250
vt 0.54688 0.53125
vt 0.62500 0.53125
vt 0.62500 0.56250
vt 0.65625 0.56250
vt 0.65625 0.53125
vt 0.73438 0.53125
vt 0.73438 0.56250
vt 0.76563 0.56250
vt 0.76563 0.53125
vt 0.82813 0.53125
vt 0.82813 0.56250
vt 0.85938 0.56250
vt 0.85938 0.53125
vt 0.92188 0.53125
vt 0.92188 0.56250
vt 0.01563 0.62500
vt 0.01563 0.59375
vt 0.07813 0.59375
vt 0.07813 0.62500
vt 0.10938 0.62500
vt 0.10938 0.59375
vt 0.17188 0.59375
vt 0.17188 0.62500
vt 0.20313 0.62500
vt 0.20313 0.59375
vt 0.25000 0.59375
vt 0.25000 0.62500
vt 0.95313 0.56250
vt 0.95313 0.53125
vt 0.96875 0.53125
vt 0.96875 0.56250
vt 0.28125 0.62500
vt 0.28125 0.59375
vt 0.29688 0.59375
vt 0.29688 0.62500
vt 0.32813 0.62500
vt 0.32813 0.59375
vt 0.34375 0.59375
vt 0.34375 0.62500
vt 0.37500 0.62500
vt 0.37500 0.59375
vt 0.39063 0.59375
vt 0.39063 0.62500
vt 0.42188 0.62500
vt 0.42188 0.59375
vt 0.43750 0.59375
vt 0.43750 0.62500
vt 0.46875 0.62500
vt 0.46875 0.59375
vt 0.48438 0.59375
vt 0.48438 0.62500
vt 0.51563 0.62500
vt 0.51563 0.59375
vt 0.53125 0.59375
vt 0.53125 0.62500
vt 0.56250 0.62500
vt 0.56250 0.59375
vt 0.57813 0.59375
vt 0.57813 0.62500
vt 0.60938 0.62500
vt 0.60938 0.59375
vt 0.62500 0.59375
vt 0.62500 0.62500
vt 0.65625 0.62500
vt 0.65625 0.59375
vt 0.67188 0.59375
vt 0.67188 0.62500
vt 0.40625 0.18750
vt 0.40625 0.17188
vt 0.53125 0.17188
vt 0.53125 0.18750
vt 0.56250 0.18750
vt 0.56250 0.17188
vt 0.67188 0.17188
vt 0.67188 0.18750
vt 0.70313 0.18750
vt 0.70313 0.17188
vt 0.81250 0.17188
vt 0.81250 0.18750
vt 0.84375 0.18750
vt 0.84375 0.17188
vt 0.95313 0.17188
vt 0.95313 0.18750
vt 0.20313 0.42188
vt 0.20313 0.40625
vt 0.31250 0.40625
vt 0.31250 0.42188
vt 0.34375 0.42188
vt 0.34375 0.40625
vt 0.45313 0.40625
vt 0.45313 0.42188
vt 0.48438 0.42188
vt 0.48438 0.40625
vt 0.59375 0.40625
vt 0.59375 0.42188
vt 0.62500 0.42188
vt 0.62500 0.40625
vt 0.71875 0.40625
vt 0.71875 0.42188
vt 0.75000 0.42188
vt 0.75000 0.40625
vt 0.82813 0.40625
vt 0.82813 0.42188
vt 0.85938 0.42188
vt 0.85938 0.40625
vt 0.93750 0.40625
vt 0.93750 0.42188
vt 0.70313 0.60938
vt 0.70313 0.59375
vt 0.76563 0.59375
vt 0.76563 0.60938
vt 0.79688 0.60938
vt 0.79688 0.59375
vt 0.85938 0.59375
vt 0.85938 0.60938
vt 0.89063 0.60938
vt 0.89063 0.59375
vt 0.95313 0.59375
vt 0.95313 0.60938
vt 0.01563 0.67188
vt 0.01563 0.65625
vt 0.06250 0.65625
vt 0.06250 0.67188
vt 0.09375 0.67188
vt 0.09375 0.65625
vt 0.14063 0.65625
vt 0.14063 0.67188
vt 0.17188 0.67188
vt 0.17188 0.65625
vt 0.21875 0.65625
vt 0.21875 0.67188
vt 0.25000 0.67188
vt 0.25000 0.65625
vt 0.29688 0.65625
vt 0.29688 0.67188
vt 0.32813 0.67188
vt 0.32813 0.65625
vt 0.35938 0.65625
vt 0.35938 0.67188
vt 0.39063 0.67188
vt 0.39063 0.65625
vt 0.42188 0.65625
vt 0.42188 0.67188
vt 0.45313 0.67188
vt 0.45313 0.65625
vt 0.48438 0.65625
vt 0.48438 0.67188
vt 0.51563 0.67188
vt 0.51563 0.65625
vt 0.54688 0.65625
vt 0.54688 0.67188
vt 0.57813 0.67188
vt 0.57813 0.65625
vt 0.60938 0.65625
vt 0.60938 0.67188
vt 0.64063 0.67188
vt 0.64063 0.65625
vt 0.67188 0.65625
vt 0.67188 0.67188
vt 0.70313 0.67188
vt 0.70313 0.65625
vt 0.73438 0.65625
vt 0.73438 0.67188
vt 0.76563 0.67188
vt 0.76563 0.65625
vt 0.79688 0.65625
vt 0.79688 0.67188
vt 0.82813 0.67188
vt 0.82813 0.65625
vt 0.85938 0.65625
vt 0.85938 0.67188
vt 0.89063 0.67188
vt 0.89063 0.65625
vt 0.92188 0.65625
vt 0.92188 0.67188
vt 0.95313 0.67188
vt 0.95313 0.65625
vt 0.98438 0.65625
vt 0.98438 0.67188
vt 0.01563 0.71875
vt 0.01563 0.70313
vt 0.04688 0.70313
vt 0.04688 0.71875
vt 0.96875 0.42188
vt 0.96875 0.40625
vt 0.98438 0.40625
vt 0.98438 0.42188
vt 0.07813 0.71875
vt 0.07813 0.70313
vt 0.09375 0.70313
vt 0.09375 0.71875
vt 0.12500 0.71875
vt 0.12500 0.70313
vt 0.14063 0.70313
vt 0.14063 0.71875
vt 0.17188 0.71875
vt 0.17188 0.70313
vt 0.18750 0.70313
vt 0.18750 0.71875
vt 0.21875 0.71875
vt 0.21875 0.70313
vt 0.23438 0.70313
vt 0.23438 0.71875
vt 0.26563 0.71875
vt 0.26563 0.70313
vt 0.28125 0.70313
vt 0.28125 0.71875
vt 0.31250 0.71875
vt 0.31250 0.70313
vt 0.32813 0.70313
vt 0.32813 0.71875
vt 0.35938 0.71875
vt 0.35938 0.70313
vt 0.37500 0.70313
vt 0.37500 0.71875
vt 0.40625 0.71875
vt 0.40625 0.70313
vt 0.42188 0.70313
vt 0.42188 0.71875
vt 0.45313 0.71875
vt 0.45313 0.70313
vt 0.46875 0.70313
vt 0.46875 0.71875
vt 0.50000 0.71875
vt 0.50000 0.70313
vt 0.51563 0.70313
vt 0.51563 0.71875
vt 0.54688 0.71875
vt 0.54688 0.70313
vt 0.56250 0.70313
vt 0.56250 0.71875

g Wizard
usemtl Wizard_Material
f 1/13/2 2/14/2 3/15/2 4/16/2
f 5/57/2 6/58/2 7/59/2 8/60/2
f 9/25/2 10/26/2 11/27/2 12/28/2
f 13/33/2 14/34/2 15/35/2 16/36/2
f 17/121/2 18/122/2 19/123/2 20/124/2
f 21/93/2 22/94/2 23/95/2 24/96/2
f 25/161/2 26/162/2 27/163/2 28/164/2
f 29/109/2 30/110/2 31/111/2 32/112/2
f 33/233/2 34/234/2 35/235/2 7/236/2
f 36/221/2 25/222/2 37/223/2 38/224/2
f 39/217/2 40/218/2 20/219/2 41/220/2
f 42/237/2 43/238/2 44/239/2 45/240/2
f 46/241/2 36/242/2 47/243/2 48/244/2
f 49/293/2 50/294/2 51/295/2 37/296/2
f 52/269/2 53/270/2 54/271/2 55/272/2
f 43/297/2 5/298/2 12/299/2 15/300/2
f 56/309/2 57/310/2 58/311/2 59/312/2
f 60/401/2 61/402/2 16/403/2 62/404/2
f 40/433/2 63/434/2 64/435/2 65/436/2
f 66/445/2 67/446/2 68/447/2 69/448/2
f 70/457/2 71/458/2 72/459/2 73/460/2
f 74/17/1 75/18/1 76/19/1 77/20/1
f 78/61/1 79/62/1 80/63/1 81/64/1
f 82/21/1 83/22/1 84/23/1 85/24/1
f 86/29/1 87/30/1 88/31/1 89/32/1
f 90/125/1 91/126/1 92/127/1 93/128/1
f 52/105/1 94/106/1 95/107/1 96/108/1
f 97/113/1 98/114/1 99/115/1 100/116/1
f 101/165/1 102/166/1 103/167/1 104/168/1
f 105/201/1 90/202/1 106/203/1 107/204/1
f 108/225/1 109/226/1 104/227/1 110/228/1
f 79/229/1 111/230/1 112/231/1 113/232/1
f 114/249/1 115/250/1 110/251/1 116/252/1
f 117/245/1 118/246/1 119/247/1 120/248/1
f 121/281/1 122/282/1 123/283/1 24/284/1
f 109/265/1 73/266/1 70/267/1 124/268/1
f 125/325/1 126/326/1 81/327/1 119/328/1
f 127/305/1 128/306/1 129/307/1 130/308/1
f 87/345/1 82/346/1 131/347/1 50/348/1
f 132/405/1 86/406/1 133/407/1 134/408/1
f 135/413/1 136/414/1 137/415/1 106/416/1
f 62/1/3 11/2/3 83/3/3 132/4/3
f 77/9/3 76/10/3 2/11/3 1/12/3
f 138/65/3 35/66/3 111/67/3 139/68/3
f 41/69/3 19/70/3 91/71/3 105/72/3
f 38/89/3 51/90/3 73/91/3 108/92/3
f 140/137/3 31/138/3 98/139/3 141/140/3
f 96/97/3 95/98/3 22/99/3 21/100/3
f 8/145/3 138/146/3 30/147/3 142/148/3
f 143/149/3 99/150/3 139/151/3 78/152/3
f 55/253/3 54/254/3 122/255/3 121/256/3
f 45/285/3 44/286/3 50/287/3 49/288/3
f 48/289/3 47/290/3 53/291/3 52/292/3
f 24/277/3 123/278/3 115/279/3 114/280/3
f 124/261/3 70/262/3 118/263/3 117/264/3
f 59/301/3 58/302/3 128/303/3 127/304/3
f 65/349/3 64/350/3 136/351/3 135/352/3
f 69/353/3 68/354/3 126/355/3 125/356/3
f 32/409/3 140/410/3 67/411/3 66/412/3
f 50/449/3 131/450/3 142/451/3 29/452/3
f 100/453/3 143/454/3 71/455/3 70/456/3
f 4/5/4 3/6/4 75/7/4 74/8/4
f 81/53/4 80/54/4 6/55/4 5/56/4
f 116/45/4 103/46/4 26/47/4 46/48/4
f 85/41/4 84/42/4 10/43/4 9/44/4
f 89/37/4 88/38/4 14/39/4 13/40/4
f 24/101/4 23/102/4 94/103/4 52/104/4
f 93/141/4 92/142/4 18/143/4 17/144/4
f 107/129/4 137/130/4 63/131/4 39/132/4
f 28/153/4 27/154/4 5/155/4 42/156/4
f 120/157/4 81/158/4 102/159/4 101/160/4
f 113/213/4 112/214/4 34/215/4 33/216/4
f 130/313/4 129/314/4 57/315/4 56/316/4
f 134/437/4 133/438/4 61/439/4 60/440/4
f 73/441/4 72/442/4 141/443/4 97/444/4
f 6/49/5 80/50/5 113/51/5 33/52/5
f 41/117/5 105/118/5 107/119/5 39/120/5
f 144/189/5 145/190/5 122/191/5 54/192/5
f 146/193/5 147/194/5 91/195/5 19/196/5
f 148/197/5 149/198/5 22/199/5 95/200/5
f 18/185/5 92/186/5 150/187/5 151/188/5
f 59/209/5 146/210/5 151/211/5 56/212/5
f 147/205/5 127/206/5 130/207/5 150/208/5
f 69/273/5 152/274/5 73/275/5 66/276/5
f 14/357/5 88/358/5 50/359/5 44/360/5
f 45/337/5 49/338/5 28/339/5 42/340/5
f 124/341/5 117/342/5 120/343/5 101/344/5
f 62/373/5 132/374/5 134/375/5 60/376/5
f 38/377/5 144/378/5 53/379/5 47/380/5
f 145/369/5 108/370/5 115/371/5 123/372/5
f 152/365/5 125/366/5 118/367/5 70/368/5
f 2/73/6 76/74/6 153/75/6 154/76/6
f 155/81/6 156/82/6 75/83/6 3/84/6
f 102/77/6 27/78/6 26/79/6 103/80/6
f 116/85/6 46/86/6 157/87/6 158/88/6
f 24/133/6 52/134/6 96/135/6 21/136/6
f 98/177/6 31/178/6 30/179/6 99/180/6
f 159/181/6 160/182/6 55/183/6 121/184/6
f 93/169/6 17/170/6 65/171/6 135/172/6
f 136/173/6 64/174/6 63/175/6 137/176/6
f 161/257/6 68/258/6 67/259/6 72/260/6
f 162/317/6 58/318/6 57/319/6 157/320/6
f 156/329/6 35/330/6 34/331/6 153/332/6
f 128/321/6 163/322/6 158/323/6 129/324/6
f 111/333/6 155/334/6 154/335/6 112/336/6
f 85/361/6 9/362/6 8/363/6 131/364/6
f 160/393/6 162/394/6 48/395/6 52/396/6
f 94/397/6 74/398/6 77/399/6 148/400/6
f 163/389/6 159/390/6 24/391/6 114/392/6
f 4/381/6 23/382/6 149/383/6 1/384/6
f 126/385/6 161/386/6 71/387/6 78/388/6
f 83/417/6 11/418/6 10/419/6 84/420/6
f 89/429/6 13/430/6 61/431/6 133/432/6
f 32/425/6 51/426/6 50/427/6 29/428/6
f 73/421/6 97/422/6 100/423/6 70/424/6
