# This file was created with Minddesk Qubicle 3.0
# Get Qubicle at www.getqubicle.com

mtllib RiverLimit.mtl

vn 0.0 0.0 1.0
vn 0.0 0.0 -1.0
vn -1.0 0.0 0.0
vn 1.0 0.0 0.0
vn 0.0 1.0 0.0
vn 0.0 -1.0 0.0

v 20.00000 0.50000 -10.00000
v 20.00000 -0.50000 -10.00000
v -20.00000 -0.50000 -10.00000
v -20.00000 0.50000 -10.00000
v -20.00000 0.50000 0.00000
v -20.00000 -0.50000 0.00000
v 20.00000 -0.50000 0.00000
v 20.00000 0.50000 0.00000

vt 0.01563 0.17188
vt 0.01563 0.01563
vt 0.64063 0.01563
vt 0.64063 0.17188
vt 0.01563 0.35938
vt 0.01563 0.20313
vt 0.64063 0.20313
vt 0.64063 0.35938
vt 0.01563 0.40625
vt 0.01563 0.39063
vt 0.64063 0.39063
vt 0.64063 0.40625
vt 0.01563 0.45313
vt 0.01563 0.43750
vt 0.64063 0.43750
vt 0.64063 0.45313
vt 0.67188 0.03125
vt 0.67188 0.01563
vt 0.82813 0.01563
vt 0.82813 0.03125
vt 0.67188 0.07813
vt 0.67188 0.06250
vt 0.82813 0.06250
vt 0.82813 0.07813

g RiverLimit
usemtl RiverLimit_Material
f 1/13/2 2/14/2 3/15/2 4/16/2
f 5/9/1 6/10/1 7/11/1 8/12/1
f 4/21/3 3/22/3 6/23/3 5/24/3
f 8/17/4 7/18/4 2/19/4 1/20/4
f 4/1/5 5/2/5 8/3/5 1/4/5
f 6/5/6 3/6/6 2/7/6 7/8/6
