# This file was created with Minddesk Qubicle 3.0
# Get Qubicle at www.getqubicle.com

mtllib RoadWithLines.mtl

vn 0.0 0.0 1.0
vn 0.0 0.0 -1.0
vn -1.0 0.0 0.0
vn 1.0 0.0 0.0
vn 0.0 1.0 0.0
vn 0.0 -1.0 0.0

v 45.00000 0.50000 -10.00000
v 45.00000 -0.50000 -10.00000
v -45.00000 -0.50000 -10.00000
v -45.00000 0.50000 -10.00000
v -45.00000 0.50000 0.00000
v -45.00000 -0.50000 0.00000
v 45.00000 -0.50000 0.00000
v 45.00000 0.50000 0.00000

vt 0.00781 0.08594
vt 0.00781 0.00781
vt 0.71094 0.00781
vt 0.71094 0.08594
vt 0.00781 0.17969
vt 0.00781 0.10156
vt 0.71094 0.10156
vt 0.71094 0.17969
vt 0.00781 0.20313
vt 0.00781 0.19531
vt 0.71094 0.19531
vt 0.71094 0.20313
vt 0.00781 0.22656
vt 0.00781 0.21875
vt 0.71094 0.21875
vt 0.71094 0.22656
vt 0.72656 0.01563
vt 0.72656 0.00781
vt 0.80469 0.00781
vt 0.80469 0.01563
vt 0.82031 0.01563
vt 0.82031 0.00781
vt 0.89844 0.00781
vt 0.89844 0.01563

g Road
usemtl RoadWithLines_Material
f 1/13/2 2/14/2 3/15/2 4/16/2
f 5/9/1 6/10/1 7/11/1 8/12/1
f 4/21/3 3/22/3 6/23/3 5/24/3
f 8/17/4 7/18/4 2/19/4 1/20/4
f 4/1/5 5/2/5 8/3/5 1/4/5
f 6/5/6 3/6/6 2/7/6 7/8/6
