# MagicaVoxel @ Ephtracy

# group
o 2BlocksTree

# material
mtllib 2BlocksTree.mtl
usemtl palette

# normals
vn -1 0 0
vn 1 0 0
vn 0 0 1
vn 0 0 -1
vn 0 -1 0
vn 0 1 0

# texcoords
vt 0.00195312 0.5
vt 0.00585938 0.5
vt 0.00976562 0.5

# verts
v 0 0.8 0
v 0 0.8 -0.5
v 0 0.9 0
v 0 0.9 -0.5
v 0 1.1 0
v 0 1.1 -0.5
v 0 1.2 0
v 0 1.2 -0.5
v 0 1.4 0
v 0 1.4 -0.5
v 0 1.5 0
v 0 1.5 -0.5
v 0.1 0.5 -0.1
v 0.1 0.5 -0.4
v 0.1 0.8 -0.1
v 0.1 0.8 -0.4
v 0.4 0.9 -0.1
v 0.4 0.9 -0.4
v 0.4 1.1 -0.1
v 0.4 1.1 -0.4
v 0.4 1.2 -0.1
v 0.4 1.2 -0.4
v 0.4 1.4 -0.1
v 0.4 1.4 -0.4
v 0.1 0.9 -0.1
v 0.1 0.9 -0.4
v 0.1 1.1 -0.1
v 0.1 1.1 -0.4
v 0.1 1.2 -0.1
v 0.1 1.2 -0.4
v 0.1 1.4 -0.1
v 0.1 1.4 -0.4
v 0.4 0.5 -0.1
v 0.4 0.5 -0.4
v 0.4 0.8 -0.1
v 0.4 0.8 -0.4
v 0.5 0.8 0
v 0.5 0.8 -0.5
v 0.5 0.9 0
v 0.5 0.9 -0.5
v 0.5 1.1 0
v 0.5 1.1 -0.5
v 0.5 1.2 0
v 0.5 1.2 -0.5
v 0.5 1.4 0
v 0.5 1.4 -0.5
v 0.5 1.5 0
v 0.5 1.5 -0.5
v 0 0.8 0
v 0 0.9 0
v 0 1.1 0
v 0 1.2 0
v 0 1.4 0
v 0 1.5 0
v 0.5 0.8 0
v 0.5 0.9 0
v 0.5 1.1 0
v 0.5 1.2 0
v 0.5 1.4 0
v 0.5 1.5 0
v 0.1 0.5 -0.1
v 0.1 0.8 -0.1
v 0.4 0.5 -0.1
v 0.4 0.8 -0.1
v 0.1 0.9 -0.4
v 0.1 1.1 -0.4
v 0.1 1.2 -0.4
v 0.1 1.4 -0.4
v 0.4 0.9 -0.4
v 0.4 1.1 -0.4
v 0.4 1.2 -0.4
v 0.4 1.4 -0.4
v 0.1 0.9 -0.1
v 0.1 1.1 -0.1
v 0.1 1.2 -0.1
v 0.1 1.4 -0.1
v 0.4 0.9 -0.1
v 0.4 1.1 -0.1
v 0.4 1.2 -0.1
v 0.4 1.4 -0.1
v 0.1 0.5 -0.4
v 0.1 0.8 -0.4
v 0.4 0.5 -0.4
v 0.4 0.8 -0.4
v 0 0.8 -0.5
v 0 0.9 -0.5
v 0 1.1 -0.5
v 0 1.2 -0.5
v 0 1.4 -0.5
v 0 1.5 -0.5
v 0.5 0.8 -0.5
v 0.5 0.9 -0.5
v 0.5 1.1 -0.5
v 0.5 1.2 -0.5
v 0.5 1.4 -0.5
v 0.5 1.5 -0.5
v 0.1 0.5 -0.1
v 0.4 0.5 -0.1
v 0.1 0.5 -0.4
v 0.4 0.5 -0.4
v 0 0.8 0
v 0.5 0.8 0
v 0.1 0.8 -0.1
v 0.4 0.8 -0.1
v 0.1 0.8 -0.4
v 0.4 0.8 -0.4
v 0 0.8 -0.5
v 0.5 0.8 -0.5
v 0.1 1.4 -0.1
v 0.4 1.4 -0.1
v 0.1 1.4 -0.4
v 0.4 1.4 -0.4
v 0.1 0.9 -0.1
v 0.4 0.9 -0.1
v 0.1 0.9 -0.4
v 0.4 0.9 -0.4
v 0 1.5 0
v 0.5 1.5 0
v 0 1.5 -0.5
v 0.5 1.5 -0.5

# faces
f 3/1/1 2/1/1 1/1/1
f 4/1/1 2/1/1 3/1/1
f 5/3/1 4/3/1 3/3/1
f 6/3/1 4/3/1 5/3/1
f 7/1/1 6/1/1 5/1/1
f 8/1/1 6/1/1 7/1/1
f 9/3/1 8/3/1 7/3/1
f 10/3/1 8/3/1 9/3/1
f 11/1/1 10/1/1 9/1/1
f 12/1/1 10/1/1 11/1/1
f 15/2/1 14/2/1 13/2/1
f 16/2/1 14/2/1 15/2/1
f 19/3/1 18/3/1 17/3/1
f 20/3/1 18/3/1 19/3/1
f 21/1/1 20/1/1 19/1/1
f 22/1/1 20/1/1 21/1/1
f 23/3/1 22/3/1 21/3/1
f 24/3/1 22/3/1 23/3/1
f 25/3/2 26/3/2 27/3/2
f 27/3/2 26/3/2 28/3/2
f 27/1/2 28/1/2 29/1/2
f 29/1/2 28/1/2 30/1/2
f 29/3/2 30/3/2 31/3/2
f 31/3/2 30/3/2 32/3/2
f 33/2/2 34/2/2 35/2/2
f 35/2/2 34/2/2 36/2/2
f 37/1/2 38/1/2 39/1/2
f 39/1/2 38/1/2 40/1/2
f 39/3/2 40/3/2 41/3/2
f 41/3/2 40/3/2 42/3/2
f 41/1/2 42/1/2 43/1/2
f 43/1/2 42/1/2 44/1/2
f 43/3/2 44/3/2 45/3/2
f 45/3/2 44/3/2 46/3/2
f 45/1/2 46/1/2 47/1/2
f 47/1/2 46/1/2 48/1/2
f 55/1/3 50/1/3 49/1/3
f 56/3/3 51/3/3 50/3/3
f 56/1/3 50/1/3 55/1/3
f 57/1/3 52/1/3 51/1/3
f 57/3/3 51/3/3 56/3/3
f 58/3/3 53/3/3 52/3/3
f 58/1/3 52/1/3 57/1/3
f 59/1/3 54/1/3 53/1/3
f 59/3/3 53/3/3 58/3/3
f 60/1/3 54/1/3 59/1/3
f 63/2/3 62/2/3 61/2/3
f 64/2/3 62/2/3 63/2/3
f 69/3/3 66/3/3 65/3/3
f 70/1/3 67/1/3 66/1/3
f 70/3/3 66/3/3 69/3/3
f 71/3/3 68/3/3 67/3/3
f 71/1/3 67/1/3 70/1/3
f 72/3/3 68/3/3 71/3/3
f 73/3/4 74/3/4 77/3/4
f 74/1/4 75/1/4 78/1/4
f 77/3/4 74/3/4 78/3/4
f 75/3/4 76/3/4 79/3/4
f 78/1/4 75/1/4 79/1/4
f 79/3/4 76/3/4 80/3/4
f 81/2/4 82/2/4 83/2/4
f 83/2/4 82/2/4 84/2/4
f 85/1/4 86/1/4 91/1/4
f 86/3/4 87/3/4 92/3/4
f 91/1/4 86/1/4 92/1/4
f 87/1/4 88/1/4 93/1/4
f 92/3/4 87/3/4 93/3/4
f 88/3/4 89/3/4 94/3/4
f 93/1/4 88/1/4 94/1/4
f 89/1/4 90/1/4 95/1/4
f 94/3/4 89/3/4 95/3/4
f 95/1/4 90/1/4 96/1/4
f 99/2/5 98/2/5 97/2/5
f 100/2/5 98/2/5 99/2/5
f 103/1/5 102/1/5 101/1/5
f 104/1/5 102/1/5 103/1/5
f 105/1/5 103/1/5 101/1/5
f 106/1/5 102/1/5 104/1/5
f 107/1/5 105/1/5 101/1/5
f 107/1/5 106/1/5 105/1/5
f 108/1/5 102/1/5 106/1/5
f 108/1/5 106/1/5 107/1/5
f 111/1/5 110/1/5 109/1/5
f 112/1/5 110/1/5 111/1/5
f 113/2/6 114/2/6 115/2/6
f 115/2/6 114/2/6 116/2/6
f 117/1/6 118/1/6 119/1/6
f 119/1/6 118/1/6 120/1/6
