# MagicaVoxel @ Ephtracy

# group
o RailwayBoundary

# material
mtllib RailwayBoundary.mtl
usemtl palette

# normals
vn -1 0 0
vn 1 0 0
vn 0 0 1
vn 0 0 -1
vn 0 -1 0
vn 0 1 0

# texcoords
vt 0.00195312 0.5
vt 0.00585938 0.5
vt 0.00976562 0.5

# verts
v 0 0.1 0
v 0 0.1 -0.9
v 0 0.2 0
v 0 0.2 -0.9
v 0 0.3 -0.1
v 0 0.3 -0.2
v 0 0.3 -0.6
v 0 0.3 -0.7
v 0 0.4 -0.1
v 0 0.4 -0.2
v 0 0.4 -0.6
v 0 0.4 -0.7
v 0.9 0.2 0
v 0.9 0.2 -0.8
v 0.9 0.3 0
v 0.9 0.3 -0.1
v 0.9 0.3 -0.2
v 0.9 0.3 -0.6
v 0.9 0.3 -0.7
v 0.9 0.3 -0.8
v 1.9 0.2 0
v 1.9 0.2 -0.8
v 1.9 0.3 0
v 1.9 0.3 -0.1
v 1.9 0.3 -0.2
v 1.9 0.3 -0.6
v 1.9 0.3 -0.7
v 1.9 0.3 -0.8
v 2.9 0.2 0
v 2.9 0.2 -0.8
v 2.9 0.3 0
v 2.9 0.3 -0.1
v 2.9 0.3 -0.2
v 2.9 0.3 -0.6
v 2.9 0.3 -0.7
v 2.9 0.3 -0.8
v 3.9 0.2 0
v 3.9 0.2 -0.8
v 3.9 0.3 0
v 3.9 0.3 -0.1
v 3.9 0.3 -0.2
v 3.9 0.3 -0.6
v 3.9 0.3 -0.7
v 3.9 0.3 -0.8
v 1 0.2 0
v 1 0.2 -0.8
v 1 0.3 0
v 1 0.3 -0.1
v 1 0.3 -0.2
v 1 0.3 -0.6
v 1 0.3 -0.7
v 1 0.3 -0.8
v 2 0.2 0
v 2 0.2 -0.8
v 2 0.3 0
v 2 0.3 -0.1
v 2 0.3 -0.2
v 2 0.3 -0.6
v 2 0.3 -0.7
v 2 0.3 -0.8
v 3 0.2 0
v 3 0.2 -0.8
v 3 0.3 0
v 3 0.3 -0.1
v 3 0.3 -0.2
v 3 0.3 -0.6
v 3 0.3 -0.7
v 3 0.3 -0.8
v 4 0.1 0
v 4 0.1 -0.9
v 4 0.2 0
v 4 0.2 -0.8
v 4 0.2 -0.9
v 4 0.3 0
v 4 0.3 -0.1
v 4 0.3 -0.2
v 4 0.3 -0.6
v 4 0.3 -0.7
v 4 0.3 -0.8
v 4 0.4 -0.1
v 4 0.4 -0.2
v 4 0.4 -0.6
v 4 0.4 -0.7
v 0 0.1 0
v 0 0.2 0
v 0.9 0.2 0
v 0.9 0.3 0
v 1 0.2 0
v 1 0.3 0
v 1.9 0.2 0
v 1.9 0.3 0
v 2 0.2 0
v 2 0.3 0
v 2.9 0.2 0
v 2.9 0.3 0
v 3 0.2 0
v 3 0.3 0
v 3.9 0.2 0
v 3.9 0.3 0
v 4 0.1 0
v 4 0.2 0
v 4 0.3 0
v 0 0.3 -0.1
v 0 0.4 -0.1
v 0.9 0.3 -0.1
v 1 0.3 -0.1
v 1.9 0.3 -0.1
v 2 0.3 -0.1
v 2.9 0.3 -0.1
v 3 0.3 -0.1
v 3.9 0.3 -0.1
v 4 0.3 -0.1
v 4 0.4 -0.1
v 0 0.3 -0.6
v 0 0.4 -0.6
v 0.9 0.3 -0.6
v 1 0.3 -0.6
v 1.9 0.3 -0.6
v 2 0.3 -0.6
v 2.9 0.3 -0.6
v 3 0.3 -0.6
v 3.9 0.3 -0.6
v 4 0.3 -0.6
v 4 0.4 -0.6
v 0 0.3 -0.2
v 0 0.4 -0.2
v 0.9 0.3 -0.2
v 1 0.3 -0.2
v 1.9 0.3 -0.2
v 2 0.3 -0.2
v 2.9 0.3 -0.2
v 3 0.3 -0.2
v 3.9 0.3 -0.2
v 4 0.3 -0.2
v 4 0.4 -0.2
v 0 0.3 -0.7
v 0 0.4 -0.7
v 0.9 0.3 -0.7
v 1 0.3 -0.7
v 1.9 0.3 -0.7
v 2 0.3 -0.7
v 2.9 0.3 -0.7
v 3 0.3 -0.7
v 3.9 0.3 -0.7
v 4 0.3 -0.7
v 4 0.4 -0.7
v 0.9 0.2 -0.8
v 0.9 0.3 -0.8
v 1 0.2 -0.8
v 1 0.3 -0.8
v 1.9 0.2 -0.8
v 1.9 0.3 -0.8
v 2 0.2 -0.8
v 2 0.3 -0.8
v 2.9 0.2 -0.8
v 2.9 0.3 -0.8
v 3 0.2 -0.8
v 3 0.3 -0.8
v 3.9 0.2 -0.8
v 3.9 0.3 -0.8
v 4 0.2 -0.8
v 4 0.3 -0.8
v 0 0.1 -0.9
v 0 0.2 -0.9
v 4 0.1 -0.9
v 4 0.2 -0.9
v 0 0.1 0
v 4 0.1 0
v 0 0.1 -0.9
v 4 0.1 -0.9
v 0 0.3 -0.1
v 0.9 0.3 -0.1
v 1 0.3 -0.1
v 1.9 0.3 -0.1
v 2 0.3 -0.1
v 2.9 0.3 -0.1
v 3 0.3 -0.1
v 3.9 0.3 -0.1
v 0 0.3 -0.2
v 0.9 0.3 -0.2
v 1 0.3 -0.2
v 1.9 0.3 -0.2
v 2 0.3 -0.2
v 2.9 0.3 -0.2
v 3 0.3 -0.2
v 3.9 0.3 -0.2
v 0 0.3 -0.6
v 0.9 0.3 -0.6
v 1 0.3 -0.6
v 1.9 0.3 -0.6
v 2 0.3 -0.6
v 2.9 0.3 -0.6
v 3 0.3 -0.6
v 3.9 0.3 -0.6
v 0 0.3 -0.7
v 0.9 0.3 -0.7
v 1 0.3 -0.7
v 1.9 0.3 -0.7
v 2 0.3 -0.7
v 2.9 0.3 -0.7
v 3 0.3 -0.7
v 3.9 0.3 -0.7
v 0 0.2 0
v 0.9 0.2 0
v 1 0.2 0
v 1.9 0.2 0
v 2 0.2 0
v 2.9 0.2 0
v 3 0.2 0
v 3.9 0.2 0
v 0.9 0.2 -0.8
v 1 0.2 -0.8
v 1.9 0.2 -0.8
v 2 0.2 -0.8
v 2.9 0.2 -0.8
v 3 0.2 -0.8
v 3.9 0.2 -0.8
v 4 0.2 -0.8
v 0 0.2 -0.9
v 4 0.2 -0.9
v 0.9 0.3 0
v 1 0.3 0
v 1.9 0.3 0
v 2 0.3 0
v 2.9 0.3 0
v 3 0.3 0
v 3.9 0.3 0
v 4 0.3 0
v 0.9 0.3 -0.1
v 1 0.3 -0.1
v 1.9 0.3 -0.1
v 2 0.3 -0.1
v 2.9 0.3 -0.1
v 3 0.3 -0.1
v 3.9 0.3 -0.1
v 4 0.3 -0.1
v 0.9 0.3 -0.2
v 1 0.3 -0.2
v 1.9 0.3 -0.2
v 2 0.3 -0.2
v 2.9 0.3 -0.2
v 3 0.3 -0.2
v 3.9 0.3 -0.2
v 4 0.3 -0.2
v 0.9 0.3 -0.6
v 1 0.3 -0.6
v 1.9 0.3 -0.6
v 2 0.3 -0.6
v 2.9 0.3 -0.6
v 3 0.3 -0.6
v 3.9 0.3 -0.6
v 4 0.3 -0.6
v 0.9 0.3 -0.7
v 1 0.3 -0.7
v 1.9 0.3 -0.7
v 2 0.3 -0.7
v 2.9 0.3 -0.7
v 3 0.3 -0.7
v 3.9 0.3 -0.7
v 4 0.3 -0.7
v 0.9 0.3 -0.8
v 1 0.3 -0.8
v 1.9 0.3 -0.8
v 2 0.3 -0.8
v 2.9 0.3 -0.8
v 3 0.3 -0.8
v 3.9 0.3 -0.8
v 4 0.3 -0.8
v 0 0.4 -0.1
v 4 0.4 -0.1
v 0 0.4 -0.2
v 4 0.4 -0.2
v 0 0.4 -0.6
v 4 0.4 -0.6
v 0 0.4 -0.7
v 4 0.4 -0.7

# faces
f 3/1/1 2/1/1 1/1/1
f 4/1/1 2/1/1 3/1/1
f 9/3/1 6/3/1 5/3/1
f 10/3/1 6/3/1 9/3/1
f 11/3/1 8/3/1 7/3/1
f 12/3/1 8/3/1 11/3/1
f 15/2/1 14/2/1 13/2/1
f 16/2/1 14/2/1 15/2/1
f 17/2/1 14/2/1 16/2/1
f 18/2/1 14/2/1 17/2/1
f 19/2/1 14/2/1 18/2/1
f 20/2/1 14/2/1 19/2/1
f 23/2/1 22/2/1 21/2/1
f 24/2/1 22/2/1 23/2/1
f 25/2/1 22/2/1 24/2/1
f 26/2/1 22/2/1 25/2/1
f 27/2/1 22/2/1 26/2/1
f 28/2/1 22/2/1 27/2/1
f 31/2/1 30/2/1 29/2/1
f 32/2/1 30/2/1 31/2/1
f 33/2/1 30/2/1 32/2/1
f 34/2/1 30/2/1 33/2/1
f 35/2/1 30/2/1 34/2/1
f 36/2/1 30/2/1 35/2/1
f 39/2/1 38/2/1 37/2/1
f 40/2/1 38/2/1 39/2/1
f 41/2/1 38/2/1 40/2/1
f 42/2/1 38/2/1 41/2/1
f 43/2/1 38/2/1 42/2/1
f 44/2/1 38/2/1 43/2/1
f 45/2/2 46/2/2 47/2/2
f 47/2/2 46/2/2 48/2/2
f 48/2/2 46/2/2 49/2/2
f 49/2/2 46/2/2 50/2/2
f 50/2/2 46/2/2 51/2/2
f 51/2/2 46/2/2 52/2/2
f 53/2/2 54/2/2 55/2/2
f 55/2/2 54/2/2 56/2/2
f 56/2/2 54/2/2 57/2/2
f 57/2/2 54/2/2 58/2/2
f 58/2/2 54/2/2 59/2/2
f 59/2/2 54/2/2 60/2/2
f 61/2/2 62/2/2 63/2/2
f 63/2/2 62/2/2 64/2/2
f 64/2/2 62/2/2 65/2/2
f 65/2/2 62/2/2 66/2/2
f 66/2/2 62/2/2 67/2/2
f 67/2/2 62/2/2 68/2/2
f 69/1/2 70/1/2 71/1/2
f 71/1/2 70/1/2 72/1/2
f 72/1/2 70/1/2 73/1/2
f 71/2/2 72/2/2 74/2/2
f 74/2/2 72/2/2 75/2/2
f 75/2/2 72/2/2 76/2/2
f 76/2/2 72/2/2 77/2/2
f 77/2/2 72/2/2 78/2/2
f 78/2/2 72/2/2 79/2/2
f 75/3/2 76/3/2 80/3/2
f 80/3/2 76/3/2 81/3/2
f 77/3/2 78/3/2 82/3/2
f 82/3/2 78/3/2 83/3/2
f 86/1/3 85/1/3 84/1/3
f 88/1/3 86/1/3 84/1/3
f 88/2/3 87/2/3 86/2/3
f 89/2/3 87/2/3 88/2/3
f 90/1/3 88/1/3 84/1/3
f 92/1/3 90/1/3 84/1/3
f 92/2/3 91/2/3 90/2/3
f 93/2/3 91/2/3 92/2/3
f 94/1/3 92/1/3 84/1/3
f 96/1/3 94/1/3 84/1/3
f 96/2/3 95/2/3 94/2/3
f 97/2/3 95/2/3 96/2/3
f 98/1/3 96/1/3 84/1/3
f 100/1/3 98/1/3 84/1/3
f 101/2/3 99/2/3 98/2/3
f 101/1/3 98/1/3 100/1/3
f 102/2/3 99/2/3 101/2/3
f 105/3/3 104/3/3 103/3/3
f 106/3/3 104/3/3 105/3/3
f 107/3/3 104/3/3 106/3/3
f 108/3/3 104/3/3 107/3/3
f 109/3/3 104/3/3 108/3/3
f 110/3/3 104/3/3 109/3/3
f 111/3/3 104/3/3 110/3/3
f 112/3/3 104/3/3 111/3/3
f 113/3/3 104/3/3 112/3/3
f 116/3/3 115/3/3 114/3/3
f 117/3/3 115/3/3 116/3/3
f 118/3/3 115/3/3 117/3/3
f 119/3/3 115/3/3 118/3/3
f 120/3/3 115/3/3 119/3/3
f 121/3/3 115/3/3 120/3/3
f 122/3/3 115/3/3 121/3/3
f 123/3/3 115/3/3 122/3/3
f 124/3/3 115/3/3 123/3/3
f 125/3/4 126/3/4 127/3/4
f 127/3/4 126/3/4 128/3/4
f 128/3/4 126/3/4 129/3/4
f 129/3/4 126/3/4 130/3/4
f 130/3/4 126/3/4 131/3/4
f 131/3/4 126/3/4 132/3/4
f 132/3/4 126/3/4 133/3/4
f 133/3/4 126/3/4 134/3/4
f 134/3/4 126/3/4 135/3/4
f 136/3/4 137/3/4 138/3/4
f 138/3/4 137/3/4 139/3/4
f 139/3/4 137/3/4 140/3/4
f 140/3/4 137/3/4 141/3/4
f 141/3/4 137/3/4 142/3/4
f 142/3/4 137/3/4 143/3/4
f 143/3/4 137/3/4 144/3/4
f 144/3/4 137/3/4 145/3/4
f 145/3/4 137/3/4 146/3/4
f 147/2/4 148/2/4 149/2/4
f 149/2/4 148/2/4 150/2/4
f 151/2/4 152/2/4 153/2/4
f 153/2/4 152/2/4 154/2/4
f 155/2/4 156/2/4 157/2/4
f 157/2/4 156/2/4 158/2/4
f 159/2/4 160/2/4 161/2/4
f 161/2/4 160/2/4 162/2/4
f 163/1/4 164/1/4 165/1/4
f 165/1/4 164/1/4 166/1/4
f 169/1/5 168/1/5 167/1/5
f 170/1/5 168/1/5 169/1/5
f 179/3/5 172/3/5 171/3/5
f 180/3/5 172/3/5 179/3/5
f 181/3/5 174/3/5 173/3/5
f 182/3/5 174/3/5 181/3/5
f 183/3/5 176/3/5 175/3/5
f 184/3/5 176/3/5 183/3/5
f 185/3/5 178/3/5 177/3/5
f 186/3/5 178/3/5 185/3/5
f 195/3/5 188/3/5 187/3/5
f 196/3/5 188/3/5 195/3/5
f 197/3/5 190/3/5 189/3/5
f 198/3/5 190/3/5 197/3/5
f 199/3/5 192/3/5 191/3/5
f 200/3/5 192/3/5 199/3/5
f 201/3/5 194/3/5 193/3/5
f 202/3/5 194/3/5 201/3/5
f 203/1/6 204/1/6 211/1/6
f 205/1/6 206/1/6 212/1/6
f 212/1/6 206/1/6 213/1/6
f 207/1/6 208/1/6 214/1/6
f 214/1/6 208/1/6 215/1/6
f 209/1/6 210/1/6 216/1/6
f 216/1/6 210/1/6 217/1/6
f 214/1/6 215/1/6 219/1/6
f 217/1/6 218/1/6 219/1/6
f 216/1/6 217/1/6 219/1/6
f 215/1/6 216/1/6 219/1/6
f 203/1/6 211/1/6 219/1/6
f 213/1/6 214/1/6 219/1/6
f 212/1/6 213/1/6 219/1/6
f 211/1/6 212/1/6 219/1/6
f 219/1/6 218/1/6 220/1/6
f 221/2/6 222/2/6 229/2/6
f 229/2/6 222/2/6 230/2/6
f 223/2/6 224/2/6 231/2/6
f 231/2/6 224/2/6 232/2/6
f 225/2/6 226/2/6 233/2/6
f 233/2/6 226/2/6 234/2/6
f 227/2/6 228/2/6 235/2/6
f 235/2/6 228/2/6 236/2/6
f 237/2/6 238/2/6 245/2/6
f 245/2/6 238/2/6 246/2/6
f 239/2/6 240/2/6 247/2/6
f 247/2/6 240/2/6 248/2/6
f 241/2/6 242/2/6 249/2/6
f 249/2/6 242/2/6 250/2/6
f 243/2/6 244/2/6 251/2/6
f 251/2/6 244/2/6 252/2/6
f 253/2/6 254/2/6 261/2/6
f 261/2/6 254/2/6 262/2/6
f 255/2/6 256/2/6 263/2/6
f 263/2/6 256/2/6 264/2/6
f 257/2/6 258/2/6 265/2/6
f 265/2/6 258/2/6 266/2/6
f 259/2/6 260/2/6 267/2/6
f 267/2/6 260/2/6 268/2/6
f 269/3/6 270/3/6 271/3/6
f 271/3/6 270/3/6 272/3/6
f 273/3/6 274/3/6 275/3/6
f 275/3/6 274/3/6 276/3/6
