# MagicaVoxel @ Ephtracy

# group
o Railway

# material
mtllib Railway.mtl
usemtl palette

# normals
vn -1 0 0
vn 1 0 0
vn 0 0 1
vn 0 0 -1
vn 0 -1 0
vn 0 1 0

# texcoords
vt 0.00195312 0.5
vt 0.00585938 0.5
vt 0.00976562 0.5

# verts
v 0 0.1 0
v 0 0.1 -0.9
v 0 0.2 0
v 0 0.2 -0.9
v 0 0.3 -0.1
v 0 0.3 -0.2
v 0 0.3 -0.6
v 0 0.3 -0.7
v 0 0.4 -0.1
v 0 0.4 -0.2
v 0 0.4 -0.6
v 0 0.4 -0.7
v 0.9 0.2 0
v 0.9 0.2 -0.8
v 0.9 0.3 0
v 0.9 0.3 -0.1
v 0.9 0.3 -0.2
v 0.9 0.3 -0.6
v 0.9 0.3 -0.7
v 0.9 0.3 -0.8
v 1.9 0.2 0
v 1.9 0.2 -0.8
v 1.9 0.3 0
v 1.9 0.3 -0.1
v 1.9 0.3 -0.2
v 1.9 0.3 -0.6
v 1.9 0.3 -0.7
v 1.9 0.3 -0.8
v 2.9 0.2 0
v 2.9 0.2 -0.8
v 2.9 0.3 0
v 2.9 0.3 -0.1
v 2.9 0.3 -0.2
v 2.9 0.3 -0.6
v 2.9 0.3 -0.7
v 2.9 0.3 -0.8
v 3.9 0.2 0
v 3.9 0.2 -0.8
v 3.9 0.3 0
v 3.9 0.3 -0.1
v 3.9 0.3 -0.2
v 3.9 0.3 -0.6
v 3.9 0.3 -0.7
v 3.9 0.3 -0.8
v 4.9 0.2 0
v 4.9 0.2 -0.8
v 4.9 0.3 0
v 4.9 0.3 -0.1
v 4.9 0.3 -0.2
v 4.9 0.3 -0.6
v 4.9 0.3 -0.7
v 4.9 0.3 -0.8
v 5.9 0.2 0
v 5.9 0.2 -0.8
v 5.9 0.3 0
v 5.9 0.3 -0.1
v 5.9 0.3 -0.2
v 5.9 0.3 -0.6
v 5.9 0.3 -0.7
v 5.9 0.3 -0.8
v 6.9 0.2 0
v 6.9 0.2 -0.8
v 6.9 0.3 0
v 6.9 0.3 -0.1
v 6.9 0.3 -0.2
v 6.9 0.3 -0.6
v 6.9 0.3 -0.7
v 6.9 0.3 -0.8
v 7.9 0.2 0
v 7.9 0.2 -0.8
v 7.9 0.3 0
v 7.9 0.3 -0.1
v 7.9 0.3 -0.2
v 7.9 0.3 -0.6
v 7.9 0.3 -0.7
v 7.9 0.3 -0.8
v 8.9 0.2 0
v 8.9 0.2 -0.8
v 8.9 0.3 0
v 8.9 0.3 -0.1
v 8.9 0.3 -0.2
v 8.9 0.3 -0.6
v 8.9 0.3 -0.7
v 8.9 0.3 -0.8
v 1 0.2 0
v 1 0.2 -0.8
v 1 0.3 0
v 1 0.3 -0.1
v 1 0.3 -0.2
v 1 0.3 -0.6
v 1 0.3 -0.7
v 1 0.3 -0.8
v 2 0.2 0
v 2 0.2 -0.8
v 2 0.3 0
v 2 0.3 -0.1
v 2 0.3 -0.2
v 2 0.3 -0.6
v 2 0.3 -0.7
v 2 0.3 -0.8
v 3 0.2 0
v 3 0.2 -0.8
v 3 0.3 0
v 3 0.3 -0.1
v 3 0.3 -0.2
v 3 0.3 -0.6
v 3 0.3 -0.7
v 3 0.3 -0.8
v 4 0.2 0
v 4 0.2 -0.8
v 4 0.3 0
v 4 0.3 -0.1
v 4 0.3 -0.2
v 4 0.3 -0.6
v 4 0.3 -0.7
v 4 0.3 -0.8
v 5 0.2 0
v 5 0.2 -0.8
v 5 0.3 0
v 5 0.3 -0.1
v 5 0.3 -0.2
v 5 0.3 -0.6
v 5 0.3 -0.7
v 5 0.3 -0.8
v 6 0.2 0
v 6 0.2 -0.8
v 6 0.3 0
v 6 0.3 -0.1
v 6 0.3 -0.2
v 6 0.3 -0.6
v 6 0.3 -0.7
v 6 0.3 -0.8
v 7 0.2 0
v 7 0.2 -0.8
v 7 0.3 0
v 7 0.3 -0.1
v 7 0.3 -0.2
v 7 0.3 -0.6
v 7 0.3 -0.7
v 7 0.3 -0.8
v 8 0.2 0
v 8 0.2 -0.8
v 8 0.3 0
v 8 0.3 -0.1
v 8 0.3 -0.2
v 8 0.3 -0.6
v 8 0.3 -0.7
v 8 0.3 -0.8
v 9 0.1 0
v 9 0.1 -0.9
v 9 0.2 0
v 9 0.2 -0.8
v 9 0.2 -0.9
v 9 0.3 0
v 9 0.3 -0.1
v 9 0.3 -0.2
v 9 0.3 -0.6
v 9 0.3 -0.7
v 9 0.3 -0.8
v 9 0.4 -0.1
v 9 0.4 -0.2
v 9 0.4 -0.6
v 9 0.4 -0.7
v 0 0.1 0
v 0 0.2 0
v 0.9 0.2 0
v 0.9 0.3 0
v 1 0.2 0
v 1 0.3 0
v 1.9 0.2 0
v 1.9 0.3 0
v 2 0.2 0
v 2 0.3 0
v 2.9 0.2 0
v 2.9 0.3 0
v 3 0.2 0
v 3 0.3 0
v 3.9 0.2 0
v 3.9 0.3 0
v 4 0.2 0
v 4 0.3 0
v 4.9 0.2 0
v 4.9 0.3 0
v 5 0.2 0
v 5 0.3 0
v 5.9 0.2 0
v 5.9 0.3 0
v 6 0.2 0
v 6 0.3 0
v 6.9 0.2 0
v 6.9 0.3 0
v 7 0.2 0
v 7 0.3 0
v 7.9 0.2 0
v 7.9 0.3 0
v 8 0.2 0
v 8 0.3 0
v 8.9 0.2 0
v 8.9 0.3 0
v 9 0.1 0
v 9 0.2 0
v 9 0.3 0
v 0 0.3 -0.1
v 0 0.4 -0.1
v 0.9 0.3 -0.1
v 1 0.3 -0.1
v 1.9 0.3 -0.1
v 2 0.3 -0.1
v 2.9 0.3 -0.1
v 3 0.3 -0.1
v 3.9 0.3 -0.1
v 4 0.3 -0.1
v 4.9 0.3 -0.1
v 5 0.3 -0.1
v 5.9 0.3 -0.1
v 6 0.3 -0.1
v 6.9 0.3 -0.1
v 7 0.3 -0.1
v 7.9 0.3 -0.1
v 8 0.3 -0.1
v 8.9 0.3 -0.1
v 9 0.3 -0.1
v 9 0.4 -0.1
v 0 0.3 -0.6
v 0 0.4 -0.6
v 0.9 0.3 -0.6
v 1 0.3 -0.6
v 1.9 0.3 -0.6
v 2 0.3 -0.6
v 2.9 0.3 -0.6
v 3 0.3 -0.6
v 3.9 0.3 -0.6
v 4 0.3 -0.6
v 4.9 0.3 -0.6
v 5 0.3 -0.6
v 5.9 0.3 -0.6
v 6 0.3 -0.6
v 6.9 0.3 -0.6
v 7 0.3 -0.6
v 7.9 0.3 -0.6
v 8 0.3 -0.6
v 8.9 0.3 -0.6
v 9 0.3 -0.6
v 9 0.4 -0.6
v 0 0.3 -0.2
v 0 0.4 -0.2
v 0.9 0.3 -0.2
v 1 0.3 -0.2
v 1.9 0.3 -0.2
v 2 0.3 -0.2
v 2.9 0.3 -0.2
v 3 0.3 -0.2
v 3.9 0.3 -0.2
v 4 0.3 -0.2
v 4.9 0.3 -0.2
v 5 0.3 -0.2
v 5.9 0.3 -0.2
v 6 0.3 -0.2
v 6.9 0.3 -0.2
v 7 0.3 -0.2
v 7.9 0.3 -0.2
v 8 0.3 -0.2
v 8.9 0.3 -0.2
v 9 0.3 -0.2
v 9 0.4 -0.2
v 0 0.3 -0.7
v 0 0.4 -0.7
v 0.9 0.3 -0.7
v 1 0.3 -0.7
v 1.9 0.3 -0.7
v 2 0.3 -0.7
v 2.9 0.3 -0.7
v 3 0.3 -0.7
v 3.9 0.3 -0.7
v 4 0.3 -0.7
v 4.9 0.3 -0.7
v 5 0.3 -0.7
v 5.9 0.3 -0.7
v 6 0.3 -0.7
v 6.9 0.3 -0.7
v 7 0.3 -0.7
v 7.9 0.3 -0.7
v 8 0.3 -0.7
v 8.9 0.3 -0.7
v 9 0.3 -0.7
v 9 0.4 -0.7
v 0.9 0.2 -0.8
v 0.9 0.3 -0.8
v 1 0.2 -0.8
v 1 0.3 -0.8
v 1.9 0.2 -0.8
v 1.9 0.3 -0.8
v 2 0.2 -0.8
v 2 0.3 -0.8
v 2.9 0.2 -0.8
v 2.9 0.3 -0.8
v 3 0.2 -0.8
v 3 0.3 -0.8
v 3.9 0.2 -0.8
v 3.9 0.3 -0.8
v 4 0.2 -0.8
v 4 0.3 -0.8
v 4.9 0.2 -0.8
v 4.9 0.3 -0.8
v 5 0.2 -0.8
v 5 0.3 -0.8
v 5.9 0.2 -0.8
v 5.9 0.3 -0.8
v 6 0.2 -0.8
v 6 0.3 -0.8
v 6.9 0.2 -0.8
v 6.9 0.3 -0.8
v 7 0.2 -0.8
v 7 0.3 -0.8
v 7.9 0.2 -0.8
v 7.9 0.3 -0.8
v 8 0.2 -0.8
v 8 0.3 -0.8
v 8.9 0.2 -0.8
v 8.9 0.3 -0.8
v 9 0.2 -0.8
v 9 0.3 -0.8
v 0 0.1 -0.9
v 0 0.2 -0.9
v 9 0.1 -0.9
v 9 0.2 -0.9
v 0 0.1 0
v 9 0.1 0
v 0 0.1 -0.9
v 9 0.1 -0.9
v 0 0.3 -0.1
v 0.9 0.3 -0.1
v 1 0.3 -0.1
v 1.9 0.3 -0.1
v 2 0.3 -0.1
v 2.9 0.3 -0.1
v 3 0.3 -0.1
v 3.9 0.3 -0.1
v 4 0.3 -0.1
v 4.9 0.3 -0.1
v 5 0.3 -0.1
v 5.9 0.3 -0.1
v 6 0.3 -0.1
v 6.9 0.3 -0.1
v 7 0.3 -0.1
v 7.9 0.3 -0.1
v 8 0.3 -0.1
v 8.9 0.3 -0.1
v 0 0.3 -0.2
v 0.9 0.3 -0.2
v 1 0.3 -0.2
v 1.9 0.3 -0.2
v 2 0.3 -0.2
v 2.9 0.3 -0.2
v 3 0.3 -0.2
v 3.9 0.3 -0.2
v 4 0.3 -0.2
v 4.9 0.3 -0.2
v 5 0.3 -0.2
v 5.9 0.3 -0.2
v 6 0.3 -0.2
v 6.9 0.3 -0.2
v 7 0.3 -0.2
v 7.9 0.3 -0.2
v 8 0.3 -0.2
v 8.9 0.3 -0.2
v 0 0.3 -0.6
v 0.9 0.3 -0.6
v 1 0.3 -0.6
v 1.9 0.3 -0.6
v 2 0.3 -0.6
v 2.9 0.3 -0.6
v 3 0.3 -0.6
v 3.9 0.3 -0.6
v 4 0.3 -0.6
v 4.9 0.3 -0.6
v 5 0.3 -0.6
v 5.9 0.3 -0.6
v 6 0.3 -0.6
v 6.9 0.3 -0.6
v 7 0.3 -0.6
v 7.9 0.3 -0.6
v 8 0.3 -0.6
v 8.9 0.3 -0.6
v 0 0.3 -0.7
v 0.9 0.3 -0.7
v 1 0.3 -0.7
v 1.9 0.3 -0.7
v 2 0.3 -0.7
v 2.9 0.3 -0.7
v 3 0.3 -0.7
v 3.9 0.3 -0.7
v 4 0.3 -0.7
v 4.9 0.3 -0.7
v 5 0.3 -0.7
v 5.9 0.3 -0.7
v 6 0.3 -0.7
v 6.9 0.3 -0.7
v 7 0.3 -0.7
v 7.9 0.3 -0.7
v 8 0.3 -0.7
v 8.9 0.3 -0.7
v 0 0.2 0
v 0.9 0.2 0
v 1 0.2 0
v 1.9 0.2 0
v 2 0.2 0
v 2.9 0.2 0
v 3 0.2 0
v 3.9 0.2 0
v 4 0.2 0
v 4.9 0.2 0
v 5 0.2 0
v 5.9 0.2 0
v 6 0.2 0
v 6.9 0.2 0
v 7 0.2 0
v 7.9 0.2 0
v 8 0.2 0
v 8.9 0.2 0
v 0.9 0.2 -0.8
v 1 0.2 -0.8
v 1.9 0.2 -0.8
v 2 0.2 -0.8
v 2.9 0.2 -0.8
v 3 0.2 -0.8
v 3.9 0.2 -0.8
v 4 0.2 -0.8
v 4.9 0.2 -0.8
v 5 0.2 -0.8
v 5.9 0.2 -0.8
v 6 0.2 -0.8
v 6.9 0.2 -0.8
v 7 0.2 -0.8
v 7.9 0.2 -0.8
v 8 0.2 -0.8
v 8.9 0.2 -0.8
v 9 0.2 -0.8
v 0 0.2 -0.9
v 9 0.2 -0.9
v 0.9 0.3 0
v 1 0.3 0
v 1.9 0.3 0
v 2 0.3 0
v 2.9 0.3 0
v 3 0.3 0
v 3.9 0.3 0
v 4 0.3 0
v 4.9 0.3 0
v 5 0.3 0
v 5.9 0.3 0
v 6 0.3 0
v 6.9 0.3 0
v 7 0.3 0
v 7.9 0.3 0
v 8 0.3 0
v 8.9 0.3 0
v 9 0.3 0
v 0.9 0.3 -0.1
v 1 0.3 -0.1
v 1.9 0.3 -0.1
v 2 0.3 -0.1
v 2.9 0.3 -0.1
v 3 0.3 -0.1
v 3.9 0.3 -0.1
v 4 0.3 -0.1
v 4.9 0.3 -0.1
v 5 0.3 -0.1
v 5.9 0.3 -0.1
v 6 0.3 -0.1
v 6.9 0.3 -0.1
v 7 0.3 -0.1
v 7.9 0.3 -0.1
v 8 0.3 -0.1
v 8.9 0.3 -0.1
v 9 0.3 -0.1
v 0.9 0.3 -0.2
v 1 0.3 -0.2
v 1.9 0.3 -0.2
v 2 0.3 -0.2
v 2.9 0.3 -0.2
v 3 0.3 -0.2
v 3.9 0.3 -0.2
v 4 0.3 -0.2
v 4.9 0.3 -0.2
v 5 0.3 -0.2
v 5.9 0.3 -0.2
v 6 0.3 -0.2
v 6.9 0.3 -0.2
v 7 0.3 -0.2
v 7.9 0.3 -0.2
v 8 0.3 -0.2
v 8.9 0.3 -0.2
v 9 0.3 -0.2
v 0.9 0.3 -0.6
v 1 0.3 -0.6
v 1.9 0.3 -0.6
v 2 0.3 -0.6
v 2.9 0.3 -0.6
v 3 0.3 -0.6
v 3.9 0.3 -0.6
v 4 0.3 -0.6
v 4.9 0.3 -0.6
v 5 0.3 -0.6
v 5.9 0.3 -0.6
v 6 0.3 -0.6
v 6.9 0.3 -0.6
v 7 0.3 -0.6
v 7.9 0.3 -0.6
v 8 0.3 -0.6
v 8.9 0.3 -0.6
v 9 0.3 -0.6
v 0.9 0.3 -0.7
v 1 0.3 -0.7
v 1.9 0.3 -0.7
v 2 0.3 -0.7
v 2.9 0.3 -0.7
v 3 0.3 -0.7
v 3.9 0.3 -0.7
v 4 0.3 -0.7
v 4.9 0.3 -0.7
v 5 0.3 -0.7
v 5.9 0.3 -0.7
v 6 0.3 -0.7
v 6.9 0.3 -0.7
v 7 0.3 -0.7
v 7.9 0.3 -0.7
v 8 0.3 -0.7
v 8.9 0.3 -0.7
v 9 0.3 -0.7
v 0.9 0.3 -0.8
v 1 0.3 -0.8
v 1.9 0.3 -0.8
v 2 0.3 -0.8
v 2.9 0.3 -0.8
v 3 0.3 -0.8
v 3.9 0.3 -0.8
v 4 0.3 -0.8
v 4.9 0.3 -0.8
v 5 0.3 -0.8
v 5.9 0.3 -0.8
v 6 0.3 -0.8
v 6.9 0.3 -0.8
v 7 0.3 -0.8
v 7.9 0.3 -0.8
v 8 0.3 -0.8
v 8.9 0.3 -0.8
v 9 0.3 -0.8
v 0 0.4 -0.1
v 9 0.4 -0.1
v 0 0.4 -0.2
v 9 0.4 -0.2
v 0 0.4 -0.6
v 9 0.4 -0.6
v 0 0.4 -0.7
v 9 0.4 -0.7

# faces
f 3/1/1 2/1/1 1/1/1
f 4/1/1 2/1/1 3/1/1
f 9/3/1 6/3/1 5/3/1
f 10/3/1 6/3/1 9/3/1
f 11/3/1 8/3/1 7/3/1
f 12/3/1 8/3/1 11/3/1
f 15/2/1 14/2/1 13/2/1
f 16/2/1 14/2/1 15/2/1
f 17/2/1 14/2/1 16/2/1
f 18/2/1 14/2/1 17/2/1
f 19/2/1 14/2/1 18/2/1
f 20/2/1 14/2/1 19/2/1
f 23/2/1 22/2/1 21/2/1
f 24/2/1 22/2/1 23/2/1
f 25/2/1 22/2/1 24/2/1
f 26/2/1 22/2/1 25/2/1
f 27/2/1 22/2/1 26/2/1
f 28/2/1 22/2/1 27/2/1
f 31/2/1 30/2/1 29/2/1
f 32/2/1 30/2/1 31/2/1
f 33/2/1 30/2/1 32/2/1
f 34/2/1 30/2/1 33/2/1
f 35/2/1 30/2/1 34/2/1
f 36/2/1 30/2/1 35/2/1
f 39/2/1 38/2/1 37/2/1
f 40/2/1 38/2/1 39/2/1
f 41/2/1 38/2/1 40/2/1
f 42/2/1 38/2/1 41/2/1
f 43/2/1 38/2/1 42/2/1
f 44/2/1 38/2/1 43/2/1
f 47/2/1 46/2/1 45/2/1
f 48/2/1 46/2/1 47/2/1
f 49/2/1 46/2/1 48/2/1
f 50/2/1 46/2/1 49/2/1
f 51/2/1 46/2/1 50/2/1
f 52/2/1 46/2/1 51/2/1
f 55/2/1 54/2/1 53/2/1
f 56/2/1 54/2/1 55/2/1
f 57/2/1 54/2/1 56/2/1
f 58/2/1 54/2/1 57/2/1
f 59/2/1 54/2/1 58/2/1
f 60/2/1 54/2/1 59/2/1
f 63/2/1 62/2/1 61/2/1
f 64/2/1 62/2/1 63/2/1
f 65/2/1 62/2/1 64/2/1
f 66/2/1 62/2/1 65/2/1
f 67/2/1 62/2/1 66/2/1
f 68/2/1 62/2/1 67/2/1
f 71/2/1 70/2/1 69/2/1
f 72/2/1 70/2/1 71/2/1
f 73/2/1 70/2/1 72/2/1
f 74/2/1 70/2/1 73/2/1
f 75/2/1 70/2/1 74/2/1
f 76/2/1 70/2/1 75/2/1
f 79/2/1 78/2/1 77/2/1
f 80/2/1 78/2/1 79/2/1
f 81/2/1 78/2/1 80/2/1
f 82/2/1 78/2/1 81/2/1
f 83/2/1 78/2/1 82/2/1
f 84/2/1 78/2/1 83/2/1
f 85/2/2 86/2/2 87/2/2
f 87/2/2 86/2/2 88/2/2
f 88/2/2 86/2/2 89/2/2
f 89/2/2 86/2/2 90/2/2
f 90/2/2 86/2/2 91/2/2
f 91/2/2 86/2/2 92/2/2
f 93/2/2 94/2/2 95/2/2
f 95/2/2 94/2/2 96/2/2
f 96/2/2 94/2/2 97/2/2
f 97/2/2 94/2/2 98/2/2
f 98/2/2 94/2/2 99/2/2
f 99/2/2 94/2/2 100/2/2
f 101/2/2 102/2/2 103/2/2
f 103/2/2 102/2/2 104/2/2
f 104/2/2 102/2/2 105/2/2
f 105/2/2 102/2/2 106/2/2
f 106/2/2 102/2/2 107/2/2
f 107/2/2 102/2/2 108/2/2
f 109/2/2 110/2/2 111/2/2
f 111/2/2 110/2/2 112/2/2
f 112/2/2 110/2/2 113/2/2
f 113/2/2 110/2/2 114/2/2
f 114/2/2 110/2/2 115/2/2
f 115/2/2 110/2/2 116/2/2
f 117/2/2 118/2/2 119/2/2
f 119/2/2 118/2/2 120/2/2
f 120/2/2 118/2/2 121/2/2
f 121/2/2 118/2/2 122/2/2
f 122/2/2 118/2/2 123/2/2
f 123/2/2 118/2/2 124/2/2
f 125/2/2 126/2/2 127/2/2
f 127/2/2 126/2/2 128/2/2
f 128/2/2 126/2/2 129/2/2
f 129/2/2 126/2/2 130/2/2
f 130/2/2 126/2/2 131/2/2
f 131/2/2 126/2/2 132/2/2
f 133/2/2 134/2/2 135/2/2
f 135/2/2 134/2/2 136/2/2
f 136/2/2 134/2/2 137/2/2
f 137/2/2 134/2/2 138/2/2
f 138/2/2 134/2/2 139/2/2
f 139/2/2 134/2/2 140/2/2
f 141/2/2 142/2/2 143/2/2
f 143/2/2 142/2/2 144/2/2
f 144/2/2 142/2/2 145/2/2
f 145/2/2 142/2/2 146/2/2
f 146/2/2 142/2/2 147/2/2
f 147/2/2 142/2/2 148/2/2
f 149/1/2 150/1/2 151/1/2
f 151/1/2 150/1/2 152/1/2
f 152/1/2 150/1/2 153/1/2
f 151/2/2 152/2/2 154/2/2
f 154/2/2 152/2/2 155/2/2
f 155/2/2 152/2/2 156/2/2
f 156/2/2 152/2/2 157/2/2
f 157/2/2 152/2/2 158/2/2
f 158/2/2 152/2/2 159/2/2
f 155/3/2 156/3/2 160/3/2
f 160/3/2 156/3/2 161/3/2
f 157/3/2 158/3/2 162/3/2
f 162/3/2 158/3/2 163/3/2
f 166/1/3 165/1/3 164/1/3
f 168/1/3 166/1/3 164/1/3
f 168/2/3 167/2/3 166/2/3
f 169/2/3 167/2/3 168/2/3
f 170/1/3 168/1/3 164/1/3
f 172/1/3 170/1/3 164/1/3
f 172/2/3 171/2/3 170/2/3
f 173/2/3 171/2/3 172/2/3
f 174/1/3 172/1/3 164/1/3
f 176/1/3 174/1/3 164/1/3
f 176/2/3 175/2/3 174/2/3
f 177/2/3 175/2/3 176/2/3
f 178/1/3 176/1/3 164/1/3
f 180/1/3 178/1/3 164/1/3
f 180/2/3 179/2/3 178/2/3
f 181/2/3 179/2/3 180/2/3
f 182/1/3 180/1/3 164/1/3
f 184/1/3 182/1/3 164/1/3
f 184/2/3 183/2/3 182/2/3
f 185/2/3 183/2/3 184/2/3
f 186/1/3 184/1/3 164/1/3
f 188/1/3 186/1/3 164/1/3
f 188/2/3 187/2/3 186/2/3
f 189/2/3 187/2/3 188/2/3
f 190/1/3 188/1/3 164/1/3
f 192/1/3 190/1/3 164/1/3
f 192/2/3 191/2/3 190/2/3
f 193/2/3 191/2/3 192/2/3
f 194/1/3 192/1/3 164/1/3
f 196/1/3 194/1/3 164/1/3
f 196/2/3 195/2/3 194/2/3
f 197/2/3 195/2/3 196/2/3
f 198/1/3 196/1/3 164/1/3
f 200/1/3 198/1/3 164/1/3
f 201/2/3 199/2/3 198/2/3
f 201/1/3 198/1/3 200/1/3
f 202/2/3 199/2/3 201/2/3
f 205/3/3 204/3/3 203/3/3
f 206/3/3 204/3/3 205/3/3
f 207/3/3 204/3/3 206/3/3
f 208/3/3 204/3/3 207/3/3
f 209/3/3 204/3/3 208/3/3
f 210/3/3 204/3/3 209/3/3
f 211/3/3 204/3/3 210/3/3
f 212/3/3 204/3/3 211/3/3
f 213/3/3 204/3/3 212/3/3
f 214/3/3 204/3/3 213/3/3
f 215/3/3 204/3/3 214/3/3
f 216/3/3 204/3/3 215/3/3
f 217/3/3 204/3/3 216/3/3
f 218/3/3 204/3/3 217/3/3
f 219/3/3 204/3/3 218/3/3
f 220/3/3 204/3/3 219/3/3
f 221/3/3 204/3/3 220/3/3
f 222/3/3 204/3/3 221/3/3
f 223/3/3 204/3/3 222/3/3
f 226/3/3 225/3/3 224/3/3
f 227/3/3 225/3/3 226/3/3
f 228/3/3 225/3/3 227/3/3
f 229/3/3 225/3/3 228/3/3
f 230/3/3 225/3/3 229/3/3
f 231/3/3 225/3/3 230/3/3
f 232/3/3 225/3/3 231/3/3
f 233/3/3 225/3/3 232/3/3
f 234/3/3 225/3/3 233/3/3
f 235/3/3 225/3/3 234/3/3
f 236/3/3 225/3/3 235/3/3
f 237/3/3 225/3/3 236/3/3
f 238/3/3 225/3/3 237/3/3
f 239/3/3 225/3/3 238/3/3
f 240/3/3 225/3/3 239/3/3
f 241/3/3 225/3/3 240/3/3
f 242/3/3 225/3/3 241/3/3
f 243/3/3 225/3/3 242/3/3
f 244/3/3 225/3/3 243/3/3
f 245/3/4 246/3/4 247/3/4
f 247/3/4 246/3/4 248/3/4
f 248/3/4 246/3/4 249/3/4
f 249/3/4 246/3/4 250/3/4
f 250/3/4 246/3/4 251/3/4
f 251/3/4 246/3/4 252/3/4
f 252/3/4 246/3/4 253/3/4
f 253/3/4 246/3/4 254/3/4
f 254/3/4 246/3/4 255/3/4
f 255/3/4 246/3/4 256/3/4
f 256/3/4 246/3/4 257/3/4
f 257/3/4 246/3/4 258/3/4
f 258/3/4 246/3/4 259/3/4
f 259/3/4 246/3/4 260/3/4
f 260/3/4 246/3/4 261/3/4
f 261/3/4 246/3/4 262/3/4
f 262/3/4 246/3/4 263/3/4
f 263/3/4 246/3/4 264/3/4
f 264/3/4 246/3/4 265/3/4
f 266/3/4 267/3/4 268/3/4
f 268/3/4 267/3/4 269/3/4
f 269/3/4 267/3/4 270/3/4
f 270/3/4 267/3/4 271/3/4
f 271/3/4 267/3/4 272/3/4
f 272/3/4 267/3/4 273/3/4
f 273/3/4 267/3/4 274/3/4
f 274/3/4 267/3/4 275/3/4
f 275/3/4 267/3/4 276/3/4
f 276/3/4 267/3/4 277/3/4
f 277/3/4 267/3/4 278/3/4
f 278/3/4 267/3/4 279/3/4
f 279/3/4 267/3/4 280/3/4
f 280/3/4 267/3/4 281/3/4
f 281/3/4 267/3/4 282/3/4
f 282/3/4 267/3/4 283/3/4
f 283/3/4 267/3/4 284/3/4
f 284/3/4 267/3/4 285/3/4
f 285/3/4 267/3/4 286/3/4
f 287/2/4 288/2/4 289/2/4
f 289/2/4 288/2/4 290/2/4
f 291/2/4 292/2/4 293/2/4
f 293/2/4 292/2/4 294/2/4
f 295/2/4 296/2/4 297/2/4
f 297/2/4 296/2/4 298/2/4
f 299/2/4 300/2/4 301/2/4
f 301/2/4 300/2/4 302/2/4
f 303/2/4 304/2/4 305/2/4
f 305/2/4 304/2/4 306/2/4
f 307/2/4 308/2/4 309/2/4
f 309/2/4 308/2/4 310/2/4
f 311/2/4 312/2/4 313/2/4
f 313/2/4 312/2/4 314/2/4
f 315/2/4 316/2/4 317/2/4
f 317/2/4 316/2/4 318/2/4
f 319/2/4 320/2/4 321/2/4
f 321/2/4 320/2/4 322/2/4
f 323/1/4 324/1/4 325/1/4
f 325/1/4 324/1/4 326/1/4
f 329/1/5 328/1/5 327/1/5
f 330/1/5 328/1/5 329/1/5
f 349/3/5 332/3/5 331/3/5
f 350/3/5 332/3/5 349/3/5
f 351/3/5 334/3/5 333/3/5
f 352/3/5 334/3/5 351/3/5
f 353/3/5 336/3/5 335/3/5
f 354/3/5 336/3/5 353/3/5
f 355/3/5 338/3/5 337/3/5
f 356/3/5 338/3/5 355/3/5
f 357/3/5 340/3/5 339/3/5
f 358/3/5 340/3/5 357/3/5
f 359/3/5 342/3/5 341/3/5
f 360/3/5 342/3/5 359/3/5
f 361/3/5 344/3/5 343/3/5
f 362/3/5 344/3/5 361/3/5
f 363/3/5 346/3/5 345/3/5
f 364/3/5 346/3/5 363/3/5
f 365/3/5 348/3/5 347/3/5
f 366/3/5 348/3/5 365/3/5
f 385/3/5 368/3/5 367/3/5
f 386/3/5 368/3/5 385/3/5
f 387/3/5 370/3/5 369/3/5
f 388/3/5 370/3/5 387/3/5
f 389/3/5 372/3/5 371/3/5
f 390/3/5 372/3/5 389/3/5
f 391/3/5 374/3/5 373/3/5
f 392/3/5 374/3/5 391/3/5
f 393/3/5 376/3/5 375/3/5
f 394/3/5 376/3/5 393/3/5
f 395/3/5 378/3/5 377/3/5
f 396/3/5 378/3/5 395/3/5
f 397/3/5 380/3/5 379/3/5
f 398/3/5 380/3/5 397/3/5
f 399/3/5 382/3/5 381/3/5
f 400/3/5 382/3/5 399/3/5
f 401/3/5 384/3/5 383/3/5
f 402/3/5 384/3/5 401/3/5
f 403/1/6 404/1/6 421/1/6
f 405/1/6 406/1/6 422/1/6
f 422/1/6 406/1/6 423/1/6
f 407/1/6 408/1/6 424/1/6
f 424/1/6 408/1/6 425/1/6
f 409/1/6 410/1/6 426/1/6
f 426/1/6 410/1/6 427/1/6
f 411/1/6 412/1/6 428/1/6
f 428/1/6 412/1/6 429/1/6
f 413/1/6 414/1/6 430/1/6
f 430/1/6 414/1/6 431/1/6
f 415/1/6 416/1/6 432/1/6
f 432/1/6 416/1/6 433/1/6
f 417/1/6 418/1/6 434/1/6
f 434/1/6 418/1/6 435/1/6
f 419/1/6 420/1/6 436/1/6
f 436/1/6 420/1/6 437/1/6
f 434/1/6 435/1/6 439/1/6
f 437/1/6 438/1/6 439/1/6
f 436/1/6 437/1/6 439/1/6
f 435/1/6 436/1/6 439/1/6
f 403/1/6 421/1/6 439/1/6
f 433/1/6 434/1/6 439/1/6
f 422/1/6 423/1/6 439/1/6
f 431/1/6 432/1/6 439/1/6
f 424/1/6 425/1/6 439/1/6
f 429/1/6 430/1/6 439/1/6
f 426/1/6 427/1/6 439/1/6
f 427/1/6 428/1/6 439/1/6
f 428/1/6 429/1/6 439/1/6
f 425/1/6 426/1/6 439/1/6
f 430/1/6 431/1/6 439/1/6
f 423/1/6 424/1/6 439/1/6
f 432/1/6 433/1/6 439/1/6
f 421/1/6 422/1/6 439/1/6
f 439/1/6 438/1/6 440/1/6
f 441/2/6 442/2/6 459/2/6
f 459/2/6 442/2/6 460/2/6
f 443/2/6 444/2/6 461/2/6
f 461/2/6 444/2/6 462/2/6
f 445/2/6 446/2/6 463/2/6
f 463/2/6 446/2/6 464/2/6
f 447/2/6 448/2/6 465/2/6
f 465/2/6 448/2/6 466/2/6
f 449/2/6 450/2/6 467/2/6
f 467/2/6 450/2/6 468/2/6
f 451/2/6 452/2/6 469/2/6
f 469/2/6 452/2/6 470/2/6
f 453/2/6 454/2/6 471/2/6
f 471/2/6 454/2/6 472/2/6
f 455/2/6 456/2/6 473/2/6
f 473/2/6 456/2/6 474/2/6
f 457/2/6 458/2/6 475/2/6
f 475/2/6 458/2/6 476/2/6
f 477/2/6 478/2/6 495/2/6
f 495/2/6 478/2/6 496/2/6
f 479/2/6 480/2/6 497/2/6
f 497/2/6 480/2/6 498/2/6
f 481/2/6 482/2/6 499/2/6
f 499/2/6 482/2/6 500/2/6
f 483/2/6 484/2/6 501/2/6
f 501/2/6 484/2/6 502/2/6
f 485/2/6 486/2/6 503/2/6
f 503/2/6 486/2/6 504/2/6
f 487/2/6 488/2/6 505/2/6
f 505/2/6 488/2/6 506/2/6
f 489/2/6 490/2/6 507/2/6
f 507/2/6 490/2/6 508/2/6
f 491/2/6 492/2/6 509/2/6
f 509/2/6 492/2/6 510/2/6
f 493/2/6 494/2/6 511/2/6
f 511/2/6 494/2/6 512/2/6
f 513/2/6 514/2/6 531/2/6
f 531/2/6 514/2/6 532/2/6
f 515/2/6 516/2/6 533/2/6
f 533/2/6 516/2/6 534/2/6
f 517/2/6 518/2/6 535/2/6
f 535/2/6 518/2/6 536/2/6
f 519/2/6 520/2/6 537/2/6
f 537/2/6 520/2/6 538/2/6
f 521/2/6 522/2/6 539/2/6
f 539/2/6 522/2/6 540/2/6
f 523/2/6 524/2/6 541/2/6
f 541/2/6 524/2/6 542/2/6
f 525/2/6 526/2/6 543/2/6
f 543/2/6 526/2/6 544/2/6
f 527/2/6 528/2/6 545/2/6
f 545/2/6 528/2/6 546/2/6
f 529/2/6 530/2/6 547/2/6
f 547/2/6 530/2/6 548/2/6
f 549/3/6 550/3/6 551/3/6
f 551/3/6 550/3/6 552/3/6
f 553/3/6 554/3/6 555/3/6
f 555/3/6 554/3/6 556/3/6
